/* XPM */
static char *result[] = {
/* columns rows colors chars-per-pixel */
"64 64 94 2 ",
"   c #272746",
".  c #2A2A4A",
"X  c #302F4F",
"o  c #2F2F50",
"O  c #343454",
"+  c #393857",
"@  c #3C3C5C",
"#  c #3F3F61",
"$  c #423D5A",
"%  c #444464",
"&  c #4B4B6B",
"*  c #534A65",
"=  c #584C67",
"-  c #5F536C",
";  c #555474",
":  c #585877",
">  c #575778",
",  c #5B5B7B",
"<  c #61546D",
"1  c #635771",
"2  c #635872",
"3  c #6E5C72",
"4  c #605C7A",
"5  c #6B5F78",
"6  c #725D72",
"7  c #60607F",
"8  c #796277",
"9  c #71617A",
"0  c #7C657A",
"q  c #816779",
"w  c #856B7D",
"e  c #886C7D",
"r  c #646484",
"t  c #6E6682",
"y  c #6B6B84",
"u  c #6B6B8B",
"i  c #706E8D",
"p  c #74738E",
"a  c #7C738E",
"s  c #79798F",
"d  c #6F6F90",
"f  c #737393",
"g  c #7B7B94",
"h  c #7C7C9C",
"j  c #8F7081",
"k  c #84768F",
"l  c #8D7488",
"z  c #947483",
"x  c #967788",
"c  c #947A8E",
"v  c #9C7E8E",
"b  c #807590",
"n  c #807894",
"m  c #8C7B92",
"M  c #947D92",
"N  c #A37D8A",
"B  c #818196",
"V  c #84849F",
"C  c #8B8B9E",
"Z  c #928096",
"A  c #9C8194",
"S  c #A6808D",
"D  c #A78391",
"F  c #A88491",
"G  c #A88897",
"H  c #AC8A99",
"J  c #8484A3",
"K  c #8E8EA4",
"L  c #8D8DAB",
"P  c #9292A6",
"I  c #9595AC",
"U  c #9A9AAB",
"Y  c #9494B3",
"T  c #9B9BB5",
"R  c #9B9BBB",
"E  c #A19DBB",
"W  c #A3A3B4",
"Q  c #A3A3BB",
"!  c #ABABBD",
"~  c #C49299",
"^  c #A4A4C4",
"/  c #ADA6C3",
"(  c #AAAAC5",
")  c #ACACCC",
"_  c #B1B1C4",
"`  c #B4B4CC",
"'  c #BCBCCD",
"]  c #B5B5D5",
"[  c #BCBCD2",
"{  c #BDBDDD",
"}  c #C1C1D6",
"|  c #C3C3DC",
" . c #C1C1E0",
".. c None",
/* pixels */
"................................................................................................................................",
"..................................................................O ............................................................",
"................................................................O % o ..........................................................",
"................................................................@ , % ........@ ................................................",
"................................................................& a 1 ......@ & O ..............................................",
"............................................................... ; Z j ......& 5 $ ..............................................",
"..............................................................O , M w ....+ t v < ..............................................",
"..............................................................& u l j ....$ a v < ..............................................",
"..............................................................; f D e ..O ; m N < ..............................................",
"............................................................O y k N 6 ..% d G z ................................................",
"............................................................% u M z * + 4 n F 8 ................................................",
"..........................................................O r a F q + & i H N 3 ................................................",
"..........................................................O r k x = O 4 Z ~ w ..................................................",
"..........................................................O ; A 8 O % a c j ....................................................",
"............................................................# 9 * % , l 0 ......................................................",
"............................................................% ; , ; ; 1 ........................................................",
"..........................................................+ , r r , & ..........................................................",
"..........................................................& f u u r , % ........................................................",
"........................................................  r u u f u r , @ ......................................................",
"......................................................... u r r g d y i ; ......................................................",
"........................................................+ 7 r y f h u u u f ! ! s ..............................................",
"......................................................s P U W ! I f u a m Q ( ( J ..............................................",
"....................................................y _ | |  . .} ! I E / R R ^ h ..............................................",
"....................................................7 ^ |  . .] ( T R Y R Y ^ Y ................................................",
"......................................................f Y ] { ] ^ ( ) Q Q Y J ..................................................",
"........................................................r J R ^ ) ) ] Y g r ....................................................",
"..........................................................; ; r h Y ^ y ........................................................",
"..............................................................+ , R ' r ........................................................",
"............................................................% ; r ^ } I ; O ....................................................",
"........................................................+ r r r u Q { } T & ....................................................",
"......................................................# , r r ; r E ] ` ! r O ..................................................",
"....................................................% r r ; @ & r ^ ] ( Q u + ..................................................",
"..................................................& r r > + O ; r ^ ] ) E u O ..................................................",
"................................................O ; r ; @ ..& r f ^ { ) Y u + ..................................................",
"................................................. ; r ; ....> u L ]  .) J r O ..................................................",
"................................................O & r r & @ r r L {  .^ f ; O ..................................................",
"................................................; & & r r # u f R {  .^ f O ....................................................",
"................................................h r % & & > r h )  . .^ r o ....................................................",
"................................................J d > # + d r J )  . .R ; ......................................................",
"................................................r f r % & r r L ]  . .L ........................................................",
"..................................................f r % r r d ^ {  .] f ........................................................",
"...................................................., # ; , f ) {  .^ r ........................................................",
"....................................................... & r d )  .{ L ..........................................................",
"........................................................# , d ^ { ) d ..........................................................",
"........................................................  r r h R h % ..........................................................",
"........................................................  d r & r u # ..........................................................",
"........................................................  d r + > r # ..........................................................",
"......................................................... f r + ; u # ..........................................................",
"......................................................... f r @ ; u # ..........................................................",
"......................................................... f r + > y @ ..........................................................",
"......................................................... f r @ > u # ..........................................................",
"........................................................  d r + > r # ..........................................................",
"......................................................... f r + > u @ ..........................................................",
"......................................................... f r @ , r @ ..........................................................",
"......................................................... f r @ > r @ ..........................................................",
"......................................p C C B ..........% u r + , y % ........y B B p ..........................................",
"....................................f L [ [ ` U y O O & r r y @ > r ; O ....C W [ } ! K ........................................",
"..................................r J ^ ^ T |  .! f r r g f K & r g u 7 y W |  .] ] [ } J ......................................",
"..................................r L E Y ' }  .| _ P K ! h J ; f Q L P _ |  . .{ [ T ) W ; ....................................",
"..................................> L R T |  . . .} [ Q Y r > & , L R ' } |  . . .| W ^ R ; ....................................",
"....................................u u J ` ] ) J h J u ............> J J J ( ] ] ( g u d ......................................",
"........................................, u u r ............................r d f r ............................................",
"................................................................................................................................",
"................................................................................................................................"
};
