/* XPM */
static char *result[] = {
/* columns rows colors chars-per-pixel */
"64 64 146 2 ",
"   c #16312E",
".  c #143828",
"X  c #192F32",
"o  c #1C2E39",
"O  c #1A3634",
"+  c #20213F",
"@  c #3C2E37",
"#  c #593C28",
"$  c #403036",
"%  c #065E0C",
"&  c #0E451B",
"*  c #095913",
"=  c #195510",
"-  c #036407",
";  c #086A0F",
":  c #027603",
">  c #027B04",
",  c #0B6315",
"<  c #096B13",
"1  c #0B7615",
"2  c #3D6404",
"3  c #17442E",
"4  c #69451D",
"5  c #715811",
"6  c #6F4826",
"7  c #674429",
"8  c #222242",
"9  c #2D2D4D",
"0  c #322B40",
"q  c #333353",
"w  c #3B3957",
"e  c #3B3B5B",
"r  c #3F3F60",
"t  c #493D44",
"y  c #40405F",
"u  c #4F4759",
"i  c #434363",
"p  c #484866",
"a  c #474768",
"s  c #4C4C6C",
"d  c #584D67",
"f  c #56516E",
"g  c #545473",
"h  c #5A5775",
"j  c #595977",
"k  c #5C5C7C",
"l  c #6C5F62",
"z  c #63556D",
"x  c #685870",
"c  c #725E74",
"v  c #62627E",
"b  c #89550B",
"n  c #925E16",
"m  c #985C17",
"M  c #A96402",
"N  c #B86C00",
"B  c #B3690B",
"V  c #BF7402",
"C  c #B6700E",
"Z  c #AA6D1A",
"A  c #825C34",
"S  c #CE7807",
"D  c #C47203",
"F  c #98754C",
"G  c #96734C",
"H  c #947962",
"J  c #927B6E",
"K  c #866A7C",
"L  c #8A6D7E",
"P  c #049306",
"I  c #098010",
"U  c #A3805A",
"Y  c #AE8A6B",
"T  c #646483",
"R  c #6A6A85",
"E  c #6C6C8C",
"W  c #7B6980",
"Q  c #746F8C",
"!  c #73738C",
"~  c #7F748E",
"^  c #79798F",
"/  c #737392",
"(  c #7D7693",
")  c #7C7B95",
"_  c #7B7B9A",
"`  c #7F7FA0",
"'  c #846F84",
"]  c #8D6F81",
"[  c #84758D",
"{  c #8E768A",
"}  c #97798B",
"|  c #9E7B8B",
" . c #927282",
".. c #847D97",
"X. c #8B7990",
"o. c #837C98",
"O. c #A37D8B",
"+. c #818194",
"@. c #82829A",
"#. c #8E8499",
"$. c #8C8A9D",
"%. c #9E8091",
"&. c #958298",
"*. c #9C9093",
"=. c #9B939A",
"-. c #A6818E",
";. c #B0848F",
":. c #AA8898",
">. c #AC8693",
",. c #B78B95",
"<. c #B98991",
"1. c #B18F9E",
"2. c #8383A3",
"3. c #8B8BA3",
"4. c #8E8EAC",
"5. c #9291A9",
"6. c #9B9AAD",
"7. c #9494B3",
"8. c #9C9CB3",
"9. c #9B9BBB",
"0. c #B89CAD",
"q. c #A4A4B5",
"w. c #A5A5BB",
"e. c #ACACBE",
"r. c #ABA6BC",
"t. c #C08F96",
"y. c #D89C9D",
"u. c #A3A3C3",
"i. c #ACACC3",
"p. c #ACACCB",
"a. c #B3B3C5",
"s. c #B8B8C7",
"d. c #B3B3CC",
"f. c #BDBDCD",
"g. c #B5B5D4",
"h. c #BBBBD4",
"j. c #BCBCDB",
"k. c #C4C4D5",
"l. c #C9C9D4",
"z. c #C4C4DC",
"x. c #CECEDF",
"c. c #D4D4DF",
"v. c #C1C1E0",
"b. c #C9C9E0",
"n. c #D0D0E0",
"m. c None",
/* pixels */
"m.m.m.m.m.m.m.m.m.m.m.m.m.m.m.m.m.m.m.m.m.m.m.m.m.m.m.m.m.m.m.m.m.m.m.m.m.m.m.m.m.m.m.m.m.m.m.m.m.m.m.m.m.m.m.m.m.m.m.m.m.m.m.m.",
"m.m.m.m.m.m.m.m.m.m.m.m.m.m.m.m.m.m.m.m.m.m.m.m.m.m.m.m.m.m.m.m.m.m.m.m.m.m.m.m.m.m.m.m.m.m.m.m.m.m.m.m.m.m.m.m.m.m.m.m.m.m.m.m.",
"m.m.m.m.m.m.m.m.m.m.m.m.m.m.m.m.m.m.m.m.m.m.m.m.m.m.m.m.m.m.m.m.m.e 9 m.m.m.m.m.m.m.m.m.m.m.m.m.m.m.m.m.m.m.m.m.m.m.m.m.m.m.m.m.",
"m.m.m.m.m.m.m.m.m.m.m.m.m.m.m.m.m.m.m.m.m.m.m.m.m.m.m.m.m.m.m.m.m.s e m.m.m.m.q m.m.m.m.m.m.m.m.m.m.m.m.m.m.m.m.m.m.m.m.m.m.m.m.",
"m.m.m.m.m.m.m.m.m.m.m.m.m.m.m.m.m.m.m.m.m.m.m.m.m.m.m.m.m.m.m.m.m.T j m.m.m.m.a q m.m.m.m.m.m.m.m.m.m.m.m.m.m.m.m.m.m.m.m.m.m.m.",
"m.m.m.m.m.m.m.m.m.m.m.m.m.m.m.m.m.m.m.m.m.m.m.m.m.m.m.m.m.m.m.m.q Q W m.m.m.9 g q m.m.m.m.m.m.m.m.m.m.m.m.m.m.m.m.m.m.m.m.m.m.m.",
"m.m.m.m.m.m.m.m.m.m.m.m.m.m.m.m.m.m.m.m.m.m.m.m.m.m.m.m.m.m.m.m.i ..O.m.m.m.q { d m.m.m.m.m.m.m.m.m.m.m.m.m.m.m.m.m.m.m.m.m.m.m.",
"m.m.m.m.m.m.m.m.m.m.m.m.m.m.m.m.m.m.m.m.m.m.m.m.m.m.m.m.m.m.m.m.j [ O.m.m.8 R 1.x m.m.m.m.m.m.m.m.m.m.m.m.m.m.m.m.m.m.m.m.m.m.m.",
"m.m.m.m.m.m.m.m.m.m.m.m.m.m.m.m.m.m.m.m.m.m.m.m.m.m.m.m.m.m.m.q E ( | m.m.8 T :.x m.m.m.m.m.m.m.m.m.m.m.m.m.m.m.m.m.m.m.m.m.m.m.",
"m.m.m.m.m.m.m.m.m.m.m.m.m.m.m.m.m.m.m.m.m.m.m.m.m.m.m.m.m.m.m.r E >.O.m.9 g ..t.x m.m.m.m.m.m.m.m.m.m.m.m.m.m.m.m.m.m.m.m.m.m.m.",
"m.m.m.m.m.m.m.m.m.m.m.m.m.m.m.m.m.m.m.m.m.m.m.m.m.m.m.m.m.m.8 T E -.c m.e E &. .m.m.m.m.m.m.m.m.m.m.m.m.m.m.m.m.m.m.m.m.m.m.m.m.",
"m.m.m.m.m.m.m.m.m.m.m.m.m.m.m.m.m.m.m.m.m.m.m.m.m.m.m.m.m.m.i E X.;.z 9 j o.,.K m.m.m.m.m.m.m.m.m.m.m.m.m.m.m.m.m.m.m.m.m.m.m.m.",
"m.m.m.m.m.m.m.m.m.m.m.m.m.m.m.m.m.m.m.m.m.m.m.m.m.m.m.m.m.m.s / %.L w i Q [ ,.x m.m.m.m.m.m.m.m.m.m.m.m.m.m.m.m.m.m.m.m.m.m.m.m.",
"m.m.m.m.m.m.m.m.m.m.m.m.m.m.m.m.m.m.m.m.m.m.m.m.m.m.m.m.m.m.p o.} z q j ( y.] m.m.m.m.m.m.m.m.m.m.m.m.m.m.m.m.m.m.m.m.m.m.m.m.m.",
"m.m.m.m.m.m.m.m.m.m.m.m.m.m.m.m.m.m.m.m.m.m.m.m.m.m.m.m.m.m.q [ ] m.q E | c m.m.m.m.m.m.m.m.m.m.m.m.m.m.m.m.m.m.m.m.m.m.m.m.m.m.",
"m.m.m.m.m.m.m.m.m.m.m.m.m.m.m.m.m.m.m.m.m.m.m.m.m.m.m.m.m.m.8 g p a j ' x m.m.m.m.m.m.m.m.m.m.m.m.m.m.m.m.m.m.m.m.m.m.m.m.m.m.m.",
"m.m.m.m.m.m.m.m.m.m.m.m.m.m.m.m.m.m.m.m.m.m.m.m.m.m.m.m.m.m.q j g T s g m.m.m.m.m.m.m.m.m.m.m.m.m.m.m.m.m.m.m.m.m.m.m.m.m.m.m.m.",
"m.m.m.m.m.m.m.m.m.m.m.m.m.m.m.m.m.m.m.m.m.m.m.m.m.m.m.m.m.m.k E R T k w m.m.m.m.m.m.m.m.m.m.m.m.m.m.m.m.m.m.m.m.m.m.m.m.m.m.m.m.",
"m.m.m.m.m.m.m.m.m.m.m.m.m.m.m.m.m.m.m.m.m.m.m.m.m.m.m.m.m.a T / 2._ T / p m.m.m.m.m.m.m.m.m.m.m.m.m.m.m.m.m.m.m.m.m.m.m.m.m.m.m.",
"m.m.m.m.m.m.m.m.m.m.m.m.m.m.m.m.m.m.m.m.m.m.m.m.m.m.m.m.m.p E T 6.i.E 5.R m.m.m.m.m.m.m.m.m.m.m.m.m.m.m.m.m.m.m.m.m.m.m.m.m.m.m.",
"m.m.m.m.m.m.m.m.m.m.m.m.m.m.m.m.m.m.m.m.m.m.m.m.m.m.m.m.m.a E T 4.l.4.+._ / E $.R m.m.m.m.m.m.m.m.m.m.m.m.m.m.m.m.m.m.m.m.m.m.m.",
"m.m.m.m.m.m.m.m.m.m.m.m.m.m.m.m.m.m.m.m.m.m.m.m.m.m.m.m.p p T R / ! 7.R R j.s.z.q.k m.m.m.m.m.m.m.m.m.m.m.m.m.m.m.m.m.m.m.m.m.m.",
"m.m.m.m.m.m.m.m.m.m.m.m.m.m.m.m.m.m.m.m.m.m.m.m.m.m.m.^ f.c.n.n.c.$.4.( 0.7.u.4.9.j m.m.m.m.m.m.m.m.m.m.m.m.m.m.m.m.m.m.m.m.m.m.",
"m.m.m.m.m.m.m.m.m.m.m.m.m.m.m.m.m.m.m.m.m.m.m.m.m.m.m.3.z.v.v.v.v.i.w.7.9.9.9.p.2.m.m.m.m.m.m.m.m.m.m.m.m.m.m.m.m.m.m.m.m.m.m.m.",
"m.m.m.m.m.m.m.m.m.m.m.m.m.m.m.m.m.m.m.m.m.m.m.m.m.m.m.E p.j.v.j.u.9.u.7.a.7.7.2.m.m.m.m.m.m.m.m.m.m.m.m.m.m.m.m.m.m.m.m.m.m.m.m.",
"m.m.m.m.m.m.m.m.m.m.m.m.m.m.m.m.m.m.m.m.m.m.m.m.m.m.m.m.E 7.p.v.g.p.j.p.e./ 2.m.m.m.m.m.m.m.m.m.m.m.m.m.m.m.m.m.m.m.m.m.m.m.m.m.",
"m.m.m.m.m.m.m.m.m.m.m.m.m.m.m.m.m.m.m.m.m.m.m.m.m.m.m.m.m.j E 2.7.u.p.9.R r m.m.m.m.m.m.m.m.m.m.m.m.m.m.m.m.m.m.m.m.m.m.m.m.m.m.",
"m.m.m.m.m.m.m.m.m.m.m.m.m.m.m.m.m.m.m.m.m.m.m.m.m.m.m.m.m.m.m.w s 2.i.@.r m.m.m.m.m.m.m.m.m.m.m.m.m.m.m.m.m.m.m.m.m.m.m.m.m.m.m.",
"m.m.m.m.m.m.m.m.m.m.m.m.m.m.m.m.m.m.m.m.m.m.m.m.m.m.m.m.m.m.9 e g 2.h.6.r 9 m.m.m.m.m.m.m.m.m.m.m.m.m.m.m.m.m.m.m.m.m.m.m.m.m.m.",
"m.m.m.m.m.m.m.m.m.m.m.m.m.m.m.m.m.m.m.m.m.m.m.m.m.m.m.m.m.a T E T 2.g.z.i.R w m.m.7 7 $ m.m.m.m.m.m.m.m.m.m.m.m.m.m.m.m.m.m.m.m.",
"m.m.m.m.m.m.m.m.m.m.m.m.m.m.m.m.m.m.m.m.m.m.m.m.m.m.m.m.g E T T T 2.h.j.k.` T r $ m D Z 6 q 5.) m.m.m.m.m.m.m.m.m.m.m.m.m.m.m.m.",
"m.m.m.m.m.m.m.m.m.m.m.m.m.m.m.m.m.m.m.m.m.m.m.m.m.m.m.g R j e 9 a 2.g.u.f._ T R p + 4 M S Y u.l.6.v m.m.m.m.m.m.m.m.m.m.m.m.m.m.",
"m.m.m.m.m.m.m.m.m.m.m.m.m.m.m.m.m.m.m.m.m.m.m.m.m.m.e T T e m.9 j 2.g.p.d.T s T T s u A N C 5.f.w.w.( ! m.m.m.m.m.m.m.m.m.m.m.m.",
"m.m.m.m.m.m.m.m.m.m.m.m.m.m.m.m.m.m.m.m.m.m.m.m.m.m.s E s m.m.T T 2.g.g.p.e m.a j j E _ U Z H 5.9.6.8.$.t m.m.m.m.m.m.m.m.m.m.m.",
"m.m.m.m.m.m.m.m.m.m.m.m.m.m.m.m.m.m.m.m.m.m.m.m.m.m.s R e m.8 / E 9.j.j.7.i m.m.9 r 7.7.r.*.=.4.#.F J F 5 + m.m.m.m.m.m.m.m.m.m.",
"m.m.m.m.m.m.m.m.m.m.m.m.m.m.m.m.m.m.m.m.m.m.m.m.m.m.a T q m.a T / p.v.g.T m.m.m.m.m.E E 4.f.z.8.l b M D 2 + m.m.m.m.m.m.m.m.m.m.",
"m.m.m.m.m.m.m.m.m.m.m.m.m.m.m.m.m.m.m.m.m.m.m.m.m.m.g T q m.T T / p.v.j.T m.m.m.m.m.m.m.k T T T m.# B n = + m.m.m.m.m.m.m.m.m.m.",
"m.m.m.m.m.m.m.m.m.m.m.m.m.m.m.m.m.m.m.m.m.m.m.m.m._ x.h.T m.T R 4.g.v.g.T m.m.m.m.m.m.m.m.m.m.m.m.m.+ o 1 + m.m.m.m.m.m.m.m.m.m.",
"m.m.m.m.m.m.m.m.m.m.m.m.m.m.m.m.m.m.m.m.m.m.m.m.m.m.! 7.3.g T R 9.v.v.g.T m.m.m.m.m.m.m.m.m.m.m.m.m.m.3 1 + m.m.m.m.m.m.m.m.m.m.",
"m.m.m.m.m.m.m.m.m.m.m.m.m.m.m.m.m.m.m.m.m.m.m.m.m.R u.d.h.5.T R 9.v.v.g.T m.m.m.m.m.m.m.m.m.m.m.m.m.O < P o m.m.m.m.m.m.m.m.m.m.",
"m.m.m.m.m.m.m.m.m.m.m.m.m.m.m.m.m.m.m.m.m.m.m.m.m._ b.i.g.s.E ` p.v.v.u.k m.m.m.m.m.m.m.m.m.m.m.m.O , > : + m.m.m.m.m.m.m.m.m.m.",
"m.m.m.m.m.m.m.m.m.m.m.m.m.m.m.m.m.m.m.m.m.m.m.m.m.E a.i.h.f._ 4.g.v.v.2.m.m.m.m.m.m.m.m.m.m.m.m.m.O ; > * m.m.m.m.m.m.m.m.m.m.m.",
"m.m.m.m.m.m.m.m.m.m.m.m.m.m.m.m.m.m.m.m.m.m.m.m.m.T 2.u.p.x.8.7.j.v.j./ m.m.m.m.m.m.m.m.m.m.m.m.m.X % -   m.m.m.m.m.m.m.m.m.m.m.",
"m.m.m.m.m.m.m.m.m.m.m.m.m.m.m.m.m.m.m.m.m.m.m.m._ 2.9.u.p.k.6.4.j.v.9.g m.m.m.m.m.m.m.m.m.m.m.m.m.O , & m.m.m.m.m.m.m.m.m.m.m.m.",
"m.m.m.m.m.m.m.m.m.m.m.m.m.m.m.m.m.m.m.m.m.m.m.m.E E 4.7.p._ T _ 9.p./ m.m.m.m.m.m.m.m.m.m.m.m.m.m.m.. m.m.m.m.m.m.m.m.m.m.m.m.m.",
"m.m.m.m.m.m.m.m.m.m.m.m.m.m.m.m.m.m.m.m.m.m.m.m.m.m.k T T g E k T _ k m.m.m.m.m.m.m.m.m.m.m.m.m.m.m.m.m.m.m.m.m.m.m.m.m.m.m.m.m.",
"m.m.m.m.m.m.m.m.m.m.m.m.m.m.m.m.m.m.m.m.m.m.m.m.m.m.m.m.m.a E s r T T m.m.m.m.m.m.m.m.m.m.m.m.m.m.m.m.m.m.m.m.m.m.m.m.m.m.m.m.m.",
"m.m.m.m.m.m.m.m.m.m.m.m.m.m.m.m.m.m.m.m.m.m.m.m.m.m.m.m.m.a E g r T T m.m.m.m.m.m.m.m.m.m.m.m.m.m.m.m.m.m.m.m.m.m.m.m.m.m.m.m.m.",
"m.m.m.m.m.m.m.m.m.m.m.m.m.m.m.m.m.m.m.m.m.m.m.m.m.m.m.m.m.s E s i T k m.m.m.m.m.m.m.m.m.m.m.m.m.m.m.m.m.m.m.m.m.m.m.m.m.m.m.m.m.",
"m.m.m.m.m.m.m.m.m.m.m.m.m.m.m.m.m.m.m.m.m.m.m.m.m.m.m.m.m.p E s i T T m.m.m.m.m.m.m.m.m.m.m.m.m.m.m.m.m.m.m.m.m.m.m.m.m.m.m.m.m.",
"m.m.m.m.m.m.m.m.m.m.m.m.m.m.m.m.m.m.m.m.m.m.m.m.m.m.m.m.9 a E s i T T m.m.m.m.m.m.m.m.m.m.m.m.m.m.m.m.m.m.m.m.m.m.m.m.m.m.m.m.m.",
"m.m.m.m.m.m.m.m.m.m.m.m.m.m.m.m.m.m.m.m.m.m.m.m.m.m.m.m.9 k R g i T v m.m.m.m.m.m.m.m.m.m.m.m.m.m.m.m.m.m.m.m.m.m.m.m.m.m.m.m.m.",
"m.m.m.m.m.m.m.m.m.m.m.m.m.m.m.m.m.m.m.m.m.m.m.m.m.m.m.m.9 _ T s i T T m.m.m.m.m.m.m.m.m.m.m.m.m.m.m.m.m.m.m.m.m.m.m.m.m.m.m.m.m.",
"m.m.m.m.m.m.m.m.m.m.m.m.m.m.m.m.m.m.m.m.m.m.m.m.m.m.m.m.9 / T s i T k m.m.m.m.m.m.m.m.m.m.m.m.m.m.m.m.m.m.m.m.m.m.m.m.m.m.m.m.m.",
"m.m.m.m.m.m.m.m.m.m.m.m.m.m.m.m.m.m.m.m.m.m.m.m.m.m.m.m.9 / T s a T T m.m.m.m.m.m.m.m.m.m.m.m.m.m.m.m.m.m.m.m.m.m.m.m.m.m.m.m.m.",
"m.m.m.m.m.m.m.m.m.m.m.m.m.m.m.m.m.m.m.k v R v m.m.m.m.m.9 / T q a T k m.m.m.m.m.m.m.m.m.m.m.m.m.m.m.m.m.m.m.m.m.m.m.m.m.m.m.m.m.",
"m.m.m.m.m.m.m.m.m.m.m.m.m.m.m.m.m.m.T 2.k.f.e.+.m.m.m.m.a R T w p T T m.m.m.m.m.) @.+.m.m.m.m.m.m.m.m.m.m.m.m.m.m.m.m.m.m.m.m.m.",
"m.m.m.m.m.m.m.m.m.m.m.m.m.m.m.m.m.T _ 9.d.9.g.q.R w q s T T R w j T T p q q ^ q.k.z.l.e.3.m.m.m.m.m.m.m.m.m.m.m.m.m.m.m.m.m.m.m.",
"m.m.m.m.m.m.m.m.m.m.m.m.m.m.m.m.m.R 2.u.7.3.j.b.e.^ T T / / 6.s R ) / R T ! f.z.j.g.d.j.d.v m.m.m.m.m.m.m.m.m.m.m.m.m.m.m.m.m.m.",
"m.m.m.m.m.m.m.m.m.m.m.m.m.m.m.m.m.g 4.p.4.e.z.v.z.w._ _ q.7.7.g 2.u.8./ @.f.b.v.j.z.w.9.z.E m.m.m.m.m.m.m.m.m.m.m.m.m.m.m.m.m.m.",
"m.m.m.m.m.m.m.m.m.m.m.m.m.m.m.m.m.m.4.9.6.b.v.v.v.z.n.i.2.i i i r _ 7.d.x.j.v.v.v.v.k.3.g.T m.m.m.m.m.m.m.m.m.m.m.m.m.m.m.m.m.m.",
"m.m.m.m.m.m.m.m.m.m.m.m.m.m.m.m.m.m.T T @.j.v.g._ E E T m.m.m.m.m.m.g T E ! ` g.j.j.2.j T g m.m.m.m.m.m.m.m.m.m.m.m.m.m.m.m.m.m.",
"m.m.m.m.m.m.m.m.m.m.m.m.m.m.m.m.m.m.m.m.m.g g s m.m.m.m.m.m.m.m.m.m.m.m.m.m.m.s g s m.m.m.m.m.m.m.m.m.m.m.m.m.m.m.m.m.m.m.m.m.m.",
"m.m.m.m.m.m.m.m.m.m.m.m.m.m.m.m.m.m.m.m.m.m.m.m.m.m.m.m.m.m.m.m.m.m.m.m.m.m.m.m.m.m.m.m.m.m.m.m.m.m.m.m.m.m.m.m.m.m.m.m.m.m.m.m."
};
