/* XPM */
static char *result[] = {
/* columns rows colors chars-per-pixel */
"64 64 80 1 ",
"  c #20203F",
". c #222242",
"X c #2D2D4C",
"o c #2F2F50",
"O c #333353",
"+ c #373758",
"@ c #3C3C5C",
"# c #3F3F60",
"$ c #434363",
"% c #4C4C6C",
"& c #53516F",
"* c #545474",
"= c #595973",
"- c #5C5C7B",
"; c #6A5970",
": c #725E73",
"> c #63637D",
", c #796277",
"< c #7F6679",
"1 c #636383",
"2 c #696684",
"3 c #696981",
"4 c #6B6B8B",
"5 c #746882",
"6 c #7E6D84",
"7 c #73738A",
"8 c #7B738F",
"9 c #7A7A8E",
"0 c #747493",
"q c #7B7592",
"w c #7B7B95",
"e c #7B7B9B",
"r c #88748B",
"t c #8D798F",
"y c #9A7684",
"u c #957B8D",
"i c #9E7C8A",
"p c #837690",
"a c #847993",
"s c #8B7D96",
"d c #9A7F91",
"f c #83839C",
"g c #8B8B9E",
"h c #9C8093",
"j c #B3858F",
"k c #AC8490",
"l c #AE8996",
"z c #A1889C",
"x c #B48994",
"c c #BB8E97",
"v c #8484A3",
"b c #8989A2",
"n c #8D8DAB",
"m c #9292A5",
"M c #9090AF",
"N c #9A9AAE",
"B c #9494B4",
"V c #9C96B2",
"C c #9A9AB3",
"Z c #9B9BBA",
"A c #B599AB",
"S c #A2A2B2",
"D c #A3A3BC",
"F c #ABABBC",
"G c #CD979D",
"H c #A4A4C3",
"J c #ACACC2",
"K c #ACACCC",
"L c #B4B4C3",
"P c #BCBCC7",
"I c #B5B5CB",
"U c #BDBDCD",
"Y c #B3B3D3",
"T c #BDBDDC",
"R c #C0C0D2",
"E c #C4C4DC",
"W c #CDCDD9",
"Q c #D5D5DF",
"! c #C1C1E0",
"~ c None",
/* pixels */
"~~~~~~~~~~~~~~~~~~~~~~~~~~~~~~~~~~~~~~~~~~~~~~~~~~~~~~~~~~~~~~~~",
"~~~~~~~~~~~~~~~~~~~~~~~~~~~~~~~~~~~~~~~~~~~~~~~~~~~~~~~~~~~~~~~~",
"~~~~~~~~~~~~~~~~~~~~~~~~~~~~~~~~~@O~~~~~~~~~~~~~~~~~~~~~~~~~~~~~",
"~~~~~~~~~~~~~~~~~~~~~~~~~~~~~~~~~$#~~~~~~~~~~~~~~~~~~~~~~~~~~~~~",
"~~~~~~~~~~~~~~~~~~~~~~~~~~~~~~~~~=1.~~~@@~~~~~~~~~~~~~~~~~~~~~~~",
"~~~~~~~~~~~~~~~~~~~~~~~~~~~~~~~~O2rO~~X%@~~~~~~~~~~~~~~~~~~~~~~~",
"~~~~~~~~~~~~~~~~~~~~~~~~~~~~~~~~+qx#~~O6;~~~~~~~~~~~~~~~~~~~~~~~",
"~~~~~~~~~~~~~~~~~~~~~~~~~~~~~~~~%qk#~.-z<~~~~~~~~~~~~~~~~~~~~~~~",
"~~~~~~~~~~~~~~~~~~~~~~~~~~~~~~~o1qk#~ -d<~~~~~~~~~~~~~~~~~~~~~~~",
"~~~~~~~~~~~~~~~~~~~~~~~~~~~~~~~#2dj~ %ac,~~~~~~~~~~~~~~~~~~~~~~~",
"~~~~~~~~~~~~~~~~~~~~~~~~~~~~~~~*0i,~O1si~~~~~~~~~~~~~~~~~~~~~~~~",
"~~~~~~~~~~~~~~~~~~~~~~~~~~~~~~+2px;~%exy~~~~~~~~~~~~~~~~~~~~~~~~",
"~~~~~~~~~~~~~~~~~~~~~~~~~~~~~~$0ty~@48x:~~~~~~~~~~~~~~~~~~~~~~~~",
"~~~~~~~~~~~~~~~~~~~~~~~~~~~~~~$qu;X*0Gy~~~~~~~~~~~~~~~~~~~~~~~~~",
"~~~~~~~~~~~~~~~~~~~~~~~~~~~~~~O5i@X1d<~~~~~~~~~~~~~~~~~~~~~~~~~~",
"~~~~~~~~~~~~~~~~~~~~~~~~~~~~~~~%%$=6:~~~~~~~~~~~~~~~~~~~~~~~~~~~",
"~~~~~~~~~~~~~~~~~~~~~~~~~~~~~~O**1&&~~~~~~~~~~~~~~~~~~~~~~~~~~~~",
"~~~~~~~~~~~~~~~~~~~~~~~~~~~~~~*4211+~~~~~~~~~~~~~~~~~~~~~~~~~~~~",
"~~~~~~~~~~~~~~~~~~~~~~~~~~~~~@104411@~~~~~~~~~~~~~~~~~~~~~~~~~~~",
"~~~~~~~~~~~~~~~~~~~~~~~~~~~~~@414e1q1~~~~~~~~~~~~~~~~~~~~~~~~~~~",
"~~~~~~~~~~~~~~~~~~~~~~~~~~~~~#410DnwI+*g7~~~~~~~~~~~~~~~~~~~~~~~",
"~~~~~~~~~~~~~~~~~~~~~~~~~~~~%$-24Z44eOSEJ>~~~~~~~~~~~~~~~~~~~~~~",
"~~~~~~~~~~~~~~~~~~~~~~~~~~~3LQQQQI77AVHMZ1~~~~~~~~~~~~~~~~~~~~~~",
"~~~~~~~~~~~~~~~~~~~~~~~~~~~wT!!!!IDBZZZKn~~~~~~~~~~~~~~~~~~~~~~~",
"~~~~~~~~~~~~~~~~~~~~~~~~~~~1HTTTHZZZJZCn~~~~~~~~~~~~~~~~~~~~~~~~",
"~~~~~~~~~~~~~~~~~~~~~~~~~~~~4nKTYKTKJee~~~~~~~~~~~~~~~~~~~~~~~~~",
"~~~~~~~~~~~~~~~~~~~~~~~~~~~~~%4vMHKH0%~~~~~~~~~~~~~~~~~~~~~~~~~~",
"~~~~~~~~~~~~~~~~~~~~~~~~~~~~~~~~%0DN#~~~~~~~~~~~~~~~~~~~~~~~~~~~",
"~~~~~~~~~~~~~~~~~~~~~~~~~~~~~~~o#0YL&X~~~~~~~~~~~~~~~~~~~~~~~~~~",
"~~~~~~~~~~~~~~~~~~~~~~~~~~~~~O$44eIEI0O~~~~~~~~~~~~~~~~~~~~~~~~~",
"~~~~~~~~~~~~~~~~~~~~~~~~~~~~~-411eKTWm%~~~~~~~~~~~~~~~~~~~~~~~~~",
"~~~~~~~~~~~~~~~~~~~~~~~~~~~+-1-%%0YKUn*X~~~~~~~~~~~~~~~~~~~~~~~~",
"~~~~~~~~~~~~~~~~~~~~~~~~~~O-1*#o*eYKYn*X~~~~~~~~~~~~~~~~~~~~~~~~",
"~~~~~~~~~~~~~~~~~~~~~~~~~+11-+.-1eYYYn*X~~~~~~~~~~~~~~~~~~~~~~~~",
"~~~~~~~~~~~~~~~~~~~~~~~~~O11#~.14BTTKe*X~~~~~~~~~~~~~~~~~~~~~~~~",
"~~~~~~~~~~~~~~~~~~~~~~~~~O11-X#14HT!Z1&X~~~~~~~~~~~~~~~~~~~~~~~~",
"~~~~~~~~~~~~~~~~~~~~~~~~~@#-1**44H!!B1+~~~~~~~~~~~~~~~~~~~~~~~~~",
"~~~~~~~~~~~~~~~~~~~~~~~~%0%@1%*4vY!TZ1X~~~~~~~~~~~~~~~~~~~~~~~~~",
"~~~~~~~~~~~~~~~~~~~~~~~~-M1%$#41B!!!nO~~~~~~~~~~~~~~~~~~~~~~~~~~",
"~~~~~~~~~~~~~~~~~~~~~~~~~04-O-22M!!T0~~~~~~~~~~~~~~~~~~~~~~~~~~~",
"~~~~~~~~~~~~~~~~~~~~~~~~~1n1o01eH!!K2~~~~~~~~~~~~~~~~~~~~~~~~~~~",
"~~~~~~~~~~~~~~~~~~~~~~~~~~1-o41vY!!B~~~~~~~~~~~~~~~~~~~~~~~~~~~~",
"~~~~~~~~~~~~~~~~~~~~~~~~~~~~.-1vY!Te~~~~~~~~~~~~~~~~~~~~~~~~~~~~",
"~~~~~~~~~~~~~~~~~~~~~~~~~~~~.-1eY!K*~~~~~~~~~~~~~~~~~~~~~~~~~~~~",
"~~~~~~~~~~~~~~~~~~~~~~~~~~~~~O-0ZYvO~~~~~~~~~~~~~~~~~~~~~~~~~~~~",
"~~~~~~~~~~~~~~~~~~~~~~~~~~~~~+2-1e4 ~~~~~~~~~~~~~~~~~~~~~~~~~~~~",
"~~~~~~~~~~~~~~~~~~~~~~~~~~~~~@4*#11 ~~~~~~~~~~~~~~~~~~~~~~~~~~~~",
"~~~~~~~~~~~~~~~~~~~~~~~~~~~~~@4*+14 ~~~~~~~~~~~~~~~~~~~~~~~~~~~~",
"~~~~~~~~~~~~~~~~~~~~~~~~~~~~~@4*@14 ~~~~~~~~~~~~~~~~~~~~~~~~~~~~",
"~~~~~~~~~~~~~~~~~~~~~~~~~~~~~@4*$14 ~~~~~~~~~~~~~~~~~~~~~~~~~~~~",
"~~~~~~~~~~~~~~~~~~~~~~~~~~~~~@4*@14 ~~~~~~~~~~~~~~~~~~~~~~~~~~~~",
"~~~~~~~~~~~~~~~~~~~~~~~~~~~~~@4*@14 ~~~~~~~~~~~~~~~~~~~~~~~~~~~~",
"~~~~~~~~~~~~~~~~~~~~~~~~~~~~~@4*#14.~~~~~~~~~~~~~~~~~~~~~~~~~~~~",
"~~~~~~~~~~~~~~~~~~~~~~~~~~~~~@4*@14 ~~~~~~~~~~~~~~~~~~~~~~~~~~~~",
"~~~~~~~~~~~~~~~~~~~~~~~~~~~~~@4*@14 ~~~~~~~~~~~~~~~~~~~~~~~~~~~~",
"~~~~~~~~~~~~~~~~~~~~>31>~~~~~$4*#14 ~~~~>3>~~~~~~~~~~~~~~~~~~~~~",
"~~~~~~~~~~~~~~~~~~~1CUUS9~~~#11*@14+~~~9FRUm7~~~~~~~~~~~~~~~~~~~",
"~~~~~~~~~~~~~~~~~~4eHYDEEm**444w%441**NWEYYEU4~~~~~~~~~~~~~~~~~~",
"~~~~~~~~~~~~~~~~~~0vYnP!EEFw7JBv-BF0wLE!TTJCEf~~~~~~~~~~~~~~~~~~",
"~~~~~~~~~~~~~~~~~~-BBCE!TEEPJD1*%4DJPE!!!!RbTf~~~~~~~~~~~~~~~~~~",
"~~~~~~~~~~~~~~~~~~~v4N!!YZBB1~~~~~$4BBZY!TK4e4~~~~~~~~~~~~~~~~~~",
"~~~~~~~~~~~~~~~~~~~~~1e04*~~~~~~~~~~~~*0e01~~~~~~~~~~~~~~~~~~~~~",
"~~~~~~~~~~~~~~~~~~~~~~~~~~~~~~~~~~~~~~~~~~~~~~~~~~~~~~~~~~~~~~~~",
"~~~~~~~~~~~~~~~~~~~~~~~~~~~~~~~~~~~~~~~~~~~~~~~~~~~~~~~~~~~~~~~~"
};
