/* XPM */
static char *result[] = {
/* columns rows colors chars-per-pixel */
"64 64 87 1 ",
"  c #20203F",
". c #222242",
"X c #2D2D4D",
"o c #343454",
"O c #3C3C5C",
"+ c #40405F",
"@ c #434363",
"# c #4C4C6C",
"$ c #544A64",
"% c #504C6A",
"& c #51516E",
"* c #545474",
"= c #5A5673",
"- c #585876",
"; c #5C5C7C",
": c #65556E",
"> c #675770",
", c #745F75",
"< c #63637C",
"1 c #766176",
"2 c #75667E",
"3 c #806679",
"4 c #866A7C",
"5 c #8A6D7E",
"6 c #636383",
"7 c #696985",
"8 c #676788",
"9 c #6B6B8B",
"0 c #726D8B",
"q c #73738C",
"w c #7E738E",
"e c #737393",
"r c #7C7794",
"t c #7A7A94",
"y c #7D7D9D",
"u c #836F85",
"i c #8D7081",
"p c #87768E",
"a c #8B7489",
"s c #937282",
"d c #9B7B8B",
"f c #8B7B94",
"g c #817D9B",
"h c #897E98",
"j c #A27C88",
"k c #858599",
"l c #9E8091",
"z c #968399",
"x c #A5818E",
"c c #B0858F",
"v c #A98593",
"b c #AC8A99",
"n c #B48A95",
"m c #BD8C94",
"M c #B18F9D",
"N c #8484A3",
"B c #8A8AA4",
"V c #8C8CAC",
"C c #9191A6",
"Z c #9494AC",
"A c #9494B3",
"S c #9F9FB2",
"D c #9C9CBB",
"F c #B498AB",
"G c #A19EBD",
"H c #A4A4B4",
"J c #A4A4B9",
"K c #A9A9BC",
"L c #B0B0BF",
"P c #DC9E9F",
"I c #A4A4C4",
"U c #ACACC4",
"Y c #ACACCC",
"T c #B4B4C3",
"R c #BABAC6",
"E c #BBBBCA",
"W c #B4B4D4",
"Q c #BCBCD7",
"! c #BBBBDB",
"~ c #C0C0CB",
"^ c #C3C3D6",
"/ c #CACAD5",
"( c #C2C2DC",
") c #CCCCDC",
"_ c #C1C1E0",
"` c #CCCCE0",
"' c None",
/* pixels */
"''''''''''''''''''''''''''''''''''''''''''''''''''''''''''''''''",
"''''''''''''''''''''''''''''''''''''''''''''''''''''''''''''''''",
"'''''''''''''''''''''''''''''''''OX'''''''''''''''''''''''''''''",
"'''''''''''''''''''''''''''''''''#O''''X''''''''''''''''''''''''",
"'''''''''''''''''''''''''''''''''6-''''@X'''''''''''''''''''''''",
"''''''''''''''''''''''''''''''''o02'''X*o'''''''''''''''''''''''",
"''''''''''''''''''''''''''''''''+hx'''oa$'''''''''''''''''''''''",
"''''''''''''''''''''''''''''''''-wd''.6M>'''''''''''''''''''''''",
"'''''''''''''''''''''''''''''''o8wd''.8l>'''''''''''''''''''''''",
"'''''''''''''''''''''''''''''''+9vj'.*hP='''''''''''''''''''''''",
"''''''''''''''''''''''''''''''.;0x,'O8zs''''''''''''''''''''''''",
"''''''''''''''''''''''''''''''O9fc:X-gn4''''''''''''''''''''''''",
"''''''''''''''''''''''''''''''#ediO@0wm:''''''''''''''''''''''''",
"''''''''''''''''''''''''''''''#gd:X-rPs'''''''''''''''''''''''''",
"''''''''''''''''''''''''''''''opi'o9d3''''''''''''''''''''''''''",
"'''''''''''''''''''''''''''''' *#@;u1'''''''''''''''''''''''''''",
"''''''''''''''''''''''''''''''o-&6&=''''''''''''''''''''''''''''",
"'''''''''''''''''''''''''''''';986;o''''''''''''''''''''''''''''",
"'''''''''''''''''''''''''''''@8e98<;o'''''''''''''''''''''''''''",
"'''''''''''''''''''''''''''''#88ee88#'''''''''''''''''''''''''''",
"'''''''''''''''''''''''''''''#869y98;66k''''''''''''''''''''''''",
"''''''''''''''''''''''''''''O@;666N86YT`H'''''''''''''''''''''''",
"'''''''''''''''''''''''''''qR/)))kVrFDIVD;''''''''''''''''''''''",
"'''''''''''''''''''''''''''B(___(UJAJDDYN'''''''''''''''''''''''",
"'''''''''''''''''''''''''''9I!_!IDGAUADN''''''''''''''''''''''''",
"'''''''''''''''''''''''''''-eDW_WYWYTeN'''''''''''''''''''''''''",
"''''''''''''''''''''''''''''@-tADYYIe@''''''''''''''''''''''''''",
"'''''''''''''''''''''''''''''''O*yUkO'''''''''''''''''''''''''''",
"'''''''''''''''''''''''''''''''.+NQS+.''''''''''''''''''''''''''",
"'''''''''''''''''''''''''''''oOe9NW)J8.'''''''''''''''''''''''''",
"''''''''''''''''''''''''''''';966NW!/yO'''''''''''''''''''''''''",
"'''''''''''''''''''''''''''+66-##NQI~y#'''''''''''''''''''''''''",
"''''''''''''''''''''''''''O;6*Oo-NWYEy&'''''''''''''''''''''''''",
"'''''''''''''''''''''''''+66-o ;6NWWYy&'''''''''''''''''''''''''",
"'''''''''''''''''''''''''@6;O'.q9D!!Iy#'''''''''''''''''''''''''",
"'''''''''''''''''''''''''O66*'@8eY_!V6#'''''''''''''''''''''''''",
"'''''''''''''''''''''''''o#;8@689W_!V;X'''''''''''''''''''''''''",
"''''''''''''''''''''''''*8O#6#;8VW_!V6.'''''''''''''''''''''''''",
"''''''''''''''''''''''''6V;#@#98D__!yX''''''''''''''''''''''''''",
"'''''''''''''''''''''''';e8-o;88D__W8'''''''''''''''''''''''''''",
"'''''''''''''''''''''''''9y;Oe6yY__I6'''''''''''''''''''''''''''",
"''''''''''''''''''''''''''8;O96VW__N''''''''''''''''''''''''''''",
"'''''''''''''''''''''''''''OX66V!_!e''''''''''''''''''''''''''''",
"''''''''''''''''''''''''''''X;;V!!I*''''''''''''''''''''''''''''",
"'''''''''''''''''''''''''''''O6yIYe'''''''''''''''''''''''''''''",
"'''''''''''''''''''''''''''''@8;8y6'''''''''''''''''''''''''''''",
"'''''''''''''''''''''''''''''#9#@86'''''''''''''''''''''''''''''",
"'''''''''''''''''''''''''''''#9&@66'''''''''''''''''''''''''''''",
"'''''''''''''''''''''''''''''#8#@86'''''''''''''''''''''''''''''",
"'''''''''''''''''''''''''''''#8*+66'''''''''''''''''''''''''''''",
"'''''''''''''''''''''''''''''#9#@8<'''''''''''''''''''''''''''''",
"'''''''''''''''''''''''''''''#9*@66'''''''''''''''''''''''''''''",
"'''''''''''''''''''''''''''''#9#@6;'''''''''''''''''''''''''''''",
"'''''''''''''''''''''''''''''#9&@86'''''''''''''''''''''''''''''",
"'''''''''''''''''''''''''''''@9#@66'''''''''''''''''''''''''''''",
"'''''''''''''''''''-<<<''''''*8*@86'''''<<<'''''''''''''''''''''",
"''''''''''''''''''6BEEJq''''@86#@66o'''qUETk7'''''''''''''''''''",
"'''''''''''''''''6yAWD``C***788t#89;&&H)(WQ)K;''''''''''''''''''",
"'''''''''''''''''8NYAK)_(HqqtUVB6DH9tE)_!!JJ(7''''''''''''''''''",
"'''''''''''''''''*VDZ(!_`^RUID6-#eUUE`____EVQ9''''''''''''''''''",
"''''''''''''''''''NyC___GDGe@'''''#yDDI!__IqI8''''''''''''''''''",
"''''''''''''''''''''8yye-'''''''''''''6eyt<#8-''''''''''''''''''",
"'''''''''''''''''''''''''''''''''''''''''*''''''''''''''''''''''",
"''''''''''''''''''''''''''''''''''''''''''''''''''''''''''''''''"
};
