/* XPM */
static char *result[] = {
/* columns rows colors chars-per-pixel */
"64 64 142 2 ",
"   c #153C2A",
".  c #1F253E",
"X  c #1B2938",
"o  c #183230",
"O  c #193A30",
"+  c #1B3038",
"@  c #20203F",
"#  c #2A2738",
"$  c #33293A",
"%  c #0D461A",
"&  c #1E5511",
"*  c #036C04",
"=  c #046B08",
"-  c #007400",
";  c #047308",
":  c #0C7217",
">  c #087F11",
",  c #114023",
"<  c #17432F",
"1  c #795B10",
"2  c #4C6A01",
"3  c #624124",
"4  c #794F21",
"5  c #694F3C",
"6  c #1F1F40",
"7  c #212141",
"8  c #282847",
"9  c #2D2D4D",
"0  c #333353",
"q  c #383857",
"w  c #3D3D5D",
"e  c #3F3F60",
"r  c #4C4048",
"t  c #474054",
"y  c #434363",
"u  c #4C4C6C",
"i  c #534964",
"p  c #55516F",
"a  c #545473",
"s  c #5D5774",
"d  c #5A5A75",
"f  c #5C5C7C",
"g  c #655871",
"h  c #695A73",
"j  c #625C79",
"k  c #705D73",
"l  c #65657D",
"z  c #776176",
"x  c #7C6478",
"c  c #905808",
"v  c #B36A00",
"b  c #BB6D00",
"n  c #B46E0C",
"m  c #A96D1D",
"M  c #9D6F37",
"N  c #CA7704",
"B  c #C47108",
"V  c #967146",
"C  c #967759",
"Z  c #84697B",
"A  c #8B6D7E",
"S  c #917F7D",
"D  c #008700",
"F  c #018901",
"G  c #05800B",
"H  c #B0865B",
"J  c #A38466",
"K  c #5F5F80",
"L  c #646484",
"P  c #696982",
"I  c #6C6C8C",
"U  c #7B7484",
"Y  c #72728C",
"T  c #7C738F",
"R  c #78788C",
"E  c #757594",
"W  c #7D7491",
"Q  c #7C7B95",
"!  c #7C7C9C",
"~  c #837087",
"^  c #8D7081",
"/  c #82738B",
"(  c #88768E",
")  c #957584",
"_  c #987787",
"`  c #9C7886",
"'  c #947B8F",
"]  c #847993",
"[  c #8B7D95",
"{  c #957D91",
"}  c #A47E8A",
"|  c #908082",
" . c #828297",
".. c #84849C",
"X. c #8B8B9D",
"o. c #958095",
"O. c #9A8E9A",
"+. c #9C9095",
"@. c #9C9399",
"#. c #A5808E",
"$. c #AC838E",
"%. c #A28394",
"&. c #AC8692",
"*. c #AC8C9C",
"=. c #B38690",
"-. c #B48C98",
";. c #8484A3",
":. c #8B8BA5",
">. c #8B8BAB",
",. c #928EA7",
"<. c #9090A2",
"1. c #9393AC",
"2. c #9B95AA",
"3. c #9F9FAF",
"4. c #9494B4",
"5. c #9E9EB6",
"6. c #9B9BBB",
"7. c #A19FBD",
"8. c #A4A4B5",
"9. c #ADADB7",
"0. c #A4A4BB",
"q. c #ABABBF",
"w. c #C19099",
"e. c #A5A5C5",
"r. c #AAAAC3",
"t. c #ABABCA",
"y. c #B4B4C3",
"u. c #BABAC7",
"i. c #B5B5CC",
"p. c #BDBDCD",
"a. c #B4B4D3",
"s. c #BBBBD2",
"d. c #BBBBDB",
"f. c #C3C3CD",
"g. c #C3C3D4",
"h. c #CACAD7",
"j. c #C4C4DD",
"k. c #CDCDDB",
"l. c #C1C1E0",
"z. c #CACAE0",
"x. c #D4D4E0",
"c. c None",
/* pixels */
"c.c.c.c.c.c.c.c.c.c.c.c.c.c.c.c.c.c.c.c.c.c.c.c.c.c.c.c.c.c.c.c.c.c.c.c.c.c.c.c.c.c.c.c.c.c.c.c.c.c.c.c.c.c.c.c.c.c.c.c.c.c.c.c.",
"c.c.c.c.c.c.c.c.c.c.c.c.c.c.c.c.c.c.c.c.c.c.c.c.c.c.c.c.c.q q c.c.c.c.c.c.c.c.c.c.c.c.c.c.c.c.c.c.c.c.c.c.c.c.c.c.c.c.c.c.c.c.c.",
"c.c.c.c.c.c.c.c.c.c.c.c.c.c.c.c.c.c.c.c.c.c.c.c.c.c.c.c.c.y q c.c.c.c.c.c.c.c.c.c.c.c.c.c.c.c.c.c.c.c.c.c.c.c.c.c.c.c.c.c.c.c.c.",
"c.c.c.c.c.c.c.c.c.c.c.c.c.c.c.c.c.c.c.c.c.c.c.c.c.c.c.c.c.a a 6 c.c.c.0 w c.c.c.c.c.c.c.c.c.c.c.c.c.c.c.c.c.c.c.c.c.c.c.c.c.c.c.",
"c.c.c.c.c.c.c.c.c.c.c.c.c.c.c.c.c.c.c.c.c.c.c.c.c.c.c.c.0 I ~ 0 c.c.c.y y 7 c.c.c.c.c.c.c.c.c.c.c.c.c.c.c.c.c.c.c.c.c.c.c.c.c.c.",
"c.c.c.c.c.c.c.c.c.c.c.c.c.c.c.c.c.c.c.c.c.c.c.c.c.c.c.c.q ] &.y c.c.7 f h 9 c.c.c.c.c.c.c.c.c.c.c.c.c.c.c.c.c.c.c.c.c.c.c.c.c.c.",
"c.c.c.c.c.c.c.c.c.c.c.c.c.c.c.c.c.c.c.c.c.c.c.c.c.c.c.c.y W &.e c.@ w ( _ e c.c.c.c.c.c.c.c.c.c.c.c.c.c.c.c.c.c.c.c.c.c.c.c.c.c.",
"c.c.c.c.c.c.c.c.c.c.c.c.c.c.c.c.c.c.c.c.c.c.c.c.c.c.c.0 L W } e c.8 u [ _ y c.c.c.c.c.c.c.c.c.c.c.c.c.c.c.c.c.c.c.c.c.c.c.c.c.c.",
"c.c.c.c.c.c.c.c.c.c.c.c.c.c.c.c.c.c.c.c.c.c.c.c.c.c.c.0 L { =.e c.u / %.` e c.c.c.c.c.c.c.c.c.c.c.c.c.c.c.c.c.c.c.c.c.c.c.c.c.c.",
"c.c.c.c.c.c.c.c.c.c.c.c.c.c.c.c.c.c.c.c.c.c.c.c.c.c.@ a I %.Z c.8 I *.} z c.c.c.c.c.c.c.c.c.c.c.c.c.c.c.c.c.c.c.c.c.c.c.c.c.c.c.",
"c.c.c.c.c.c.c.c.c.c.c.c.c.c.c.c.c.c.c.c.c.c.c.c.c.c.0 L W &.h c.u Q -.k c.c.c.c.c.c.c.c.c.c.c.c.c.c.c.c.c.c.c.c.c.c.c.c.c.c.c.c.",
"c.c.c.c.c.c.c.c.c.c.c.c.c.c.c.c.c.c.c.c.c.c.c.c.c.6 a E { } i q L o.$.c.c.c.c.c.c.c.c.c.c.c.c.c.c.c.c.c.c.c.c.c.c.c.c.c.c.c.c.c.",
"c.c.c.c.c.c.c.c.c.c.c.c.c.c.c.c.c.c.c.c.c.c.c.c.c.6 a E ' x c.y E w.A c.c.c.c.c.c.c.c.c.c.c.c.c.c.c.c.c.c.c.c.c.c.c.c.c.c.c.c.c.",
"c.c.c.c.c.c.c.c.c.c.c.c.c.c.c.c.c.c.c.c.c.c.c.c.c.c.y ( _ c.0 P ( ^ c.c.c.c.c.c.c.c.c.c.c.c.c.c.c.c.c.c.c.c.c.c.c.c.c.c.c.c.c.c.",
"c.c.c.c.c.c.c.c.c.c.c.c.c.c.c.c.c.c.c.c.c.c.c.c.c.c.7 s g q a ~ ^ c.c.c.c.c.c.c.c.c.c.c.c.c.c.c.c.c.c.c.c.c.c.c.c.c.c.c.c.c.c.c.",
"c.c.c.c.c.c.c.c.c.c.c.c.c.c.c.c.c.c.c.c.c.c.c.c.c.c.q a a L u p c.c.c.c.c.c.c.c.c.c.c.c.c.c.c.c.c.c.c.c.c.c.c.c.c.c.c.c.c.c.c.c.",
"c.c.c.c.c.c.c.c.c.c.c.c.c.c.c.c.c.c.c.c.c.c.c.c.c.c.L I L L f q c.c.c.c.c.c.c.c.c.c.c.c.c.c.c.c.c.c.c.c.c.c.c.c.c.c.c.c.c.c.c.c.",
"c.c.c.c.c.c.c.c.c.c.c.c.c.c.c.c.c.c.c.c.c.c.c.c.c.w I E E I L f c.c.c.c.c.c.c.c.c.c.c.c.c.c.c.c.c.c.c.c.c.c.c.c.c.c.c.c.c.c.c.c.",
"c.c.c.c.c.c.c.c.c.c.c.c.c.c.c.c.c.c.c.c.c.c.c.c.c.f L L :.r.I :.f c.c.c.c.c.c.c.c.c.c.c.c.c.c.c.c.c.c.c.c.c.c.c.c.c.c.c.c.c.c.c.",
"c.c.c.c.c.c.c.c.c.c.c.c.c.c.c.c.c.c.c.c.c.c.c.c.c.f L l :.h...:.1.u d l c.c.c.c.c.c.c.c.c.c.c.c.c.c.c.c.c.c.c.c.c.c.c.c.c.c.c.c.",
"c.c.c.c.c.c.c.c.c.c.c.c.c.c.c.c.c.c.c.c.c.c.c.c.w a L L Q 1.e.L u e.r.g.X.c.c.c.c.c.c.c.c.c.c.c.c.c.c.c.c.c.c.c.c.c.c.c.c.c.c.c.",
"c.c.c.c.c.c.c.c.c.c.c.c.c.c.c.c.c.c.c.c.c.c.c.d 9.9.9.u.y.L ! L %.0.t.0.4.e c.c.c.c.c.c.c.c.c.c.c.c.c.c.c.c.c.c.c.c.c.c.c.c.c.c.",
"c.c.c.c.c.c.c.c.c.c.c.c.c.c.c.c.c.c.c.c.c.c.a 8.l.l.l.j.j.s.y.4.r.e.6.e.:.c.c.c.c.c.c.c.c.c.c.c.c.c.c.c.c.c.c.c.c.c.c.c.c.c.c.c.",
"c.c.c.c.c.c.c.c.c.c.c.c.c.c.c.c.c.c.c.c.c.c.u :.l.l.l.l.t.6.4.4.0.4.e.>.c.c.c.c.c.c.c.c.c.c.c.c.c.c.c.c.c.c.c.c.c.c.c.c.c.c.c.c.",
"c.c.c.c.c.c.c.c.c.c.c.c.c.c.c.c.c.c.c.c.c.c.c.f >.t.a.d.t.t.a.t.u.:.;.c.c.c.c.c.c.c.c.c.c.c.c.c.c.c.c.c.c.c.c.c.c.c.c.c.c.c.c.c.",
"c.c.c.c.c.c.c.c.c.c.c.c.c.c.c.c.c.c.c.c.c.c.c.c.a I ;.6.7.t.t.t.] a c.c.c.c.c.c.c.c.c.c.c.c.c.c.c.c.c.c.c.c.c.c.c.c.c.c.c.c.c.c.",
"c.c.c.c.c.c.c.c.c.c.c.c.c.c.c.c.c.c.c.c.c.c.c.c.c.c.y e a ! 6.:.y c.c.c.c.c.c.c.c.c.c.c.c.c.c.c.c.c.c.c.c.c.c.c.c.c.c.c.c.c.c.c.",
"c.c.c.c.c.c.c.c.c.c.c.c.c.c.c.c.c.c.c.c.c.c.c.c.c.c.c.9 y E s.5.e c.c.c.c.c.c.c.c.c.c.c.c.c.c.c.c.c.c.c.c.c.c.c.c.c.c.c.c.c.c.c.",
"c.c.c.c.c.c.c.c.c.c.c.c.c.c.c.c.c.c.c.c.c.c.c.c.c.8 f d y ! a.r.y 9 c.c.c.c.c.c.c.c.c.c.c.c.c.c.c.c.c.c.c.c.c.c.c.c.c.c.c.c.c.c.",
"c.c.c.c.c.c.c.c.c.c.c.c.c.c.c.c.c.c.c.c.c.c.c.c.a E L K L ! a.z.0.L e c.c.c.c.c.c.c.c.c.c.c.c.c.c.c.c.c.c.c.c.c.c.c.c.c.c.c.c.c.",
"c.c.c.c.c.c.c.c.c.c.c.c.c.c.c.c.c.c.c.c.c.c.c.a I K K y a ! a.a.k.Q L 0 c.c.c.c.7 0 :...c.c.c.c.c.c.c.c.c.c.c.c.c.c.c.c.c.c.c.c.",
"c.c.c.c.c.c.c.c.c.c.c.c.c.c.c.c.c.c.c.c.c.c.w L f w 0 8 y ! a.t.f.Q L L y c.c.$ B H 0.g. .l c.c.c.c.c.c.c.c.c.c.c.c.c.c.c.c.c.c.",
"c.c.c.c.c.c.c.c.c.c.c.c.c.c.c.c.c.c.c.c.c.c.a I u 8 8 9 a ! a.t.s.L a L K u y t b n O.s.7.0.Y l c.c.c.c.c.c.c.c.c.c.c.c.c.c.c.c.",
"c.c.c.c.c.c.c.c.c.c.c.c.c.c.c.c.c.c.c.c.c.c.a L e c.6 K L ;.a.a.a.y 0 p d d L ! J m C ,.7.2.0.R r c.c.c.c.c.c.c.c.c.c.c.c.c.c.c.",
"c.c.c.c.c.c.c.c.c.c.c.c.c.c.c.c.c.c.c.c.c.c.a L 9 c.6 I I 6.d.d.6.y c.0 9 y >.4.r.+.@.>.) V J M 1 # c.c.c.c.c.c.c.c.c.c.c.c.c.c.",
"c.c.c.c.c.c.c.c.c.c.c.c.c.c.c.c.c.c.c.c.c.c.u f 6 c.u L I t.l.d.L c.c.c.c.c.E I ;.i.h.8.5 c n b 2 X c.c.c.c.c.c.c.c.c.c.c.c.c.c.",
"c.c.c.c.c.c.c.c.c.c.c.c.c.c.c.c.c.c.c.c.c.c.d f 7 6 E L I t.l.d.I c.c.c.c.c.c.c.c.L L L c.3 N 4 & X c.c.c.c.c.c.c.c.c.c.c.c.c.c.",
"c.c.c.c.c.c.c.c.c.c.c.c.c.c.c.c.c.c.c.c.c.I z.s.e 7 I I ;.a.l.d.L c.c.c.c.c.c.c.c.c.c.c.c.c.6 . : + c.c.c.c.c.c.c.c.c.c.c.c.c.c.",
"c.c.c.c.c.c.c.c.c.c.c.c.c.c.c.c.c.c.c.c.c.c.Q 4.E f L L 4.l.d.d.I c.c.c.c.c.c.c.c.c.c.c.c.c.c.< > + c.c.c.c.c.c.c.c.c.c.c.c.c.c.",
"c.c.c.c.c.c.c.c.c.c.c.c.c.c.c.c.c.c.c.c.c.L q.t.p.;.L I 4.l.l.d.L c.c.c.c.c.c.c.c.c.c.c.c.c.  > F X c.c.c.c.c.c.c.c.c.c.c.c.c.c.",
"c.c.c.c.c.c.c.c.c.c.c.c.c.c.c.c.c.c.c.c.c.I k.5.z.0.L ! e.l.l.t.K c.c.c.c.c.c.c.c.c.c.c.c.O ; D = X c.c.c.c.c.c.c.c.c.c.c.c.c.c.",
"c.c.c.c.c.c.c.c.c.c.c.c.c.c.c.c.c.c.c.c.c.L r.e.z.i.Y >.a.l.l.>.c.c.c.c.c.c.c.c.c.c.c.c.c.o - - , c.c.c.c.c.c.c.c.c.c.c.c.c.c.c.",
"c.c.c.c.c.c.c.c.c.c.c.c.c.c.c.c.c.c.c.c.c.f >.t.t.x.1.>.d.l.d.! c.c.c.c.c.c.c.c.c.c.c.c.c.O = % o c.c.c.c.c.c.c.c.c.c.c.c.c.c.c.",
"c.c.c.c.c.c.c.c.c.c.c.c.c.c.c.c.c.c.c.c.a ..6.6.a.j.:.>.a.l.t.a c.c.c.c.c.c.c.c.c.c.c.c.c.c.  c.c.c.c.c.c.c.c.c.c.c.c.c.c.c.c.c.",
"c.c.c.c.c.c.c.c.c.c.c.c.c.c.c.c.c.c.c.c.a I 4.4.t.E L E 6.t.! q c.c.c.c.c.c.c.c.c.c.c.c.c.c.c.c.c.c.c.c.c.c.c.c.c.c.c.c.c.c.c.c.",
"c.c.c.c.c.c.c.c.c.c.c.c.c.c.c.c.c.c.c.c.c.c.f K f L L d f ! L 6 c.c.c.c.c.c.c.c.c.c.c.c.c.c.c.c.c.c.c.c.c.c.c.c.c.c.c.c.c.c.c.c.",
"c.c.c.c.c.c.c.c.c.c.c.c.c.c.c.c.c.c.c.c.c.c.c.c.c.f L a e L L 6 c.c.c.c.c.c.c.c.c.c.c.c.c.c.c.c.c.c.c.c.c.c.c.c.c.c.c.c.c.c.c.c.",
"c.c.c.c.c.c.c.c.c.c.c.c.c.c.c.c.c.c.c.c.c.c.c.c.c.f L a e L I 6 c.c.c.c.c.c.c.c.c.c.c.c.c.c.c.c.c.c.c.c.c.c.c.c.c.c.c.c.c.c.c.c.",
"c.c.c.c.c.c.c.c.c.c.c.c.c.c.c.c.c.c.c.c.c.c.c.c.c.f L a t L L 6 c.c.c.c.c.c.c.c.c.c.c.c.c.c.c.c.c.c.c.c.c.c.c.c.c.c.c.c.c.c.c.c.",
"c.c.c.c.c.c.c.c.c.c.c.c.c.c.c.c.c.c.c.c.c.c.c.c.c.f L a w L I 6 c.c.c.c.c.c.c.c.c.c.c.c.c.c.c.c.c.c.c.c.c.c.c.c.c.c.c.c.c.c.c.c.",
"c.c.c.c.c.c.c.c.c.c.c.c.c.c.c.c.c.c.c.c.c.c.c.c.c.f L a e L I 7 c.c.c.c.c.c.c.c.c.c.c.c.c.c.c.c.c.c.c.c.c.c.c.c.c.c.c.c.c.c.c.c.",
"c.c.c.c.c.c.c.c.c.c.c.c.c.c.c.c.c.c.c.c.c.c.c.c.c.f L a w L L 7 c.c.c.c.c.c.c.c.c.c.c.c.c.c.c.c.c.c.c.c.c.c.c.c.c.c.c.c.c.c.c.c.",
"c.c.c.c.c.c.c.c.c.c.c.c.c.c.c.c.c.c.c.c.c.c.c.c.c.f L a e L L 7 c.c.c.c.c.c.c.c.c.c.c.c.c.c.c.c.c.c.c.c.c.c.c.c.c.c.c.c.c.c.c.c.",
"c.c.c.c.c.c.c.c.c.c.c.c.c.c.c.c.c.c.c.c.c.c.c.c.c.f L a w L L 7 c.c.c.c.c.c.c.c.c.c.c.c.c.c.c.c.c.c.c.c.c.c.c.c.c.c.c.c.c.c.c.c.",
"c.c.c.c.c.c.c.c.c.c.c.c.c.c.c.c.c.c.c.c.c.c.c.c.c.f L u e L L @ c.c.c.c.c.c.c.c.c.c.c.c.c.c.c.c.c.c.c.c.c.c.c.c.c.c.c.c.c.c.c.c.",
"c.c.c.c.c.c.c.c.c.c.c.c.c.c.c.c.l l P c.c.c.c.c.9 L L a w L I 7 c.c.c.c.l P l c.c.c.c.c.c.c.c.c.c.c.c.c.c.c.c.c.c.c.c.c.c.c.c.c.",
"c.c.c.c.c.c.c.c.c.c.c.c.c.c.c.E 6.p.p.5.R c.c.c.a L K a e L L q c.c.P X.y.p.u.<.Y c.c.c.c.c.c.c.c.c.c.c.c.c.c.c.c.c.c.c.c.c.c.c.",
"c.c.c.c.c.c.c.c.c.c.c.c.c.c.E >.t.t.0.j.h.:.a f I I L  .u P I L d P y.z.d.a.a.j.y.L c.c.c.c.c.c.c.c.c.c.c.c.c.c.c.c.c.c.c.c.c.c.",
"c.c.c.c.c.c.c.c.c.c.c.c.c.a ! 4.t.:.s.l.d.j.2.E <.e.:.;.K 4.8.E Q p.l.l.d.j.r.6.j.Q c.c.c.c.c.c.c.c.c.c.c.c.c.c.c.c.c.c.c.c.c.c.",
"c.c.c.c.c.c.c.c.c.c.c.c.c.c.I e.4.9.l.l.l.l.f.u.e.:.f a u I e.q.u.z.l.l.l.l.f.:.l.Q c.c.c.c.c.c.c.c.c.c.c.c.c.c.c.c.c.c.c.c.c.c.",
"c.c.c.c.c.c.c.c.c.c.c.c.c.c.L ;.E 8.j.l.t.6.4.>.y c.c.c.c.c.y E 4.4.e.l.l.d.q.I ;.L c.c.c.c.c.c.c.c.c.c.c.c.c.c.c.c.c.c.c.c.c.c.",
"c.c.c.c.c.c.c.c.c.c.c.c.c.c.c.c.c.L E E I a c.c.c.c.c.c.c.c.c.c.c.c.f E E E f c.c.c.c.c.c.c.c.c.c.c.c.c.c.c.c.c.c.c.c.c.c.c.c.c.",
"c.c.c.c.c.c.c.c.c.c.c.c.c.c.c.c.c.c.c.c.c.c.c.c.c.c.c.c.c.c.c.c.c.c.c.c.c.c.c.c.c.c.c.c.c.c.c.c.c.c.c.c.c.c.c.c.c.c.c.c.c.c.c.c.",
"c.c.c.c.c.c.c.c.c.c.c.c.c.c.c.c.c.c.c.c.c.c.c.c.c.c.c.c.c.c.c.c.c.c.c.c.c.c.c.c.c.c.c.c.c.c.c.c.c.c.c.c.c.c.c.c.c.c.c.c.c.c.c.c."
};
