/* XPM */
static char *result[] = {
/* columns rows colors chars-per-pixel */
"64 64 150 2 ",
"   c #133B25",
".  c #1C2B37",
"X  c #1D253B",
"o  c #1B3336",
"O  c #212937",
"+  c #2F2937",
"@  c #20223F",
"#  c #4E3828",
"$  c #45243D",
"%  c #0C4C17",
"&  c #095012",
"*  c #0D5719",
"=  c #006000",
"-  c #016F02",
";  c #007400",
":  c #007B00",
">  c #086A10",
",  c #0C6217",
"<  c #087410",
"1  c #115C22",
"2  c #4E5D03",
"3  c #67441F",
"4  c #1F1F40",
"5  c #242444",
"6  c #282847",
"7  c #2B2B4C",
"8  c #312E43",
"9  c #2F2F50",
"0  c #343454",
"q  c #3B3957",
"w  c #3B3B5B",
"e  c #3F3F60",
"r  c #482F49",
"t  c #444464",
"y  c #4A4663",
"u  c #4B4B6B",
"i  c #564D68",
"p  c #594F6A",
"a  c #57516D",
"s  c #545474",
"d  c #585877",
"f  c #5C5C7C",
"g  c #6C5B73",
"h  c #715E74",
"j  c #64647D",
"k  c #68687F",
"l  c #6E637D",
"z  c #7E6579",
"x  c #8A0A0F",
"c  c #8E5A1D",
"v  c #A26402",
"b  c #A76607",
"n  c #BC6E00",
"m  c #845D2F",
"M  c #986929",
"N  c #A0723B",
"B  c #CD7700",
"V  c #8B414F",
"C  c #954C5B",
"Z  c #846244",
"A  c #99764D",
"S  c #8F7156",
"D  c #AB7C43",
"F  c #A75F6F",
"G  c #8F7663",
"H  c #977D65",
"J  c #866B7D",
"K  c #8B7873",
"L  c #AB6172",
"P  c #008300",
"I  c #028B05",
"U  c #CB852C",
"Y  c #CDA27B",
"T  c #646483",
"R  c #696982",
"E  c #6A6A8A",
"W  c #726E8C",
"Q  c #786E88",
"!  c #717187",
"~  c #74748B",
"^  c #7C758E",
"/  c #78788D",
"(  c #737393",
")  c #797694",
"_  c #7B7B92",
"`  c #7B7B9A",
"'  c #7F7FA0",
"]  c #8F7689",
"[  c #8C7F88",
"{  c #83738B",
"}  c #927282",
"|  c #9D7885",
" . c #93798D",
".. c #807895",
"X. c #897B94",
"o. c #857E9B",
"O. c #967E91",
"+. c #9A8882",
"@. c #85859B",
"#. c #928895",
"$. c #988C92",
"%. c #9F8599",
"&. c #94849C",
"*. c #AE838E",
"=. c #B0988A",
"-. c #A98592",
";. c #AC8895",
":. c #B58791",
">. c #BD8E97",
",. c #BC919B",
"<. c #8383A3",
"1. c #8C8CA3",
"2. c #8C8CAB",
"3. c #9A8AA7",
"4. c #938DA4",
"5. c #9191A5",
"6. c #9494AB",
"7. c #9999AC",
"8. c #9393B3",
"9. c #9997B4",
"0. c #9D9CB3",
"q. c #9B9BBA",
"w. c #B59BAF",
"e. c #A09FBE",
"r. c #ADADB7",
"t. c #A5A5BB",
"y. c #ABABBC",
"u. c #ACA2B4",
"i. c #B2ADB7",
"p. c #B4A2BE",
"a. c #B5B5BF",
"s. c #C08E95",
"d. c #DD9E9F",
"f. c #A5A5C4",
"g. c #ACACC3",
"h. c #ACACCB",
"j. c #B4B4C3",
"k. c #B3B3CA",
"l. c #BDBDCD",
"z. c #B4B4D3",
"x. c #BCBCD3",
"c. c #BCBCDC",
"v. c #C1C1D4",
"b. c #C4C4DB",
"n. c #C8C8DD",
"m. c #D1D1D7",
"M. c #C1C1E0",
"N. c #CBCBE0",
"B. c #D1D1E0",
"V. c None",
/* pixels */
"V.V.V.V.V.V.V.V.V.V.V.V.V.V.V.V.V.V.V.V.V.V.V.V.V.V.V.V.V.V.V.V.V.V.V.V.V.V.V.V.V.V.V.V.V.V.V.V.V.V.V.V.V.V.V.V.V.V.V.V.V.V.V.V.",
"V.V.V.V.V.V.V.V.V.V.V.V.V.V.V.V.V.V.V.V.V.V.V.V.V.V.V.V.V.V.V.0 V.V.V.V.V.V.V.V.V.V.V.V.V.V.V.V.V.V.V.V.V.V.V.V.V.V.V.V.V.V.V.V.",
"V.V.V.V.V.V.V.V.V.V.V.V.V.V.V.V.V.V.V.V.V.V.V.V.V.V.V.V.V.V.4 u 0 V.V.V.V.V.V.V.V.V.V.V.V.V.V.V.V.V.V.V.V.V.V.V.V.V.V.V.V.V.V.V.",
"V.V.V.V.V.V.V.V.V.V.V.V.V.V.V.V.V.V.V.V.V.V.V.V.V.V.V.V.V.V.4 E t V.V.V.6 s t V.V.V.V.V.V.V.V.V.V.V.V.V.V.V.V.V.V.V.V.V.V.V.V.V.",
"V.V.V.V.V.V.V.V.V.V.V.V.V.V.V.V.V.V.V.V.V.V.V.V.V.V.V.V.V.V.0 ..g V.V.V.w j 6 V.V.V.V.V.V.V.V.V.V.V.V.V.V.V.V.V.V.V.V.V.V.V.V.V.",
"V.V.V.V.V.V.V.V.V.V.V.V.V.V.V.V.V.V.V.V.V.V.V.V.V.V.V.V.V.V.u &.} V.V.7 s  .0 V.V.V.V.V.V.V.V.V.V.V.V.V.V.V.V.V.V.V.V.V.V.V.V.V.",
"V.V.V.V.V.V.V.V.V.V.V.V.V.V.V.V.V.V.V.V.V.V.V.V.V.V.V.V.V.V.s X.} V.V.w W d.y V.V.V.V.V.V.V.V.V.V.V.V.V.V.V.V.V.V.V.V.V.V.V.V.V.",
"V.V.V.V.V.V.V.V.V.V.V.V.V.V.V.V.V.V.V.V.V.V.V.V.V.V.V.V.V.w ( { } V.V.t ) d.y V.V.V.V.V.V.V.V.V.V.V.V.V.V.V.V.V.V.V.V.V.V.V.V.V.",
"V.V.V.V.V.V.V.V.V.V.V.V.V.V.V.V.V.V.V.V.V.V.V.V.V.V.V.V.V.e W -.} V.9 d  .d.y V.V.V.V.V.V.V.V.V.V.V.V.V.V.V.V.V.V.V.V.V.V.V.V.V.",
"V.V.V.V.V.V.V.V.V.V.V.V.V.V.V.V.V.V.V.V.V.V.V.V.V.V.V.V.7 T E :.h V.w ) ,.g V.V.V.V.V.V.V.V.V.V.V.V.V.V.V.V.V.V.V.V.V.V.V.V.V.V.",
"V.V.V.V.V.V.V.V.V.V.V.V.V.V.V.V.V.V.V.V.V.V.V.V.V.V.V.V.q W ) *.p 7 d X.>.t V.V.V.V.V.V.V.V.V.V.V.V.V.V.V.V.V.V.V.V.V.V.V.V.V.V.",
"V.V.V.V.V.V.V.V.V.V.V.V.V.V.V.V.V.V.V.V.V.V.V.V.V.V.V.6 d ( -.} w t E ;.| V.V.V.V.V.V.V.V.V.V.V.V.V.V.V.V.V.V.V.V.V.V.V.V.V.V.V.",
"V.V.V.V.V.V.V.V.V.V.V.V.V.V.V.V.V.V.V.V.V.V.V.V.V.V.V.7 s ( -.i 7 s X.s.g V.V.V.V.V.V.V.V.V.V.V.V.V.V.V.V.V.V.V.V.V.V.V.V.V.V.V.",
"V.V.V.V.V.V.V.V.V.V.V.V.V.V.V.V.V.V.V.V.V.V.V.V.V.V.V.V.u -.z V.r W  .z V.V.V.V.V.V.V.V.V.V.V.V.V.V.V.V.V.V.V.V.V.V.V.V.V.V.V.V.",
"V.V.V.V.V.V.V.V.V.V.V.V.V.V.V.V.V.V.V.V.V.V.V.V.V.V.V.V.6 T i q T ] Q V.V.V.V.V.V.V.V.V.V.V.V.V.V.V.V.V.V.V.V.V.V.V.V.V.V.V.V.V.",
"V.V.V.V.V.V.V.V.V.V.V.V.V.V.V.V.V.V.V.V.V.V.V.V.V.V.V.V.w f d T u s V.V.V.V.V.V.V.V.V.V.V.V.V.V.V.V.V.V.V.V.V.V.V.V.V.V.V.V.V.V.",
"V.V.V.V.V.V.V.V.V.V.V.V.V.V.V.V.V.V.V.V.V.V.V.V.V.V.V.V.f E T T s q V.V.V.V.V.V.V.V.V.V.V.V.V.V.V.V.V.V.V.V.V.V.V.V.V.V.V.V.V.V.",
"V.V.V.V.V.V.V.V.V.V.V.V.V.V.V.V.V.V.V.V.V.V.V.V.V.V.V.t E ( E T f u V.V.V.V.V.V.V.V.V.V.V.V.V.V.V.V.V.V.V.V.V.V.V.V.V.V.V.V.V.V.",
"V.V.V.V.V.V.V.V.V.V.V.V.V.V.V.V.V.V.V.V.V.V.V.V.V.V.V.s E T ( W T E w V.V.V.V.V.V.V.V.V.V.V.V.V.V.V.V.V.V.V.V.V.V.V.V.V.V.V.V.V.",
"V.V.V.V.V.V.V.V.V.V.V.V.V.V.V.V.V.V.V.V.V.V.V.V.V.V.V.s T T ( ` T W T w V.V.V.V.V.V.V.V.V.V.V.V.V.V.V.V.V.V.V.V.V.V.V.V.V.V.V.V.",
"V.V.V.V.V.V.V.V.V.V.V.V.V.V.V.V.V.V.V.V.V.V.V.V.V.V.w s T T W ` ( E ` E @.1.V.V.V.V.V.V.V.V.V.V.V.V.V.V.V.V.V.V.V.V.V.V.V.V.V.V.",
"V.V.V.V.V.V.V.V.V.V.V.V.V.V.V.V.V.V.V.V.V.V.V.V.V./ r.i.j.j.j.( T ( W 5.v.b.7.V.V.V.V.V.V.V.V.V.V.V.V.V.V.V.V.V.V.V.V.V.V.V.V.V.",
"V.V.V.V.V.V.V.V.V.V.V.V.V.V.V.V.V.V.V.V.V.V.V.V.j k.M.M.b.M.z.m.6.o.w.e.8.2.q.u V.V.V.V.V.V.V.V.V.V.V.V.V.V.V.V.V.V.V.V.V.V.V.V.",
"V.V.V.V.V.V.V.V.V.V.V.V.V.V.V.V.V.V.V.V.V.V.V.V.d q.M.M.M.c.q.f.` <.q.q.h.h.` t ) _ ! t V.V.V.V.V.V.V.V.V.V.V.V.V.V.V.V.V.V.V.V.",
"V.V.V.V.V.V.V.V.V.V.V.V.V.V.V.V.V.V.V.V.V.V.V.V.V.E 2.h.M.c.W r $ ~ j.#.D U [ e.e.l.e.y.<.V.V.V.V.V.V.V.V.V.V.V.V.V.V.V.V.V.V.V.",
"V.V.V.V.V.V.V.V.V.V.V.V.V.V.V.V.V.V.V.V.V.V.V.V.V.V.s 8.z.z.e.V x C u.K c b G 9.$.7.y.k.f.T V.V.V.V.V.V.V.V.V.V.V.V.V.V.V.V.V.V.",
"V.V.V.V.V.V.V.V.V.V.V.V.V.V.V.V.V.V.V.V.V.V.V.V.V.V.w f ( 8.e.g.F L 3.E 7 3 / t.H S $.4.Y Z V.V.V.V.V.V.V.V.V.V.V.V.V.V.V.V.V.V.",
"V.V.V.V.V.V.V.V.V.V.V.V.V.V.V.V.V.V.V.V.V.V.V.V.V.V.V.V.w u ( 8.f.9.W V.V.V.g y.i.A M A B v + V.V.V.V.V.V.V.V.V.V.V.V.V.V.V.V.V.",
"V.V.V.V.V.V.V.V.V.V.V.V.V.V.V.V.V.V.V.V.V.V.V.V.V.V.V.V.q T s ' g.1.e V.V.V.V.' z.+.b n v 2 O V.V.V.V.V.V.V.V.V.V.V.V.V.V.V.V.V.",
"V.V.V.V.V.V.V.V.V.V.V.V.V.V.V.V.V.V.V.V.V.V.V.V.V.q t T W T E 2.c.n.0.s 7 V.V.V.2.z.=.m # % . V.V.V.V.V.V.V.V.V.V.V.V.V.V.V.V.V.",
"V.V.V.V.V.V.V.V.V.V.V.V.V.V.V.V.V.V.V.V.V.V.V.V.s T E T f w s 2.c.x.l.( d 5 V.u 9.q.` s 5 * . V.V.V.V.V.V.V.V.V.V.V.V.V.V.V.V.V.",
"V.V.V.V.V.V.V.V.V.V.V.V.V.V.V.V.V.V.V.V.V.V.V.u T f s w 6 0 T 2.c.t.j.( T E u E ` T V.V.V.& . V.V.V.V.V.V.V.V.V.V.V.V.V.V.V.V.V.",
"V.V.V.V.V.V.V.V.V.V.V.V.V.V.V.V.V.V.V.V.V.V.V.u T s 7 V.V.0 T 2.c.f.g.d d T T T u V.V.V.V.* . V.V.V.V.V.V.V.V.V.V.V.V.V.V.V.V.V.",
"V.V.V.V.V.V.V.V.V.V.V.V.V.V.V.V.V.V.V.V.V.V.V.0 s T s V.9 T T 8.c.z.9.q q d d u V.V.V.V.1 I * V.V.V.V.V.V.V.V.V.V.V.V.V.V.V.V.V.",
"V.V.V.V.V.V.V.V.V.V.V.V.V.V.V.V.V.V.V.V.V.V.V.V.0 s T u 0 ( ( f.c.z.2.V.V.9 9 V.V.V.V.o I P < o V.V.V.V.V.V.V.V.V.V.V.V.V.V.V.V.",
"V.V.V.V.V.V.V.V.V.V.V.V.V.V.V.V.V.V.V.V.V.V.V.V.V.0 s T e E ( z.c.h.f V.V.V.V.V.V.V.V.o : I > . V.V.V.V.V.V.V.V.V.V.V.V.V.V.V.V.",
"V.V.V.V.V.V.V.V.V.V.V.V.V.V.V.V.V.V.V.V.V.<.2.V.V.V.u <.( T ( c.M.h.f V.V.V.V.V.V.V.V.. - : % . V.V.V.V.V.V.V.V.V.V.V.V.V.V.V.V.",
"V.V.V.V.V.V.V.V.V.V.V.V.V.V.V.V.V.V.V.V.T <.8.( t _ N.q.' ( 8.c.M.h.j V.V.V.V.V.V.V.V.V.  = . V.V.V.V.V.V.V.V.V.V.V.V.V.V.V.V.V.",
"V.V.V.V.V.V.V.V.V.V.V.V.V.V.V.V.V.V.V.V.1.l.v.h.h.h.h.8.' E f.M.M.h.f V.V.V.V.V.V.V.V.V.V.X V.V.V.V.V.V.V.V.V.V.V.V.V.V.V.V.V.V.",
"V.V.V.V.V.V.V.V.V.V.V.V.V.V.V.V.V.V.V.E l.j.k.k.g.x.M.z.2.E f.M.M.h.T V.V.V.V.V.V.V.V.V.V.V.V.V.V.V.V.V.V.V.V.V.V.V.V.V.V.V.V.V.",
"V.V.V.V.V.V.V.V.V.V.V.V.V.V.V.V.V.V.V.V.2.k.v.v.N.c.z.q.( 2.z.M.M.8.d V.V.V.V.V.V.V.V.V.V.V.V.V.V.V.V.V.V.V.V.V.V.V.V.V.V.V.V.V.",
"V.V.V.V.V.V.V.V.V.V.V.V.V.V.V.V.V.V.V.V.V.T 0.q.q.<.) W T 8.M.M.M.( V.V.V.V.V.V.V.V.V.V.V.V.V.V.V.V.V.V.V.V.V.V.V.V.V.V.V.V.V.V.",
"V.V.V.V.V.V.V.V.V.V.V.V.V.V.V.V.V.V.V.V.V.V.V.V.V.9 w T T q.M.M.z.E V.V.V.V.V.V.V.V.V.V.V.V.V.V.V.V.V.V.V.V.V.V.V.V.V.V.V.V.V.V.",
"V.V.V.V.V.V.V.V.V.V.V.V.V.V.V.V.V.V.V.V.V.V.V.V.V.V.w f T q.M.c.8.V.V.V.V.V.V.V.V.V.V.V.V.V.V.V.V.V.V.V.V.V.V.V.V.V.V.V.V.V.V.V.",
"V.V.V.V.V.V.V.V.V.V.V.V.V.V.V.V.V.V.V.V.V.V.V.V.V.V.V.t T ' f.h.T V.V.V.V.V.V.V.V.V.V.V.V.V.V.V.V.V.V.V.V.V.V.V.V.V.V.V.V.V.V.V.",
"V.V.V.V.V.V.V.V.V.V.V.V.V.V.V.V.V.V.V.V.V.V.V.V.V.V.V.s T d T ( s V.V.V.V.V.V.V.V.V.V.V.V.V.V.V.V.V.V.V.V.V.V.V.V.V.V.V.V.V.V.V.",
"V.V.V.V.V.V.V.V.V.V.V.V.V.V.V.V.V.V.V.V.V.V.V.V.V.V.V.s E t u T s V.V.V.V.V.V.V.V.V.V.V.V.V.V.V.V.V.V.V.V.V.V.V.V.V.V.V.V.V.V.V.",
"V.V.V.V.V.V.V.V.V.V.V.V.V.V.V.V.V.V.V.V.V.V.V.V.V.V.V.s E t t E s V.V.V.V.V.V.V.V.V.V.V.V.V.V.V.V.V.V.V.V.V.V.V.V.V.V.V.V.V.V.V.",
"V.V.V.V.V.V.V.V.V.V.V.V.V.V.V.V.V.V.V.V.V.V.V.V.V.V.V.s E t u E s V.V.V.V.V.V.V.V.V.V.V.V.V.V.V.V.V.V.V.V.V.V.V.V.V.V.V.V.V.V.V.",
"V.V.V.V.V.V.V.V.V.V.V.V.V.V.V.V.V.V.V.V.V.V.V.V.V.V.V.s T u u T s V.V.V.V.V.V.V.V.V.V.V.V.V.V.V.V.V.V.V.V.V.V.V.V.V.V.V.V.V.V.V.",
"V.V.V.V.V.V.V.V.V.V.V.V.V.V.V.V.V.V.V.V.V.V.V.V.V.V.V.s E t u T s V.V.V.V.V.V.V.V.V.V.V.V.V.V.V.V.V.V.V.V.V.V.V.V.V.V.V.V.V.V.V.",
"V.V.V.V.V.V.V.V.V.V.V.V.V.V.V.V.V.V.V.V.V.V.V.V.V.V.V.s T t u E s V.V.V.V.V.V.V.V.V.V.V.V.V.V.V.V.V.V.V.V.V.V.V.V.V.V.V.V.V.V.V.",
"V.V.V.V.V.V.V.V.V.V.V.V.V.V.V.V.V.V.V.V.V.V.V.V.V.V.V.s E u t E s V.V.V.V.V.V.V.V.V.V.V.V.V.V.V.V.V.V.V.V.V.V.V.V.V.V.V.V.V.V.V.",
"V.V.V.V.V.V.V.V.V.V.V.V.V.V.V.V.V.V.V.V.V.V.V.V.V.V.V.s E t u E s V.V.V.V.V.V.V.V.V.V.V.V.V.V.V.V.V.V.V.V.V.V.V.V.V.V.V.V.V.V.V.",
"V.V.V.V.V.V.V.V.V.V.V.V.V.V.V.V.V.V.V.V.V.V.V.V.V.V.V.s E u t T s V.V.V.V.V.V.V.V.V.V.V.V.V.V.V.V.V.V.V.V.V.V.V.V.V.V.V.V.V.V.V.",
"V.V.V.V.V.V.V.V.V.V.V.V.V.V.V.V.V.V.j R k V.V.V.V.V.0 d T t u E s V.V.V.V.V.k R j V.V.V.V.V.V.V.V.V.V.V.V.V.V.V.V.V.V.V.V.V.V.V.",
"V.V.V.V.V.V.V.V.V.V.V.V.V.V.V.V.V.( g.v.l.5.~ V.V.0 s T T t u T d 0 V.V./ _ l.v.j.@.R V.V.V.V.V.V.V.V.V.V.V.V.V.V.V.V.V.V.V.V.V.",
"V.V.V.V.V.V.V.V.V.V.V.V.V.V.V.s ( <.h.f.h.n.v./ s T E E ~ ! u E E f d _ v.n.c.k.x.n.0.d V.V.V.V.V.V.V.V.V.V.V.V.V.V.V.V.V.V.V.V.",
"V.V.V.V.V.V.V.V.V.V.V.V.V.V.V.f <.8.f.7.x.M.M.v.<._ 5.f.2.) E q.0.) 1.v.M.M.M.v.0.f.l.T V.V.V.V.V.V.V.V.V.V.V.V.V.V.V.V.V.V.V.V.",
"V.V.V.V.V.V.V.V.V.V.V.V.V.V.V.V.E e.2.j.b.M.M.M.l.j.h.1.f s s ` f.j.l.b.M.M.M.M.j.8.z.T V.V.V.V.V.V.V.V.V.V.V.V.V.V.V.V.V.V.V.V.",
"V.V.V.V.V.V.V.V.V.V.V.V.V.V.V.V.T <.( k.M.M.h.8.8.` t V.V.V.V.V.t <.8.9.h.M.M.c.0.W ` d V.V.V.V.V.V.V.V.V.V.V.V.V.V.V.V.V.V.V.V.",
"V.V.V.V.V.V.V.V.V.V.V.V.V.V.V.V.V.V.u E ( ) T V.V.V.V.V.V.V.V.V.V.V.V.V.E ) ( W s V.V.V.V.V.V.V.V.V.V.V.V.V.V.V.V.V.V.V.V.V.V.V.",
"V.V.V.V.V.V.V.V.V.V.V.V.V.V.V.V.V.V.V.V.V.V.V.V.V.V.V.V.V.V.V.V.V.V.V.V.V.V.V.V.V.V.V.V.V.V.V.V.V.V.V.V.V.V.V.V.V.V.V.V.V.V.V.V.",
"V.V.V.V.V.V.V.V.V.V.V.V.V.V.V.V.V.V.V.V.V.V.V.V.V.V.V.V.V.V.V.V.V.V.V.V.V.V.V.V.V.V.V.V.V.V.V.V.V.V.V.V.V.V.V.V.V.V.V.V.V.V.V.V."
};
