/* XPM */
static char *result[] = {
/* columns rows colors chars-per-pixel */
"64 64 137 2 ",
"   c #133C26",
".  c #143828",
"X  c #1A2D34",
"o  c #193533",
"O  c #20203F",
"+  c #3F3030",
"@  c #593C2D",
"#  c #08570F",
"$  c #0E4C1C",
"%  c #095912",
"&  c #0E511D",
"*  c #11511C",
"=  c #016602",
"-  c #07630D",
";  c #017002",
":  c #007C00",
">  c #07790D",
",  c #086C10",
"<  c #087B11",
"1  c #144A2A",
"2  c #595D0C",
"3  c #6E4719",
"4  c #5C4220",
"5  c #1F1F40",
"6  c #202040",
"7  c #2D2D4D",
"8  c #343454",
"9  c #3C3C5C",
"0  c #3F3F60",
"q  c #474154",
"w  c #4B435F",
"e  c #424262",
"r  c #494967",
"t  c #4C4C6C",
"y  c #584D67",
"u  c #534F6D",
"i  c #52516F",
"p  c #545474",
"a  c #585877",
"s  c #575778",
"d  c #5C5C7B",
"f  c #6B5F64",
"g  c #66576E",
"h  c #625771",
"j  c #675870",
"k  c #6D5B72",
"l  c #64647D",
"z  c #7C6478",
"x  c #A36200",
"c  c #AF6805",
"v  c #A96C1A",
"b  c #B46F1A",
"n  c #885727",
"m  c #966A33",
"M  c #946C3F",
"N  c #A46F27",
"B  c #AD772E",
"V  c #C47200",
"C  c #84697B",
"Z  c #8D6E7F",
"A  c #008300",
"S  c #008801",
"D  c #048A08",
"F  c #96847F",
"G  c #9B8678",
"H  c #A2866F",
"J  c #636383",
"K  c #686686",
"L  c #6B6B83",
"P  c #6C6C8C",
"I  c #7B6B82",
"U  c #786D88",
"Y  c #72728C",
"T  c #757594",
"R  c #7A7492",
"E  c #7B7B95",
"W  c #7D7D9C",
"Q  c #8E7182",
"!  c #83738C",
"~  c #89778F",
"^  c #8E798E",
"/  c #957382",
"(  c #917A8F",
")  c #9E7D8D",
"_  c #917D93",
"`  c #AA7F8A",
"'  c #83839B",
"]  c #9B8195",
"[  c #9B919B",
"{  c #AD838E",
"}  c #A5908C",
"|  c #A78594",
" . c #AE8592",
".. c #AF8A97",
"X. c #A1879A",
"o. c #B08691",
"O. c #B48993",
"+. c #B78E99",
"@. c #BA8E98",
"#. c #A59A9E",
"$. c #B09C92",
"%. c #8383A2",
"&. c #8B8BA4",
"*. c #8C8CAC",
"=. c #9292A5",
"-. c #9292AB",
";. c #9999AD",
":. c #9595B5",
">. c #9A9AB3",
",. c #9C9CBA",
"<. c #A09AB5",
"1. c #A1A1AE",
"2. c #A2A2B6",
"3. c #A8A8B6",
"4. c #A4A3BC",
"5. c #ABABBD",
"6. c #B3A7B0",
"7. c #B1B1BC",
"8. c #C18E96",
"9. c #A4A4C4",
"0. c #ACACC3",
"q. c #ACACCC",
"w. c #B3B3C4",
"e. c #BABAC5",
"r. c #B3B3CD",
"t. c #BCBCCA",
"y. c #B4B4D3",
"u. c #BBBBD4",
"i. c #BDBDDC",
"p. c #C0C0CC",
"a. c #C2C2D4",
"s. c #C3C3DB",
"d. c #CECEDB",
"f. c #D1D1DA",
"g. c #C0C0E0",
"h. c #C9C9E0",
"j. c None",
/* pixels */
"j.j.j.j.j.j.j.j.j.j.j.j.j.j.j.j.j.j.j.j.j.j.j.j.j.j.j.j.j.j.j.j.j.j.j.j.j.j.j.j.j.j.j.j.j.j.j.j.j.j.j.j.j.j.j.j.j.j.j.j.j.j.j.j.",
"j.j.j.j.j.j.j.j.j.j.j.j.j.j.j.j.j.j.j.j.j.j.j.j.j.j.j.j.j.8 7 j.j.j.j.j.j.j.j.j.j.j.j.j.j.j.j.j.j.j.j.j.j.j.j.j.j.j.j.j.j.j.j.j.",
"j.j.j.j.j.j.j.j.j.j.j.j.j.j.j.j.j.j.j.j.j.j.j.j.j.j.j.j.j.e 9 j.j.j.j.j.j.j.j.j.j.j.j.j.j.j.j.j.j.j.j.j.j.j.j.j.j.j.j.j.j.j.j.j.",
"j.j.j.j.j.j.j.j.j.j.j.j.j.j.j.j.j.j.j.j.j.j.j.j.j.j.j.j.j.t a 5 j.j.j.e 7 j.j.j.j.j.j.j.j.j.j.j.j.j.j.j.j.j.j.j.j.j.j.j.j.j.j.j.",
"j.j.j.j.j.j.j.j.j.j.j.j.j.j.j.j.j.j.j.j.j.j.j.j.j.j.j.j.8 K ( 8 j.j.8 i 8 j.j.j.j.j.j.j.j.j.j.j.j.j.j.j.j.j.j.j.j.j.j.j.j.j.j.j.",
"j.j.j.j.j.j.j.j.j.j.j.j.j.j.j.j.j.j.j.j.j.j.j.j.j.j.j.j.8 R +.e j.j.e I r j.j.j.j.j.j.j.j.j.j.j.j.j.j.j.j.j.j.j.j.j.j.j.j.j.j.j.",
"j.j.j.j.j.j.j.j.j.j.j.j.j.j.j.j.j.j.j.j.j.j.j.j.j.j.j.j.0 R O.0 j.8 d | j j.j.j.j.j.j.j.j.j.j.j.j.j.j.j.j.j.j.j.j.j.j.j.j.j.j.j.",
"j.j.j.j.j.j.j.j.j.j.j.j.j.j.j.j.j.j.j.j.j.j.j.j.j.j.j.7 d R o.e j.7 J | j j.j.j.j.j.j.j.j.j.j.j.j.j.j.j.j.j.j.j.j.j.j.j.j.j.j.j.",
"j.j.j.j.j.j.j.j.j.j.j.j.j.j.j.j.j.j.j.j.j.j.j.j.j.j.j.8 J _ 8.e j.t ! O.j j.j.j.j.j.j.j.j.j.j.j.j.j.j.j.j.j.j.j.j.j.j.j.j.j.j.j.",
"j.j.j.j.j.j.j.j.j.j.j.j.j.j.j.j.j.j.j.j.j.j.j.j.j.j.5 i P ) C j.7 J X.Z j.j.j.j.j.j.j.j.j.j.j.j.j.j.j.j.j.j.j.j.j.j.j.j.j.j.j.j.",
"j.j.j.j.j.j.j.j.j.j.j.j.j.j.j.j.j.j.j.j.j.j.j.j.j.j.8 d R  .k j.e E O.z j.j.j.j.j.j.j.j.j.j.j.j.j.j.j.j.j.j.j.j.j.j.j.j.j.j.j.j.",
"j.j.j.j.j.j.j.j.j.j.j.j.j.j.j.j.j.j.j.j.j.j.j.j.j.6 r T ~ { y 8 J _ { g j.j.j.j.j.j.j.j.j.j.j.j.j.j.j.j.j.j.j.j.j.j.j.j.j.j.j.j.",
"j.j.j.j.j.j.j.j.j.j.j.j.j.j.j.j.j.j.j.j.j.j.j.j.j.6 t T ~ C j.0 Y +./ j.j.j.j.j.j.j.j.j.j.j.j.j.j.j.j.j.j.j.j.j.j.j.j.j.j.j.j.j.",
"j.j.j.j.j.j.j.j.j.j.j.j.j.j.j.j.j.j.j.j.j.j.j.j.j.j.9 U ` 9 7 K ~ Q j.j.j.j.j.j.j.j.j.j.j.j.j.j.j.j.j.j.j.j.j.j.j.j.j.j.j.j.j.j.",
"j.j.j.j.j.j.j.j.j.j.j.j.j.j.j.j.j.j.j.j.j.j.j.j.j.j.6 u h 8 p ! Q j.j.j.j.j.j.j.j.j.j.j.j.j.j.j.j.j.j.j.j.j.j.j.j.j.j.j.j.j.j.j.",
"j.j.j.j.j.j.j.j.j.j.j.j.j.j.j.j.j.j.j.j.j.j.j.j.j.j.8 s a J t t j.j.j.j.j.j.j.j.j.j.j.j.j.j.j.j.j.j.j.j.j.j.j.j.j.j.j.j.j.j.j.j.",
"j.j.j.j.j.j.j.j.j.j.j.j.j.j.j.j.j.j.j.j.j.j.j.j.j.j.d P P J J 8 j.j.j.j.j.j.j.j.j.j.j.j.j.j.j.j.j.j.j.j.j.j.j.j.j.j.j.j.j.j.j.j.",
"j.j.j.j.j.j.j.j.j.j.j.j.j.j.j.j.j.j.j.j.j.j.j.j.j.0 J T T T J s 9 j.j.j.j.j.j.j.j.j.j.j.j.j.j.j.j.j.j.j.j.j.j.j.j.j.j.j.j.j.j.j.",
"j.j.j.j.j.j.j.j.j.j.j.j.j.j.j.j.j.j.j.j.j.j.j.j.j.p P K ' r.T Y a j.j.j.j.j.j.j.j.j.j.j.j.j.j.j.j.j.j.j.j.j.j.j.j.j.j.j.j.j.j.j.",
"j.j.j.j.j.j.j.j.j.j.j.j.j.j.j.j.j.j.j.j.j.j.j.j.j.p K l ' d.&.E -.s l L j.j.j.j.j.j.j.j.j.j.j.j.j.j.j.j.j.j.j.j.j.j.j.j.j.j.j.j.",
"j.j.j.j.j.j.j.j.j.j.j.j.j.j.j.j.j.j.j.j.j.j.j.j.e p K K T w.%.K p >.5.a.=.j.j.j.j.j.j.j.j.j.j.j.j.j.j.j.j.j.j.j.j.j.j.j.j.j.j.j.",
"j.j.j.j.j.j.j.j.j.j.j.j.j.j.j.j.j.j.j.j.j.j.j.i 7.7.e.e.e.9.i K ] <.0.,.,.e j.j.j.j.j.j.j.j.j.j.j.j.j.j.j.j.j.j.j.j.j.j.j.j.j.j.",
"j.j.j.j.j.j.j.j.j.j.j.j.j.j.j.j.j.j.j.j.j.j.j.2.g.g.g.g.g.a.t.:.q.9.,.9.*.e j.j.j.j.j.j.j.j.j.j.j.j.j.j.j.j.j.j.j.j.j.j.j.j.j.j.",
"j.j.j.j.j.j.j.j.j.j.j.j.j.j.j.j.j.j.j.j.j.j.j.W g.g.g.i.q.,.:.:.4.:.9.*.j.j.j.j.j.j.j.j.j.j.j.j.j.j.j.j.j.j.j.j.j.j.j.j.j.j.j.j.",
"j.j.j.j.j.j.j.j.j.j.j.j.j.j.j.j.j.j.j.j.j.j.j.p %.9.u.i.y.9.y.q.w.*.%.j.j.j.j.j.j.j.j.j.j.j.j.j.j.j.j.j.j.j.j.j.j.j.j.j.j.j.j.j.",
"j.j.j.j.j.j.j.j.j.j.j.j.j.j.j.j.j.j.j.j.j.j.j.j.t J W *.,.9.q.q.W a j.j.j.j.j.j.j.@ b H y.:.9.w.' j.j.j.j.j.j.j.j.j.j.j.j.j.j.j.",
"j.j.j.j.j.j.j.j.j.j.j.j.j.j.j.j.j.j.j.j.j.j.j.j.j.j.0 0 r W ,.>.e j.j.j.j.j.j.j.j.n V v } F [ H f j.j.j.j.j.j.j.j.j.j.j.j.j.j.j.",
"j.j.j.j.j.j.j.j.j.j.j.j.j.j.j.j.j.j.j.j.j.j.j.j.j.j.j.9 p T r.5.r j.j.j.j.j.j.j.l $.B N $.G m x 4 j.j.j.j.j.j.j.j.j.j.j.j.j.j.j.",
"j.j.j.j.j.j.j.j.j.j.j.j.j.j.j.j.j.j.j.j.j.j.j.j.j.7 s J K T y.s.' a 9 j.j.j.j.j.P h.3.#.u.<.M x 2 X j.j.j.j.j.j.j.j.j.j.j.j.j.j.",
"j.j.j.j.j.j.j.j.j.j.j.j.j.j.j.j.j.j.j.j.j.j.j.e p T K d p T q.i.f.W d 9 j.j.j.p ~ q.g.y.P 0 3 @ * o j.j.j.j.j.j.j.j.j.j.j.j.j.j.",
"j.j.j.j.j.j.j.j.j.j.j.j.j.j.j.j.j.j.j.j.j.8 d J K J e 0 t W q.q.t.&.K d 8 8 a t ,.*.T P j.j.j.6 & o j.j.j.j.j.j.j.j.j.j.j.j.j.j.",
"j.j.j.j.j.j.j.j.j.j.j.j.j.j.j.j.j.j.j.j.j.8 J J r 7 j.7 s T y.q.t.T d J K P d t 8 j.j.j.j.j.j.X $   j.j.j.j.j.j.j.j.j.j.j.j.j.j.",
"j.j.j.j.j.j.j.j.j.j.j.j.j.j.j.j.j.j.j.j.j.7 p K 7 j.j.r J W q.y.y.p 9 a d r 0 7 j.j.j.j.j.j.j.1 < , o j.j.j.j.j.j.j.j.j.j.j.j.j.",
"j.j.j.j.j.j.j.j.j.j.j.j.j.j.j.j.j.j.j.j.j.j.0 J s j.5 J K *.y.i.9.p j.8 8 j.j.j.j.j.j.j.j.j.1 D S > o j.j.j.j.j.j.j.j.j.j.j.j.j.",
"j.j.j.j.j.j.j.j.j.j.j.j.j.j.j.j.j.j.j.j.j.j.7 p J 8 8 J P 9.g.g.W j.j.j.j.j.j.j.j.j.j.j.j.j.1 : A - o j.j.j.j.j.j.j.j.j.j.j.j.j.",
"j.j.j.j.j.j.j.j.j.j.j.j.j.j.j.j.j.j.j.j.j.j.j.9 P t J K K 9.g.g.T j.j.j.j.j.j.j.j.j.j.j.j.j.. ; : % X j.j.j.j.j.j.j.j.j.j.j.j.j.",
"j.j.j.j.j.j.j.j.j.j.j.j.j.j.j.j.j.j.j.j.j.j.j.e 9.%.P J W y.g.g.T j.j.j.j.j.j.j.j.j.j.j.j.j.X % = . j.j.j.j.j.j.j.j.j.j.j.j.j.j.",
"j.j.j.j.j.j.j.j.j.j.j.j.j.j.j.j.j.j.j.j.j.j.j.Y W 9.:.P *.g.g.g.T j.j.j.j.j.j.j.j.j.j.j.j.j.j.j.j.j.j.j.j.j.j.j.j.j.j.j.j.j.j.j.",
"j.j.j.j.j.j.j.j.j.j.j.j.j.j.j.j.j.j.j.j.l L :.y.9.g.:.P *.g.g.g.T j.j.j.j.j.j.j.j.j.j.j.j.j.j.j.j.j.j.j.j.j.j.j.j.j.j.j.j.j.j.j.",
"j.j.j.j.j.j.j.j.j.j.j.j.j.j.j.j.j.j.l ' 0.9.q.q.i.q.W W :.g.g.i.P j.j.j.j.j.j.j.j.j.j.j.j.j.j.j.j.j.j.j.j.j.j.j.j.j.j.j.j.j.j.j.",
"j.j.j.j.j.j.j.j.j.j.j.j.j.j.j.j.j.j.j.R 2.p.s.y.9.W J %.y.g.g.:.s j.j.j.j.j.j.j.j.j.j.j.j.j.j.j.j.j.j.j.j.j.j.j.j.j.j.j.j.j.j.j.",
"j.j.j.j.j.j.j.j.j.j.j.j.j.j.j.j.j.j.j.Y 1.3.,.W K J J W y.g.i.*.j.j.j.j.j.j.j.j.j.j.j.j.j.j.j.j.j.j.j.j.j.j.j.j.j.j.j.j.j.j.j.j.",
"j.j.j.j.j.j.j.j.j.j.j.j.j.j.j.j.j.j.j.j.j.j.j.j.8 d J W y.g.y.J j.j.j.j.j.j.j.j.j.j.j.j.j.j.j.j.j.j.j.j.j.j.j.j.j.j.j.j.j.j.j.j.",
"j.j.j.j.j.j.j.j.j.j.j.j.j.j.j.j.j.j.j.j.j.j.j.j.j.r J W 9.i.,.0 j.j.j.j.j.j.j.j.j.j.j.j.j.j.j.j.j.j.j.j.j.j.j.j.j.j.j.j.j.j.j.j.",
"j.j.j.j.j.j.j.j.j.j.j.j.j.j.j.j.j.j.j.j.j.j.j.j.j.t J J P %.P 6 j.j.j.j.j.j.j.j.j.j.j.j.j.j.j.j.j.j.j.j.j.j.j.j.j.j.j.j.j.j.j.j.",
"j.j.j.j.j.j.j.j.j.j.j.j.j.j.j.j.j.j.j.j.j.j.j.j.j.p P p 0 K P 6 j.j.j.j.j.j.j.j.j.j.j.j.j.j.j.j.j.j.j.j.j.j.j.j.j.j.j.j.j.j.j.j.",
"j.j.j.j.j.j.j.j.j.j.j.j.j.j.j.j.j.j.j.j.j.j.j.j.j.p K p 9 J P 6 j.j.j.j.j.j.j.j.j.j.j.j.j.j.j.j.j.j.j.j.j.j.j.j.j.j.j.j.j.j.j.j.",
"j.j.j.j.j.j.j.j.j.j.j.j.j.j.j.j.j.j.j.j.j.j.j.j.j.p P p 9 J Y 6 j.j.j.j.j.j.j.j.j.j.j.j.j.j.j.j.j.j.j.j.j.j.j.j.j.j.j.j.j.j.j.j.",
"j.j.j.j.j.j.j.j.j.j.j.j.j.j.j.j.j.j.j.j.j.j.j.j.j.p K s 9 J P 6 j.j.j.j.j.j.j.j.j.j.j.j.j.j.j.j.j.j.j.j.j.j.j.j.j.j.j.j.j.j.j.j.",
"j.j.j.j.j.j.j.j.j.j.j.j.j.j.j.j.j.j.j.j.j.j.j.j.j.s K s 9 J P 6 j.j.j.j.j.j.j.j.j.j.j.j.j.j.j.j.j.j.j.j.j.j.j.j.j.j.j.j.j.j.j.j.",
"j.j.j.j.j.j.j.j.j.j.j.j.j.j.j.j.j.j.j.j.j.j.j.j.j.p P s 9 J Y 6 j.j.j.j.j.j.j.j.j.j.j.j.j.j.j.j.j.j.j.j.j.j.j.j.j.j.j.j.j.j.j.j.",
"j.j.j.j.j.j.j.j.j.j.j.j.j.j.j.j.j.j.j.j.j.j.j.j.j.s K p 9 K P 6 j.j.j.j.j.j.j.j.j.j.j.j.j.j.j.j.j.j.j.j.j.j.j.j.j.j.j.j.j.j.j.j.",
"j.j.j.j.j.j.j.j.j.j.j.j.j.j.j.j.j.j.j.j.j.j.j.j.j.s K a 9 J P 6 j.j.j.j.j.j.j.j.j.j.j.j.j.j.j.j.j.j.j.j.j.j.j.j.j.j.j.j.j.j.j.j.",
"j.j.j.j.j.j.j.j.j.j.j.j.j.j.j.j.j.j.j.j.j.j.j.j.j.p K s 9 J P 5 j.j.j.j.j.j.j.j.j.j.j.j.j.j.j.j.j.j.j.j.j.j.j.j.j.j.j.j.j.j.j.j.",
"j.j.j.j.j.j.j.j.j.j.j.j.j.j.j.0 e 9 j.j.j.j.j.j.j.s K p 9 J P 5 j.j.j.j.j.j.j.j.j.j.j.j.j.j.j.j.j.j.j.j.j.j.j.j.j.j.j.j.j.j.j.j.",
"j.j.j.j.j.j.j.j.j.j.j.j.j.j.d -.7.e.5.Y j.j.j.8 t J J s 9 J P 8 j.j.j.j.l L L j.j.j.j.j.j.j.j.j.j.j.j.j.j.j.j.j.j.j.j.j.j.j.j.j.",
"j.j.j.j.j.j.j.j.j.j.j.j.j.J E ,.s.r.u.a.=.r r d J J l P 0 J J d 8 j.l =.e.a.a.;.E j.j.j.j.j.j.j.j.j.j.j.j.j.j.j.j.j.j.j.j.j.j.j.",
"j.j.j.j.j.j.j.j.j.j.j.j.j.P W y.,.>.u.g.s.5.T T >.*.%.&.a &.=.J d L 0.h.i.r.y.a.r.T j.j.j.j.j.j.j.j.j.j.j.j.j.j.j.j.j.j.j.j.j.j.",
"j.j.j.j.j.j.j.j.j.j.j.j.j.d :.:.%.a.g.g.g.h.t.4.,.J d s t :.w.T ' t.s.g.i.s.0.:.s.&.j.j.j.j.j.j.j.j.j.j.j.j.j.j.j.j.j.j.j.j.j.j.",
"j.j.j.j.j.j.j.j.j.j.j.j.j.p :.%.' d.g.i.u.y.u.%.J j.j.j.e J 4.9.t.s.g.g.g.s.a.&.u.%.j.j.j.j.j.j.j.j.j.j.j.j.j.j.j.j.j.j.j.j.j.j.",
"j.j.j.j.j.j.j.j.j.j.j.j.j.j.j.e a *.:.*.d e e j.j.j.j.j.j.j.j.J *.*.,.i.i.i.0.K T J j.j.j.j.j.j.j.j.j.j.j.j.j.j.j.j.j.j.j.j.j.j.",
"j.j.j.j.j.j.j.j.j.j.j.j.j.j.j.j.j.j.j.j.j.j.j.j.j.j.j.j.j.j.j.j.j.j.s K P P d j.j.j.j.j.j.j.j.j.j.j.j.j.j.j.j.j.j.j.j.j.j.j.j.j.",
"j.j.j.j.j.j.j.j.j.j.j.j.j.j.j.j.j.j.j.j.j.j.j.j.j.j.j.j.j.j.j.j.j.j.j.j.j.j.j.j.j.j.j.j.j.j.j.j.j.j.j.j.j.j.j.j.j.j.j.j.j.j.j.j.",
"j.j.j.j.j.j.j.j.j.j.j.j.j.j.j.j.j.j.j.j.j.j.j.j.j.j.j.j.j.j.j.j.j.j.j.j.j.j.j.j.j.j.j.j.j.j.j.j.j.j.j.j.j.j.j.j.j.j.j.j.j.j.j.j."
};
