/* XPM */
static char *result[] = {
/* columns rows colors chars-per-pixel */
"64 64 84 1 ",
"  c #222242",
". c #2D2D4C",
"X c #343454",
"o c #3C3C5C",
"O c #40405F",
"+ c #434363",
"@ c #4C4C6C",
"# c #534A64",
"$ c #504E6D",
"% c #51516E",
"& c #545474",
"* c #5B5673",
"= c #5D5D7C",
"- c #64566E",
"; c #745F75",
": c #63637D",
"> c #756176",
", c #75657E",
"< c #7F6679",
"1 c #856A7C",
"2 c #896C7D",
"3 c #636383",
"4 c #6A6A85",
"5 c #6C6C8B",
"6 c #736E8C",
"7 c #74748D",
"8 c #7E738E",
"9 c #737393",
"0 c #7D7794",
"q c #7A7A93",
"w c #7C7C9C",
"e c #836F85",
"r c #8D6F81",
"t c #80748F",
"y c #8A768C",
"u c #927282",
"i c #977C8F",
"p c #9C7A89",
"a c #8C7C94",
"s c #817D9A",
"d c #897E98",
"f c #A27D8B",
"g c #83839B",
"h c #9F8091",
"j c #96839A",
"k c #A8828F",
"l c #B0848F",
"z c #AA8693",
"x c #AC8A99",
"c c #B48A95",
"v c #BD8D94",
"b c #B18F9D",
"n c #8383A3",
"m c #8B8BA4",
"M c #8C8CAB",
"N c #9494A7",
"B c #9393AC",
"V c #9A9AAE",
"C c #9494B3",
"Z c #9D9DB3",
"A c #9C9CBB",
"S c #B297AA",
"D c #A19EBD",
"F c #A2A2B5",
"G c #A3A3BA",
"H c #A9A9BD",
"J c #DB9E9E",
"K c #A4A4C3",
"L c #ACACC4",
"P c #ABABCB",
"I c #B3B3C3",
"U c #BBBBC7",
"Y c #B7B7C9",
"T c #BCBCCA",
"R c #B4B4D4",
"E c #BDBDD4",
"W c #BBBBDB",
"Q c #C3C3D3",
"! c #CCCCD6",
"~ c #C0C0DB",
"^ c #CCCCDC",
"/ c #C1C1E0",
"( c #C9C9E0",
") c None",
/* pixels */
"))))))))))))))))))))))))))))))))))))))))))))))))))))))))))))))))",
"))))))))))))))))))))))))))))))))))))))))))))))))))))))))))))))))",
")))))))))))))))))))))))))))))))))o.)))))))))))))))))))))))))))))",
")))))))))))))))))))))))))))))))))@o)))).))))))))))))))))))))))))",
")))))))))))))))))))))))))))))))))3&))))+.)))))))))))))))))))))))",
"))))))))))))))))))))))))))))))))X6,))).&X)))))))))))))))))))))))",
"))))))))))))))))))))))))))))))))+df)))Xy#)))))))))))))))))))))))",
"))))))))))))))))))))))))))))))))*tf)) 3b-)))))))))))))))))))))))",
")))))))))))))))))))))))))))))))X58p)) 3h-)))))))))))))))))))))))",
")))))))))))))))))))))))))))))))+5zf).&dJ-)))))))))))))))))))))))",
")))))))))))))))))))))))))))))) =6k;)o5ju))))))))))))))))))))))))",
"))))))))))))))))))))))))))))))o5ak-.&sc1))))))))))))))))))))))))",
"))))))))))))))))))))))))))))))@9f2oO68v-))))))))))))))))))))))))",
"))))))))))))))))))))))))))))))@si-X&0Ju)))))))))))))))))))))))))",
"))))))))))))))))))))))))))))))Xar)X4i1))))))))))))))))))))))))))",
")))))))))))))))))))))))))))))) *@+=e;)))))))))))))))))))))))))))",
"))))))))))))))))))))))))))))))X*&=&*))))))))))))))))))))))))))))",
"))))))))))))))))))))))))))))))=533=X))))))))))))))))))))))))))))",
")))))))))))))))))))))))))))))+39g035+)))))))))))))))))))))))))))",
")))))))))))))))))))))))))))))@53VL5M3)))))))))))))))))))))))))))",
")))))))))))))))))))))))))))))@5:B!mmL :g))))))))))))))))))))))))",
"))))))))))))))))))))))))))))o+=35K55q.U^F)))))))))))))))))))))))",
")))))))))))))))))))))))))))qU!^^!H4qSMKMA=))))))))))))))))))))))",
")))))))))))))))))))))))))))mW///~IDCGAAPn)))))))))))))))))))))))",
")))))))))))))))))))))))))))5PW/WKADCICAn))))))))))))))))))))))))",
")))))))))))))))))))))))))))&9ARWRPRPL9n)))))))))))))))))))))))))",
"))))))))))))))))))))))))))))+&qMAPPK9+))))))))))))))))))))))))))",
")))))))))))))))))))))))))))))))o&wLgO)))))))))))))))))))))))))))",
"))))))))))))))))))))))))))))))).+nEZo ))))))))))))))))))))))))))",
")))))))))))))))))))))))))))))Xo95nR^G3 )))))))))))))))))))))))))",
")))))))))))))))))))))))))))))3533nRE!wO)))))))))))))))))))))))))",
")))))))))))))))))))))))))))+=3&@@nWKTw@)))))))))))))))))))))))))",
"))))))))))))))))))))))))))o&3&XX&nRPYw@)))))))))))))))))))))))))",
")))))))))))))))))))))))))O33&X =3nRRRw@)))))))))))))))))))))))))",
")))))))))))))))))))))))))+33o) 59AWWKq@)))))))))))))))))))))))))",
")))))))))))))))))))))))))o34&)+59P/WM3@)))))))))))))))))))))))))",
")))))))))))))))))))))))))X@34+335PWWM=.)))))))))))))))))))))))))",
"))))))))))))))))))))))))&4o@3+35MW/WM3 )))))))))))))))))))))))))",
"))))))))))))))))))))))))3M3++@55A//Ww.))))))))))))))))))))))))))",
"))))))))))))))))))))))))393&X=35A//R4)))))))))))))))))))))))))))",
")))))))))))))))))))))))))5w=o9=wP//K3)))))))))))))))))))))))))))",
"))))))))))))))))))))))))))3=o53CWW/n))))))))))))))))))))))))))))",
")))))))))))))))))))))))))))o.=3MW/W9))))))))))))))))))))))))))))",
")))))))))))))))))))))))))))).3=MW/D&))))))))))))))))))))))))))))",
")))))))))))))))))))))))))))))o3wKP9)))))))))))))))))))))))))))))",
")))))))))))))))))))))))))))))+3=3w3)))))))))))))))))))))))))))))",
")))))))))))))))))))))))))))))@5@+33)))))))))))))))))))))))))))))",
")))))))))))))))))))))))))))))@5@+33)))))))))))))))))))))))))))))",
")))))))))))))))))))))))))))))@5&+3=)))))))))))))))))))))))))))))",
")))))))))))))))))))))))))))))+5@+33)))))))))))))))))))))))))))))",
")))))))))))))))))))))))))))))@5@+33)))))))))))))))))))))))))))))",
")))))))))))))))))))))))))))))@5&+5=)))))))))))))))))))))))))))))",
")))))))))))))))))))))))))))))@5@+33)))))))))))))))))))))))))))))",
")))))))))))))))))))))))))))))@5@+3=)))))))))))))))))))))))))))))",
")))))))))))))))))))))))))))))+5&+53)))))))))))))))))))))))))))))",
"))))))))))))))))))))=::))))))&5@+3=))))):::)))))))))))))))))))))",
")))))))))))))))))))5FTTN6)))+33@+33X)))7ITIg3)))))))))))))))))))",
"))))))))))))))))))5nPPK(Qq@&543q@35=&@F^~RE^H=))))))))))))))))))",
"))))))))))))))))))wnPMT/~QN7qLMm3AZ5qT(//WGK~4))))))))))))))))))",
"))))))))))))))))))5AMH(//(QULA3&%9LIT(///~YM~4))))))))))))))))))",
"))))))))))))))))))=M9L//RAAC3)))))+wAAKW//H7n=))))))))))))))))))",
"))))))))))))))))))))@5wn5&))))))))))))3qww3)))))))))))))))))))))",
"))))))))))))))))))))))))))))))))))))))))))))))))))))))))))))))))",
"))))))))))))))))))))))))))))))))))))))))))))))))))))))))))))))))"
};
