/* XPM */
static char *elmer1694864644[] = {
/* columns rows colors chars-per-pixel */
"64 64 178 2 ",
"   c None",
".  c #361300",
"X  c #3A0D1C",
"o  c #1B3613",
"O  c #372F00",
"+  c #2F3D00",
"@  c #353600",
"#  c #2C1527",
"$  c #3F132C",
"%  c #381A39",
"&  c #21203A",
"*  c #282B34",
"=  c #420000",
"-  c #490000",
";  c #4A0805",
":  c #530200",
">  c #590000",
",  c #5E0900",
"<  c #560E00",
"1  c #5B180E",
"2  c #521009",
"3  c #450D1B",
"4  c #5C1910",
"5  c #670000",
"6  c #6E0000",
"7  c #630B00",
"8  c #750200",
"9  c #7C0500",
"0  c #750C02",
"q  c #7D0B00",
"w  c #601600",
"e  c #681009",
"r  c #741200",
"t  c #781200",
"y  c #6A1910",
"u  c #422000",
"i  c #512600",
"p  c #5F3600",
"a  c #6E2300",
"s  c #682619",
"d  c #632012",
"f  c #73311C",
"g  c #7A371F",
"h  c #4B3331",
"j  c #5E3730",
"k  c #463130",
"l  c #683B2F",
"z  c #763322",
"x  c #184100",
"c  c #204700",
"v  c #254C00",
"b  c #2A4F00",
"n  c #3E440E",
"m  c #2D5200",
"M  c #325600",
"N  c #365A00",
"B  c #3A5D00",
"V  c #374B13",
"C  c #3C6100",
"Z  c #4F4F00",
"A  c #584100",
"S  c #514B00",
"D  c #485B07",
"F  c #585600",
"G  c #525C09",
"H  c #4D511A",
"J  c #495918",
"K  c #484D15",
"L  c #65461B",
"P  c #6A4A1B",
"I  c #74521B",
"U  c #7E5C1B",
"Y  c #614A09",
"T  c #426200",
"R  c #4B6C00",
"E  c #516F00",
"W  c #4E7200",
"Q  c #537400",
"!  c #587600",
"~  c #5C7B00",
"^  c #5A6718",
"/  c #536110",
"(  c #6C6112",
")  c #575924",
"_  c #424B27",
"`  c #6E4F23",
"'  c #7B4A24",
"]  c #734A28",
"[  c #6A6121",
"{  c #786C30",
"}  c #292448",
"|  c #292853",
" . c #282750",
".. c #3C2558",
"X. c #31306B",
"o. c #3F3E6E",
"O. c #652B49",
"+. c #484674",
"@. c #65546D",
"#. c #840000",
"$. c #8A0600",
"%. c #8F0B00",
"&. c #800B00",
"*. c #920E00",
"=. c #831500",
"-. c #8E1900",
";. c #961200",
":. c #991500",
">. c #9B1B00",
",. c #A01C00",
"<. c #87311B",
"1. c #A42000",
"2. c #820731",
"3. c #89671B",
"4. c #8C4929",
"5. c #854227",
"6. c #8F4B31",
"7. c #995534",
"8. c #915233",
"9. c #A55F3F",
"0. c #93642F",
"q. c #816131",
"w. c #95673D",
"e. c #A7633F",
"r. c #810049",
"t. c #8C216E",
"y. c #844F42",
"u. c #A55D45",
"i. c #8F6C40",
"p. c #996C41",
"a. c #A46344",
"s. c #AC6645",
"d. c #AF6946",
"f. c #AB674A",
"g. c #B46D4E",
"h. c #B6714C",
"j. c #B36B50",
"k. c #AF7F5B",
"l. c #AC7A53",
"z. c #B57450",
"x. c #BD7455",
"c. c #B7765B",
"v. c #C57C5B",
"b. c #C07955",
"n. c #C67F62",
"m. c #638200",
"M. c #6D8B00",
"N. c #749200",
"B. c #799700",
"V. c #7D9B00",
"C. c #809E00",
"Z. c #84A200",
"A. c #CC8361",
"S. c #C8846B",
"D. c #CE896F",
"F. c #D28767",
"G. c #D68A6B",
"H. c #D88D6F",
"J. c #D88E72",
"K. c #DE967C",
"L. c #DB9276",
"P. c #393884",
"I. c #63618C",
"U. c #757393",
"Y. c #6B69A5",
"T. c #B21693",
"R. c #BB0793",
"E. c #87859B",
"W. c #B59C98",
"Q. c #BDA49C",
"!. c #9A97A2",
"~. c #8F8DB3",
"^. c #A29FBB",
"/. c #E19A82",
"(. c #E49F88",
"). c #E6A28C",
"_. c #C6B1AA",
"`. c #D6D2D6",
/* pixels */
"                                                                                                                                ",
"                                                                                                                                ",
"                                                                                                                                ",
"                                            x         x x x x                                                                   ",
"                                          t.h   x x C R R R R C x                                                               ",
"                                        x T.r.= #.#.#.A T m.C.B.m.M                                                             ",
"                                    h O.O.3 0 ,.1.1.1.:.A T ~ M.C.M.x                                                           ",
"                                    h T.R.2.-.1.1.1.1.1.#.T R ! B.N.M                                                           ",
"                                    x x . =.1.1.1.1.1.1.%.A T E N.C.M.M                                                         ",
"                                        r >.1.1.1.1.1.1.1.#.T T ~ M.M.m.m                                                       ",
"                                      , >.1.1.1.1.1.1.1.1.:.p T R R R M c x                                                     ",
"                                      > #.:.1.1.1.1.1.1.1.1.a T D v x m.m.m.M x x x x x                                         ",
"                                    @ r #.#.:.1.:.>.,.1.:.:.w i m Q ! R N C m.M.m.m.M.N.Q m                                     ",
"                                    v S q #.%.=.9 ;.,.,.8 w M T m.m.! C W N.Q J n v M Q M.N                                     ",
"                                    v R p q 8 = q ,.:.q s H R ! M.M.B.m.~ D K p.9.G N v T M                                     ",
"                                    M ! D i - =.%.&.> z n.n.{ [ C C M L { w.9.b.G.P v v                                         ",
"                                    v C R + < %.8 y 6.z.G.G.A.z.q.q.q.4.s.F.v.s.G.'                                             ",
"                                        x x M #.s b.G.G.G.G.G.G.G.G.G.4.Q.9./.L.G.4.                                            ",
"                                            m 1 v.G.v.f.f.f.v.G.G.G.G.4.`._.v.K.x.                                              ",
"                                              4.G.G.e.S.S./.x.G.H.G.v.7._.W.f.F.4.                                              ",
"                                              4.G.G.u.x.x.9.L.H.K./.A.A.c.y.1 j.x.a.S.c.                                        ",
"                                              K ) ) ' x.b.4.l.) k.(./.K.J.g.u.u.e.n.K.S.                                        ",
"                                            o m.m.m.D H H n ^ m.^ k.).).(.K.h.g.x.v.H.v.                                        ",
"                                              x x x m.Z.Z.Z.Z.Z.Z.C G.G.G.x.x.u.G.G.x.4.                                        ",
"                                          m B M.M.m.B m R R ~ ~ / p.G.G.s.8.h.F.4.4.                                            ",
"                                      b B ~ V.Z.Z.V.M.! v R Q E [ i.G.G.e.9.9.g.4.                                              ",
"                                    m ~ C.N.M.M.N.Z.Z.V.! M ! ! M.M G.G.F.h.v.v.x.                                              ",
"                                    M M.N.M.m.R M.M.M.M.m.T ~ M.! { G.G.F.v.s.9.e.                                              ",
"                                  x M.Z.M.m.m.x m.m.R ! m.Z.M.Z.C q.G.G.n.e.                                                    ",
"                                  x M.Z.M.m.m.x T T v M m.Z.M.Z.C L 4.4.4.4.                                                    ",
"                                  M N.Z.M.m.R x x v D ! Z.Z.Z.Z.C < #.%.&.7                                                     ",
"                                x m.Z.B.m.m.R x v R ! M.Z.B.V.Z.T w %.=.=.t                                                     ",
"                                x M C N M M v x C m.B.V.M.m.M.Z.C a 7 F Y g 4.                                                  ",
"                                L q.q.q.` L P x R m.N.M.E R M.Z.M.Z F m.0.v.S.a.                                    & &         ",
"                              4.S.G.G.G./.).).4.T T T D T m.Z.Z.Z.! m.4.x.9.G./.4.                                & P.I.&       ",
"                = = = = = = = f S.G.G.G.G.9.x.4.T V & & & & & & & & & & k a.G.G.4.& & & & & & & & & & & & & & & & & & & &       ",
"              : 9 6 6 6 6 6 0 7.D.G.G.G.G.g.f = X o.Y.~.^.!.I.I.o.X.X.X.I.@.l l X.X.X.X.X.X.X.I.I.I.I.E.!.!.!.U.I.I.!.I.+.      ",
"              : 5 = = = = = 4 S.L.G.G.F.F.G.u.= 3 ........# # # # # # # # # } | | | | | | | | | | | | | | | | | | | | |  .      ",
"              = = = = = = = 1 h.F.G.A.x.b.G.v.f : 6 6 6 6 6 6 8 6 6 8 6 6 > 3 $ $ % | | | | | | | | | | | | | | | | | | |       ",
"                = = = = = = ; 5.h.G.d.x.g.A.G.4.- > > : > > > > > > <.<.e <.2 d f z j                                           ",
"              > 6 = = = = = = = f h.x.9.9.e.A.G.l & o M T T T T T I ).).j.).f.n.).x.6.                                          ",
"              = = = = = = = =     4.' L U 3.] l * J Q B M M M M M ( x.x.7.x.q.p.b.                                              ",
"              = = = = = = =           x W m.J _ J m.m.~ ~ m.m.~ M.m.I I U I n L 4.                                              ",
"              = = = = =                   x R m.M.M.M.M.m.m.m.M.m.N T ! M.! v                                                   ",
"                                          x m M T C C m.B.B.B.m.N B ! Z.Z.C.M.Q x                                               ",
"                                          m B T M N M B C C C B B Q B.Z.Z.Z.Z.V.R                                               ",
"                                        o M ! m.m.~ R T T T T T T ! ~ m.M.Z.Z.Z.Z.R x                                           ",
"                          : 7 7 <     m x R M.Z.B.M.m.m.! N M T ~ ~ E R R E ~ N.B.R x                                           ",
"                        : t :.:.0 7 O R M R B.Z.Z.B.m.! M v T B R B v v v M ~ m.m.T x                                           ",
"                        7 :.#.#.$.%.C B.T Q B.Z.V.M.! M x v M       v T ! ~ m.Q M v                                             ",
"                        7 :.#.#.#.#.N M.~ M.Z.Z.M.! M x               u M M N m w .                                             ",
"                      = =.$.#.#.#.#.M ~ N.V.Z.M.! T v                 = a w w < #.=                                             ",
"                      = :.6 = = 8 #.v R m.m.m.m.N x                   = :.#.#.#.#.6 = = = = =                                   ",
"                      = %.5 5 #.: = x v T R B x                       = :.#.#.#.#.: 6 6 6 6 6 :                                 ",
"                      = 6 : 6 6 : =     x x x                         = :.#.#.#.#.7 7 7 7 7 7 6 =                               ",
"                      = &.=.=.=.=.=.=                                 = :.#.#.#.#.%.%.%.%.%.%.:                                 ",
"                      = $.%.%.%.%.%.=                                   7 > : > > > > > > > >                                   ",
"                        > > > > > >                                                                                             ",
"                                                                                                                                ",
"                                                                                                                                ",
"                                                                                                                                ",
"                                                                                                                                ",
"                                                                                                                                ",
"                                                                                                                                "
};
