/* XPM */
static char *New_Project__1_1694940264[] = {
/* columns rows colors chars-per-pixel */
"64 64 144 2 ",
"   c None",
".  c #060502",
"X  c #090604",
"o  c #0D0905",
"O  c #0E0C08",
"+  c #140D07",
"@  c #130E09",
"#  c #180F08",
"$  c #15120C",
"%  c #1B140B",
"&  c #25150B",
"*  c #2A160B",
"=  c #25190C",
"-  c #2C1B0D",
";  c #331D0D",
":  c #391F0D",
">  c #231B11",
",  c #2A1E10",
"<  c #2D220E",
"1  c #35210E",
"2  c #3B220E",
"3  c #2E2112",
"4  c #342312",
"5  c #3B2612",
"6  c #3E2914",
"7  c #43250E",
"8  c #48270E",
"9  c #45290F",
"0  c #4B2A0F",
"q  c #502B0F",
"w  c #463D0F",
"e  c #432610",
"r  c #442C13",
"t  c #4B2C12",
"y  c #472F18",
"u  c #482F18",
"i  c #512E12",
"p  c #423113",
"a  c #4C3315",
"s  c #473810",
"d  c #4E3B13",
"f  c #463219",
"g  c #4C3319",
"h  c #553315",
"j  c #5A3616",
"k  c #533B15",
"l  c #5C3A16",
"z  c #523519",
"x  c #5A3719",
"c  c #543A1A",
"v  c #5B3C1A",
"b  c #623C17",
"n  c #633D19",
"m  c #693F1A",
"M  c #484A12",
"N  c #554414",
"B  c #5A4415",
"V  c #564A14",
"C  c #5C4C15",
"Z  c #5D431A",
"A  c #5F4B19",
"S  c #5B5314",
"D  c #5E5A14",
"F  c #624316",
"G  c #694217",
"H  c #634A16",
"J  c #684E15",
"K  c #64431C",
"L  c #6A441B",
"P  c #644C1A",
"I  c #6C4C1C",
"U  c #71461D",
"Y  c #734B1E",
"T  c #794D1F",
"R  c #625315",
"E  c #6A5315",
"W  c #645A15",
"Q  c #6C5916",
"!  c #665419",
"~  c #6C531D",
"^  c #6E5B1C",
"/  c #725E16",
"(  c #74531D",
")  c #79541E",
"_  c #745B1B",
"`  c #7A5C1D",
"'  c #676414",
"]  c #6B6414",
"[  c #656A11",
"{  c #6B6B14",
"}  c #726317",
"|  c #786717",
" . c #7B6F17",
".. c #76641A",
"X. c #7C641D",
"o. c #766B19",
"O. c #7D6A1D",
"+. c #737117",
"@. c #7D701C",
"#. c #7E7918",
"$. c #594A21",
"%. c #624321",
"&. c #6B4620",
"*. c #654C23",
"=. c #6C4B21",
"-. c #744C21",
";. c #794E21",
":. c #6D5321",
">. c #6E5921",
",. c #735322",
"<. c #7C5323",
"1. c #755B21",
"2. c #7C5B22",
"3. c #755528",
"4. c #7A5528",
"5. c #7C592A",
"6. c #776521",
"7. c #7D6221",
"8. c #776A21",
"9. c #7D6921",
"0. c #7A7324",
"q. c #80661F",
"w. c #816C1F",
"e. c #82721E",
"r. c #837C1B",
"t. c #815625",
"y. c #835B25",
"u. c #895C27",
"i. c #855A28",
"p. c #8A5D29",
"a. c #836323",
"s. c #886226",
"d. c #826A21",
"f. c #866328",
"g. c #8A6129",
"h. c #856A2F",
"j. c #847423",
"k. c #887321",
"l. c #896E30",
"z. c #957E3C",
"x. c #85831B",
"c. c #818A1A",
"v. c #8A891D",
"b. c #98833C",
/* pixels */
"                                                                                                                                ",
"                                                                                                                                ",
"                                                                                                                                ",
"                                                                                                                                ",
"                                                                                                                                ",
"                                                                                                                                ",
"                                                                                                                                ",
"                                                                                                                                ",
"                                                                        } |                                                     ",
"                                                                      X.} /   R C   {                                           ",
"                                                          w.X.X.X.  O..._ ~ J H C V D W                                         ",
"                                            Q ..X.k.w.X.X.X.d.d.q...X.` ` H F I G l N W ]                                       ",
"                                    v.x.    / } ` w.w.X.X.X.a.7.X.2.X.` ) G l K G v B W '                                       ",
"                                    x.r.r.+.R H ` a.2.2.,.2.2.) 2.t.2.<.Y G l j b k N R W [                                     ",
"                                r.@.r.r.w.O.( H I ( I I ~ 2.<.2.2.t.t.t.<.-.L l l F B R W                                       ",
"                                e.w.d.w.X.a.y.) l k L Y I 1.=.3.;.U <.<.t.t.y.t.t.J F H H [                                     ",
"                          c.#. .o.k.d.y.y.t.f.4.&.e z %.A -.*.&.&.L U ;.;.t.t.p.u.Y C C P } O.                                  ",
"                          x.r.r.X.X.s.s.s.i.<.<.4.g y z g y c Z %.x n -.;.t.t.i.u.y.I L ` O.                                    ",
"                          x.x.x.w.s.a.s.i.<.4.<.;.%.6 r 6 4 y v %.x x &.&.t.t.t.t.u.E ( 2.O.                                    ",
"                          r.    ` q.s.a.y.3.3.-.*.r 6 r 4 4 5 g h g u x %.&.-.-.<.u.,.2.7.d.w.                                  ",
"                        v. .} w.2.y.a.7.2.4.=.*.v 6 4 4 4 4 6 g g g u u x %.&.&.<.4.<.<.Y ` } ]                                 ",
"                          Q Q / ` ` 1.( I I $.v g f 6 6 u r 4 r g g y r u x %.n L -.,.&.K z A I ^                               ",
"                          Q R E _ I H ! K A c u y f 6 f y y 4 4 6 u r e u u x %.n &.L n l Z 3.i.y.                              ",
"                      } E C C B G H v N k g y r 6 y 6 6 4 3 4 > , 5 e e t e z x v &.n n n -.<.2.7.` _ _                         ",
"                        C P I H B N N k 6 < p s 4 3 , > > > = = & & : e t t i x x h j m L v K 2.d.d.d...                        ",
"                    C N I ` y.<.:.$.p e r 6 g 6 3 % $ % $ % % % # # & 2 t e i x i 5 x n n L -.h.z.d.d.X.                        ",
"                    V N L ( 2.2.:.Z a e y d 6 5 > $ $ $ $ @ $ @ # + + ; 7 : e t 2 t v v x G -.l.b.k.r.                          ",
"                    B ( H 4.2.2.3.*.K Z N g 6 3 $ $ O $ O o o O O O + & : 8 2 2 8 r v h l I ) 7.h.j.j.O.                        ",
"                  w ( a.<.,.5.5.:.*.&.%.f f 4 % $ O O O . . . . X X + * 2 q 8 2 7 t h l v L ( ` X.d.e.                          ",
"                M V X.y.y.y.t.4.=.=.K c f r , $ O X X X . . . . X X + * * 7 j b 9 t h l l L ( ` ` w.9.X.O.                      ",
"                    7.2.2.y.s.t.4.=.K v g 6 , O X . . X . . . . X X + * * 2 b b t 0 j x F L I Y ` _ X.9.e.                      ",
"                    d.a.y.u.u.2.<.&.K c g f - $ O . . . . . . . X X # * : q j b t t b b b G L J ( ` 2.d.d.                      ",
"                      a.a.a.g.p.<.L K v f 6 3 $ o o . . . . . . X X + * : e b m t t j x j j n Y ) s.f.a.d.O.                    ",
"                      d.f.s.p.t.<.-.L K k p 1 % X X . . . . . . X X O & * * 2 8 7 7 8 i j l G ;.t.t.u.X.9.                      ",
"                      2.t.p.t.u.<.<.-.K v z 5 = O X . . . . . . . X + * * : e h j i 7 i x b m U <.t.y.2.f.                      ",
"                      <.<.p.p.u.i.<.Y K b u 1 = $ o X o . . . . X X + * : 8 i i b x 8 h b n m -.T 2.2.y.a...                    ",
"                    ~ ,.t.i.p.p.t.-.n i r h z r & % + $ $ + o X X X # ; : e i 8 t i j j b n &.T U t.u.d.d.7.                    ",
"                    P ,.2.y.i.i.y.<.n n L L v c a - % % % & = % # & * : : : 8 i 0 0 j n m m T Y G I I 6.6.                      ",
"                    B H I 4.f.g.t.;.;.;.U L K n l 6 = = - 1 1 ; * - : : : : : 5 : : 0 n n T Y m U ( 6.7.                        ",
"                  N N N N A ( ,.<.t.t.<.;.Y I L l g 2 1 - - 1 1 : 5 : ; ; 8 2 : ; ; 0 j m T Y L Y a.7.o.                        ",
"                    V Z c V ! E ( t.t.;.t.U Y U L K c g 5 = ; 2 2 ; ; - 2 2 2 0 2 2 i i 9 G Y 2.7.5.                            ",
"                      C ! S     _ y.y.t.;.t.;.Y L &.v g a ; - 2 2 ; - 5 7 2 r t h 0 h l h l ( 2.2.1...                          ",
"                              ! E Q 2.t.t.t.;.;.-.I F v g 6 - 1 1 ; : 2 2 r r a b b h m G I ( 1.1.8.0.                          ",
"                              W R C Y t.t.t.t.t.-.-.I n g r 1 1 ; - e 6 8 r u j b G h F F I H ! 1.                              ",
"                              ! C N ~ ,.t.t.2.;.<.;.L v z k 6 - = 1 6 6 e a h F G I k E C C V N !                               ",
"                              W S V H ~ <.4.t.t.;.<.I K v k 9 2 2 r e u a d v H I Q d C C S C C R                               ",
"                                R S A *.=.1.,.<.-.-.L I K v h 2 r k a a k g Z H C H N V B S                                     ",
"                                C W V A ~ I I I -.~ -.I K m h r a k k k N Z H C N V V                                           ",
"                                  ' V V R A P I :.=.,.-.K c v l k a d N N H C V C S                                             ",
"                                  W S V S *.~ ~ *.I :.:.=.v B Z c r s N C P V     W                                             ",
"                                            ~ :.:.:.:.,.:.,.~ ~ ~ Z N C ! R W     S                                             ",
"                                              :.,.:.,.1.,.:.1.:.:.~ H C S S ^                                                   ",
"                                                  >.  1.1.:.>.! ^     S V C                                                     ",
"                                                        1.                                                                      ",
"                                                                                                                                ",
"                                                                                                                                ",
"                                                                                                                                ",
"                                                                                                                                ",
"                                                                                                                                ",
"                                                                                                                                ",
"                                                                                                                                ",
"                                                                                                                                ",
"                                                                                                                                ",
"                                                                                                                                "
};
