/* XPM */
static char *Rock1694436601[] = {
/* columns rows colors chars-per-pixel */
"64 64 230 2 ",
"   c None",
".  c #743D15",
"X  c #156617",
"o  c #257622",
"O  c #5E7B32",
"+  c #2E4546",
"@  c #334C48",
"#  c #38524A",
"$  c #354759",
"%  c #3D5552",
"&  c #3B555C",
"*  c #39704B",
"=  c #3E5962",
"-  c #34506D",
";  c #425A56",
":  c #42545D",
">  c #455C5B",
",  c #495E5C",
"<  c #405255",
"1  c #6F5B4B",
"2  c #4A625E",
"3  c #446956",
"4  c #55685A",
"5  c #4B7559",
"6  c #567B5A",
"7  c #45774B",
"8  c #746943",
"9  c #4C5D62",
"0  c #4A5D66",
"q  c #505F6A",
"w  c #4D6463",
"e  c #4D666A",
"r  c #526664",
"t  c #536965",
"y  c #556C6A",
"u  c #596E6A",
"i  c #51676D",
"p  c #5A726E",
"a  c #577469",
"s  c #4E6D72",
"d  c #536D73",
"f  c #5A6C73",
"g  c #586A77",
"h  c #577174",
"j  c #5C7473",
"k  c #5E7A75",
"l  c #5E7A7A",
"z  c #58747A",
"x  c #627C69",
"c  c #646B78",
"v  c #617673",
"b  c #627A76",
"n  c #61737C",
"m  c #647C7B",
"M  c #697E7C",
"N  c #6A7D75",
"B  c #717D7D",
"V  c #9B3715",
"C  c #9B270B",
"Z  c #AC2C0C",
"A  c #915028",
"S  c #9C753E",
"D  c #CA531A",
"F  c #D07B26",
"G  c #E7742B",
"H  c #B35449",
"J  c #826E58",
"K  c #1E8415",
"L  c #398C37",
"P  c #358E30",
"I  c #4EA33E",
"U  c #378842",
"Y  c #48884B",
"T  c #49994A",
"R  c #548857",
"E  c #599558",
"W  c #4A964F",
"Q  c #6C904E",
"!  c #4CA14D",
"~  c #57A348",
"^  c #5AA854",
"/  c #5CB24A",
"(  c #69A755",
")  c #73AB5C",
"_  c #69B655",
"`  c #77BA58",
"'  c #6EB04D",
"]  c #578664",
"[  c #5F9B60",
"{  c #62826C",
"}  c #688A69",
"|  c #6B9665",
" . c #719768",
".. c #65807E",
"X. c #6A817E",
"o. c #688576",
"O. c #74827E",
"+. c #759474",
"@. c #6D9271",
"#. c #69A769",
"$. c #78A768",
"%. c #77BC69",
"&. c #77AA78",
"*. c #6DB277",
"=. c #7FC65C",
"-. c #6EC367",
";. c #EDB537",
":. c #8E954F",
">. c #868868",
",. c #86B966",
"<. c #87A777",
"1. c #8FB47F",
"2. c #CD8843",
"3. c #EDB945",
"4. c #FAA65A",
"5. c #ECAC5D",
"6. c #CC9162",
"7. c #F7BD79",
"8. c #F3B162",
"9. c #8BC863",
"0. c #95C768",
"q. c #9AD364",
"w. c #91CC75",
"e. c #A8D572",
"r. c #A7D96F",
"t. c #F6C559",
"y. c #FFD76C",
"u. c #FFC16F",
"i. c #697D82",
"p. c #667A89",
"a. c #668382",
"s. c #6C8583",
"d. c #6C8986",
"f. c #6C8B8B",
"g. c #6E858A",
"h. c #718783",
"j. c #728A86",
"k. c #738C8B",
"l. c #7A8E8B",
"z. c #758988",
"x. c #74908E",
"c. c #7A928D",
"v. c #7A988F",
"b. c #749493",
"n. c #7C9492",
"m. c #7E9A93",
"M. c #789798",
"N. c #779898",
"B. c #7B9B9B",
"V. c #779798",
"C. c #72908F",
"Z. c #7DB081",
"A. c #7F9FA1",
"S. c #83988C",
"D. c #819693",
"F. c #829A96",
"G. c #849D9B",
"H. c #8B9D9B",
"J. c #899898",
"K. c #919E9C",
"L. c #84B687",
"P. c #85A09C",
"I. c #8AA29D",
"U. c #87A196",
"Y. c #98B697",
"T. c #8EB191",
"R. c #ACAE9B",
"E. c #B7BA98",
"W. c #899FA2",
"Q. c #83A3A2",
"!. c #8CA5A3",
"~. c #8DA9A5",
"^. c #8CAAAA",
"/. c #89A7A7",
"(. c #92A6A3",
"). c #92A9A6",
"_. c #93ACAB",
"`. c #9BAFAC",
"'. c #9AA9A6",
"]. c #95B1AE",
"[. c #9AB2AE",
"{. c #96B4B3",
"}. c #9CB5B3",
"|. c #9DB9B6",
" X c #9CBABA",
".X c #97B7B8",
"XX c #95AFB1",
"oX c #A1ABA9",
"OX c #A3B4AE",
"+X c #A1B9B6",
"@X c #A4BDBA",
"#X c #A9BDBB",
"$X c #A4B5B2",
"%X c #AFB5AB",
"&X c #C2B789",
"*X c #ECB488",
"=X c #94C594",
"-X c #B3E195",
";X c #A5C1BE",
":X c #AAC1BE",
">X c #ADC7A9",
",X c #9EE5A8",
"<X c #AFD193",
"1X c #D2D29C",
"2X c #F5D48F",
"3X c #FBF19D",
"4X c #C4C7A9",
"5X c #D2D2A6",
"6X c #D0CCA9",
"7X c #FFD3A6",
"8X c #EFDAAA",
"9X c #FFFFBD",
"0X c #F8F1B3",
"qX c #A6B6C3",
"wX c #A7C3C1",
"eX c #ACC5C2",
"rX c #AEC9C5",
"tX c #ACCAC8",
"yX c #B1C7C3",
"uX c #B3CBC6",
"iX c #B5CDC9",
"pX c #B9CFCB",
"aX c #BBD2CD",
"sX c #BED6D1",
"dX c #C2DAD4",
"fX c #C3DAD5",
"gX c #CDE4DF",
"hX c #FFFFCA",
"jX c #FFFBD5",
"kX c #FFFFFB",
/* pixels */
"                                                                                                                                ",
"                                                                                                                                ",
"                                                                                                                                ",
"                                                                                                                                ",
"                                                                                                                                ",
"                                                                          yXeX                                                  ",
"                                                                  aXiX:X@X+X+X@XeX                                              ",
"                                                      $X}.}.).G.[.:XqX:XeXrX:X#X+X].$XqX                                        ",
"                                                  |.!.W.!.).G.d.x.!.[.`.XX#XeXiX#X}.).G.!.                                      ",
"                                              uX{._._.!.!.F.c.b.d.k.G.W.W.$X:XyXuX@X|.XX_.!.+X                                  ",
"                                              ~.`.{.XXJ.b.k.k.n.k.M k.B.W.}.+X$XqX@X|.$X+X+X{.`.#X                              ",
"                                            +XI.[.}.G.k.k.k.x.k.i.n s.l.n.G._.}.@X@X@X@X+X|.@X@X|.|.yXuX                        ",
"                                            G.m._.H.d.k.x.j.a.j j i.M s.k.k.G.|.+X@X#XqX:X:XeX:X:X@X|.].+X                      ",
"                                          #Xb.H.!.k.j.k.a.n p t j j k l s.k.k.Q.}.@X@X@X:X:X@X@X@X@X@X@X_.@X                    ",
"                                          G.b.!.F.s.j.i.j 2 > > w y j j n n M j.G.}.@X@X@X@X@X@X@X@X#X|.G.!.                    ",
"                                          k.G.W.k.M l t w y k h 2 > y y j j j a.d.D.`.+X@X|.@X@X@X|.).F.x.k.                    ",
"                                        $Xj.G.x.n a t j f.~.;X;X~.j ; w y y j j m d.n.!.}.@X@X`.!.F.c.c.n.d.).                  ",
"                                        G.c.k.b u j j.Q.{. X XwXtXwXB.p 2 w f j j M g.k.G.].!.l.k.k.c.M.n.j.D.                  ",
"                                        s.s.j t X.Q.[. XeX X{.@X@X@XtX:XQ.h > y z j s.d.n.n.h.g.k.k.b.k.k.k.n.                  ",
"                                      ).j j w l B.|.;X;X|.@X.X|.wX X X;XtX|.f.e w f n h.b.k.d.j.k.k.c.l.k.k.k.                  ",
"                                      ..y w n b.].wX;X|. X+X@X{. X;X X;X;XrXtX{.s.w j M j.s.s.g.g.k.k.l.c.b.k.                  ",
"                                      e r a.G.!.;X:X;X;X;X X@X;X|.{..X.X.X.X;XtX{.p w j s.d.s.s.g.l.k.g.j.c.M #X                ",
"                                    '.> y b.P.P.{.rX;X:X;X X;X{.|.@X X.X.XwX XA.B.x.t e j h.X.s.g.k.k.j.g.j.m `.                ",
"                                    l.> p a.k.M.I.:XrX;X|.:X{./.^.+X{.;XeXwXP.b.B.Q.a.w y M d.M s.h.s.s.j.j.k !.                ",
"                                    j w y l a.b.Q.rXrX`.:XrX|.^..X[.A.@XrX].b.N.B.A.V.y t k d.s.s.a.a.X.s.d.k F.                ",
"                                  oX% , w k m j.!.@X/.@XrXeXeX X;X;X XeXeXA.b.N.B.B.A.k r y j s.X.X.X.X.M X.l X.                ",
"                                  c.m M p t p d.G.F.`.tXeXeXeXrXeXrXuXeX X^.b.N.B.B.A...w y f k N m ..m n N m j                 ",
"                              K.j.I.[._.m.y w d.d.F.tX@X;XeXeXeXeXrXtX X.X.XB.b.B.B.B.k.w r y y j j j j h j j w K.              ",
"                            l.j.+X:X:X:XY.s.w ..l k.@X:X;XtXrXrXtXtX X.X.X.X^.N.B.B.b.V.j w t y t u N a.M n k > b               ",
"                        oXb c.@X[.I.}.uX[.c.j y j n B.eXrXeXwXtXtX X.X X.X X^.N.B.B.b.V.s.2 w w y b.G.F.D.n.v.j.%               ",
"                      [.N c.@X+X)._.`.:X+XS.b t p k d.@X|.Q.Q.^.^..X X X X.X^.N.N.N.x.b.f.t , , ..~.Q.D.n.m.G._.d.l.            ",
"                    D.X.).:XuX:X[.+X:XuX`.h.s.r > k M /.B.b.B.B.A.A.A.^.^.{.^.N.b.b.f.f.k.z ; y ..x.I.W.F.~.).).[.G.            ",
"                  S.U.$X:X@X[.aXiXuXiX;XD.O.o.r % y ..b.B.N.B.B.A.A.A.A.N.A.{.B.C.C.f.a.f.l > j M j h.(.I.I.(.).+XU.            ",
"                [.;X:XuXaXiX:XiXuXuX:XU.X.u u 2 ; w m a.b.N.B.B.B.A.A.B.b.b.^.A.b.f.d.i.a.l w k j j f s.S.c._.|.|._.#X          ",
"              [.rXaXuXiXaXdXyX:X:XdXOXX.p r t 2 ; 2 y ..x.V.B.B.B.B.B.B.b.b.N.A.B.a.a.k s z s j j j g +.1.G.).[.|.+X+X          ",
"            [.#XpXaXuXuXiXiXiXuXdX:Xc.p r r x X.y % 2 e f.b.V.B.B.B.B.N.b.b.b.Z.B.d.h ..j E.5Xj e i +.0.F.!.[.+X|.:X;XI.        ",
"          $XeXiXuXpXyXuXiXuXuXaXaXJ.x t t b O.d.b > 2 2 l b.b.b.N.N.N.N.b.b.f.a.b.a.s 5X3Xt.y.8XR.f q.<.g.(.+X+X+X:X+X_.!.      ",
"          D.:XfXdXdXdXaXaXiXdXfX(.o.a t ..O.X...X.y ; w y a.C.b.b.b.N.b.b.b.b.f.f.a.s >X9X;.3.hX4X| 9.k i.P.}.}.;X;X+XOX~.~.    ",
"        '.v.#X:XdXdXaXdXfXgXfX!.d.N r N j...X.X.X.N 2 2 w a a.C.f.f.f.b.b.a.a.f.f.a.z i 0XhXhXE.= ,.$.g X.n._.+X:X@X@X@X#X_.qX  ",
"        l.F.`.[.@X:X@X+X:XfX#Xs.k.v u j.a.X.......X.t > w e k a.f.f.a.f.f.a.a.f.f.a.a.h O.L.<Xc 5 9.] p...s.U.@X+X:X:X#X[.W.T.  ",
"      OXN c.G.~.}.}.XX).!.qX).s.z.t b j.N X.s.s.M M p > > t e l a.p.a.p.a.f.a.a.a.......- Y E $ ) ) g m M X.U.F.n.!.).I.k.M ' r.",
"      j.a.l.n.G.).)._.).).+Xn.s.X.a X.X.y j s.X.m N p >  .} w y z ] s s l i.a.a.h z z .... .) 5 _ } f b M s.X.4X4Xd g g g a ~   ",
"    H.b c.k.F.H.).!./.!.`.).h.N b p h...p N M p t t e a e.a - & w y { z h k ..k a a l z $.$.[ R ^ 5 y f n y N 2Xy.&XN ] 9 * %.  ",
"    N ..F.c.H.I.!.!.!.^.^.I.X.X.v b z.X.j.h.v r r w e @.0.8 1 4 & 0  .&.e h k k l h z p.k ` ( W Y 9 e p p = >X3X;.0X1X' : ]     ",
"  '.u s.k.l.D.D.F.I.!.~.`.c.M X.b X.h.s.s...u r 9 x w.:.2.7.4.7.R.& E w.u e j j z ..k h i ( _ T 5 > 5 , r w N R.hX6X^ E OX>X    ",
"  X.n h.m i.k.n.n.G.!.).F.h.X.X.s.s.X.i.M n p 4 : { q.F 4.jX7.u.7X1 * q.x : t j h h j h 0 R / ^   Y.` x > 3 $ 3 -X$.L           ",
"  2 m O.<.<.z.k.D.F.I.x.j v s.j.X.h.M j n v k u t R J 7X2X5.8X8.G A ! -.6 < , 2 t t = # & | P Z.    ` ` | c { ( ~ P Z.          ",
"H.; M M 9.e.k.z.l.n.P.n.N v k.h.M M n +.} u p i x ' S *X5.2XkX8XD A ! ! # + @ @ + # 3 O.  L.X       &.K =X    %.P L.            ",
"%Xt M n E q.+.p.s.h.G.G.n.z.k.X.M m j 0.o.q u r : #.O C D 6.1X6.Z . P E B v b z.(.          Y.        #.        L.              ",
"  M 2 c ] _ h.p.z.z.B.F.n.j.O.h.m c x 9.$.x r + B   L.>.H V Z C H +.U                                                           ",
"  oX# r R ! #.<.j.l.n.F.v.h.s.X.M g N ` 9.} + l.      ,XE J 1 Q                                                                 ",
"    D.% * T =.e.d.g.c.D.D.s.X.X.b } @.~ I 7 J.          &.Y.#.-.                    [.P.m.v.v.`.+X$X                            ",
"        Y L ` $.f p b N s.N v b c ) ' Y W                                       [.P.v.U.P.F.m.c.O.d.m.].                        ",
"        E o L ] 9 # % % ; 2 2 % ; o.Y &.                                      !.Q.P.U.P.v.U.m.c.P.S.n.n.+X                      ",
"        &.[ =X    K.l.O.p u N z.K.                                          _.P._.).].P.F.I.I.!.~.~._.~.F.                      ",
"                                                                            c.n XX.X]._._.{.`.{.{.|.|.j.j.                      ",
"                                                                  (.~.        X.X.d.F.'./.).!.P.I.G.X.y $X                      ",
"                                                                H.b.C.`.          z.p p y j N o.N ..S.                          ",
"                                                                  H.D.                I.I.H.K.(.).                              ",
"                                                                                                                                ",
"                                                                                                                                ",
"                                                                                                                                ",
"                                                                                                                                ",
"                                                                                                                                "
};
