/* XPM */
static char *Tree1694436522[] = {
/* columns rows colors chars-per-pixel */
"64 64 239 2 ",
"   c None",
".  c #1B1300",
"X  c #281C05",
"o  c #002700",
"O  c #023800",
"+  c #362C1B",
"@  c #39361B",
"#  c #2B2A1B",
"$  c #2B3921",
"%  c #343222",
"&  c #392E21",
"*  c #46371E",
"=  c #573518",
"-  c #463823",
";  c #553922",
":  c #13440B",
">  c #174709",
",  c #1C4D15",
"<  c #1C4B15",
"1  c #1F511B",
"2  c #044D03",
"3  c #234D15",
"4  c #254F1A",
"5  c #245314",
"6  c #25511C",
"7  c #2A541D",
"8  c #2D5A1E",
"9  c #285B16",
"0  c #315C1E",
"q  c #214E0E",
"w  c #2B6716",
"e  c #3A4824",
"r  c #265423",
"t  c #2A5622",
"y  c #2C5B24",
"u  c #2D5D29",
"i  c #255924",
"p  c #335D23",
"a  c #345E29",
"s  c #395C27",
"d  c #294922",
"f  c #2F622B",
"g  c #296727",
"h  c #356324",
"j  c #396526",
"k  c #3B6926",
"l  c #32642B",
"z  c #3B642B",
"x  c #336B2C",
"c  c #3D6A2A",
"v  c #397A29",
"b  c #356C32",
"n  c #3A6D34",
"m  c #366632",
"M  c #3A7236",
"N  c #3C743A",
"B  c #3F793C",
"V  c #387535",
"C  c #2C722D",
"Z  c #1E691B",
"A  c #44401E",
"S  c #417F16",
"D  c #534326",
"F  c #5A4329",
"G  c #5A4B2B",
"H  c #574328",
"J  c #465729",
"K  c #524F2E",
"L  c #634B2B",
"P  c #6B4E31",
"I  c #426D2C",
"U  c #46652C",
"Y  c #44732D",
"T  c #49742E",
"R  c #497B2E",
"E  c #447729",
"W  c #426C32",
"Q  c #456A39",
"!  c #457432",
"~  c #4A7532",
"^  c #457C35",
"/  c #4C7B32",
"(  c #427C3C",
")  c #4C7D39",
"_  c #48763C",
"`  c #517E33",
"'  c #527B3B",
"]  c #5C6E37",
"[  c #437C41",
"{  c #4B7845",
"}  c #5A7C53",
"|  c #567449",
" . c #7A665B",
".. c #3E803D",
"X. c #49842B",
"o. c #4C8235",
"O. c #44833C",
"+. c #4C843B",
"@. c #4E893E",
"#. c #4A8F30",
"$. c #538335",
"%. c #588737",
"&. c #568936",
"*. c #598A37",
"=. c #54863A",
"-. c #598739",
";. c #548B3B",
":. c #5B8C3A",
">. c #5C923C",
",. c #599537",
"<. c #5C962F",
"1. c #61953D",
"2. c #649A3E",
"3. c #689E3F",
"4. c #5EA029",
"5. c #66A13F",
"6. c #66A338",
"7. c #73B539",
"8. c #5CAB1A",
"9. c #7BC039",
"0. c #468244",
"q. c #498445",
"w. c #4B8648",
"e. c #4E8A4B",
"r. c #4E8A42",
"t. c #528D42",
"y. c #5E8C41",
"u. c #518D4E",
"i. c #588044",
"p. c #569243",
"a. c #5B9343",
"s. c #5C9A46",
"d. c #5C944A",
"f. c #59974B",
"g. c #578659",
"h. c #549252",
"j. c #579756",
"k. c #4B8D4C",
"l. c #688945",
"z. c #649542",
"x. c #659B42",
"c. c #6A9D43",
"v. c #639E4A",
"b. c #6D9D48",
"n. c #67865B",
"m. c #669955",
"M. c #67A140",
"N. c #6BA443",
"B. c #6EA944",
"V. c #65A24B",
"C. c #6BA44B",
"Z. c #6CA84C",
"A. c #71A746",
"S. c #72AB46",
"D. c #71A349",
"F. c #75AD49",
"G. c #79AE4D",
"H. c #7DBA45",
"J. c #76B14B",
"K. c #7CB54C",
"L. c #7EB94D",
"P. c #78B544",
"I. c #69A452",
"U. c #76AC59",
"Y. c #7BB552",
"T. c #7EB954",
"R. c #79B355",
"E. c #6B8B66",
"W. c #689567",
"Q. c #749566",
"!. c #7B9876",
"~. c #71916C",
"^. c #76A677",
"/. c #7DA767",
"(. c #7EC243",
"). c #82BC4E",
"_. c #83BC52",
"`. c #84BD5B",
"'. c #84BA54",
"]. c #83AD5F",
"[. c #819C77",
"{. c #89B376",
"}. c #84C34B",
"|. c #85C749",
" X c #86C153",
".X c #8AC455",
"XX c #8DC955",
"oX c #86C359",
"OX c #8BC559",
"+X c #8ECA5A",
"@X c #90CC57",
"#X c #92CD5B",
"$X c #96D15D",
"%X c #99D45E",
"&X c #96D656",
"*X c #8CD648",
"=X c #8DC662",
"-X c #95CD63",
";X c #96CB64",
":X c #9AD462",
">X c #9ED964",
",X c #9AD266",
"<X c #9CC976",
"1X c #9FD670",
"2X c #A1DC66",
"3X c #A3DD69",
"4X c #A6D778",
"5X c #A0CC77",
"6X c #A6E16B",
"7X c #A9E46E",
"8X c #A6E565",
"9X c #AAE571",
"0X c #AEE972",
"qX c #B2ED76",
"wX c #B4EE78",
"eX c #B6F179",
"rX c #BAF47D",
"tX c #7EA582",
"yX c #839F82",
"uX c #979883",
"iX c #998A81",
"pX c #84A382",
"aX c #86A989",
"sX c #93AA8D",
"dX c #99B499",
"fX c #8FB589",
"gX c #AEAEA3",
"hX c #B3DB8C",
"jX c #B0DB85",
"kX c #B6D995",
"lX c #A9CF88",
"zX c #B8E489",
"xX c #BEF880",
"cX c #BDE397",
"vX c #ADC6A0",
"bX c #C6FC89",
"nX c #CFFF90",
"mX c #C7E6A9",
"MX c #D5F0B9",
/* pixels */
"                                                                                                                                ",
"                                                  4X        hX,X                                                                ",
"                                                ,X|.4XhX#X  4X,X                  >XmXcX  cX1X                                  ",
"                                              4X|.XXXX|.|.@X#X#XhX    lXhX4XhX  4X$X$X@XjXXX*X1X|.4X                            ",
"                                            hX9.XX#X#X@X#X|.XX}.4X    .X(.XXXX|.&X$X&X:X*X#X$X+X|.jX                            ",
"                                            L..X#X@XXX#X#X#XXX@X X  kX}._..X.X$X2X2X>X3X>X#X+X+X+X=X=X                          ",
"                                zX        =XP._.XX.X_.#X$XOX_..XL.K.|.+X.X.XXX$X6X2X2X2X:X+X=X#X=XJ.6.^.I.#.                    ",
"                              MX6X%X4X&X}.K.'.L.).L.K.'._.).K.K.F.}.6X6X$X+X6X:X#X:X2X:X$X-X$X+X+XoX(.s.#./.                    ",
"                              >X3X2X2X>X%XOX)._.).'.).).F.).'.).).+X2X3X%X%XrX6X:X0X9X:X>X2X2X$X+X:X+XI.,.{.                    ",
"                            1X%X$X9XqXqXrX6X#XOX'._.'.'._.'.'.).#X2X3X2X#X#XqXqXwXeX>X#X>X8X>X-X=X$XT.I.Z.V.p.v fX              ",
"                      kX-X;X(.%X2X>X9X9X3X>X>X2XXX`._.'..X`.'._.%X2X2X@X,XqX0XqXqXqX6X#X:X>X:X$X+X+X(.I.I.s.....                ",
"                      mX7.H.OX%X3X>X>X:X:X6X0X6X$X}.#X2XXX.XXX#X#X%X%XOX3XrXqXqX0XqXqX>X:X8X:X+XoXoX,X(.s.t.#.k.fX              ",
"                        H.}. X#X2X:X%X>X0XeXeX3X2X3X2X2X$X>X:X@X2X2X3X%X#X$X>X0X-XOX$X>X>X3X-X+XoX=X=X(.s.p.....C ^.            ",
"                  4XkX;X7.OXOXOX+X%X3X%X6XwXqXqX7XeX0X%X2XeXqX,X%X2X>X2X2X#X#X%XoX+X%X2X8X6X$XoX+X(.U.I.s.r.....C {.            ",
"        cX2XmX9X3X+X X).K.P._..XOX>X:X#X>X:X-X2X2X7XwX3X3XeX6X:X#X#X%X2X2X,X2X>X:X>X6X>X:X:XOXoX+X=XI.I.V.@.....Z O.            ",
"        zX*X2X3X%X;X+X+X_.J.J.K.L. X.XXX#X#X$X$X2X7XwXwX3X3X+X#X$X#X#X2X$X$X2X2X-X>X6X$X X XoXoX=X(.V.V.s.s.,.k.W.tX            ",
"      zX3X2X>X7X0X>X#X:X+XL.J.B.B.}.+X.X+X$X%X:X-X#X7XeX#X.X.X.XOX.XT.OX-X,X2X:X-X,X=X=XoXOXoXR.Z.I.s.p.p.p.O.V dX              ",
"      cX&X%X3XrXbXqX>X%X:XOXJ.S.B.L..XT. X$X>X$X#XOX#X-X.X.XOX'.Y.Y.K.-X3X,X+XOX-X;X`.(.oXOX$XR.s.I.V.p.p.p.O.b g               ",
"        %X3XbXnXnXrX7X:X$XOXL.B.N.B.B.S.F.#X%X+X#X%X_.G.`.OXOX'.A.'._. X,X;XoX.X=XoX=XoX(.U.oXJ.V.V.V.@.k.O.N C j.              ",
"    2X,X%X9XqXbXnXqX9X3X$X+XT.J.N.M.N.5.S.L.K.J.#XOXF.A.).K.F.N.1.Z.R.c.Y.-X;XoX=XoXT.,XT.I.V.C.V.s.@.p.0.N N g x               ",
"    $X|.>XqX0X3XwXqX0X>X-X>XoXT.K.M.5.N.S.S.F.G.B.N.F.).2.x.S.>.;.$.;.>.C.R.R.+X,XR.I.`.U.U.I.Z.Z.@.r.s.+.V b N pX              ",
"    3X|.>XqX7X$X>XqX2X;X:X+XoX(.J.5.M.5.M.S.S.S.2.B.Y.x.&.:.z.3.;.o.=.d.d.;.+.U.T.f.t.d.I.R.V.@.@.@.p.s.r.b g e.                ",
"    hX.XXX$X%X%X3X6X$X-X>X+XL.J.5.M.5.5.F. XF.2.2.>.>.;.2.2.E o.;.p.p.d.d.=.+.t.d.d.d.r.;.s.@.! ..p.s.r.V b M V 0.q.W.sX        ",
"      hX}.OX:X>X$X$X:X>X:X XP.B.N.5.5.B.K. XJ.2.1.,.,.5.>.$.k 0 ^ f.d.d.+.+.;.) 0.d.d.t.O.B ^ O.#.r.r.C b M M b x x g >         ",
"      <X|..X#X-X+X+X:X>X(.J.J.V.5.5.5.K._.F.3.2.>.>.,.2.^ j k x h +.I.f.0.t.+.+.t.p.u.( ( ^ O.O.q.B C f b N N B N N V g E.      ",
"    `.4._.#X XL. X}.oXoXJ.L.B.M.5.N.S.K.).).A.c.5.S.>.T c j x j 6 ! I.V.d.t.^ u.I.f.;.V b ( +.( O.N b N b b 0.h.[ M N [ 2 !.    ",
"      2.S.L.J.J.T.}.L.J.B.P.5.5.N.S.K.).).).F.3.N.N.$.j j j c z p c +.{ f.f._ f.V.r.V b n b V x n V N N b b w.u.w.N N x {       ",
"  kX<X7.B.N.B.B.J.J.B.B.B.5.5.N.B.L.T.}..X X_.G.>.&.R h p z z s n W j l ! _ n ) @.b f b x f x f x N N f m 0.h.u.e.w.N 9 !.      ",
"lX8.H.).F.S.B.M.5.5.5.N.N.5.M.N.J.}.H.K.XX@X#X%X5.*.$.h h a p 7 s m c l l j x l u f f b x x b l y m x f N { k.w.u.u.[ b [ b W.  ",
"  5X).).).).B.x.N.S.S.5.5.B.M.B. XXX X@X@X.XXX'.A.,.E h c z 7 6 6 t z j l 7 y h 8 6 y f u y f f 6 r u N B N B [ 0.N N [ B O Q   ",
"  hXH.}..X.X).P.K.L.L.S.N.L.}..XXX@X%X0X0X%X.X).c.F.*.t W W p 6 4 6 a a 8 5 8 7 5 4 6 t 6 6 6 6 y f l n [ N N N N N N N y {     ",
"  7.)..X@X&X$X#X XL.}. X}.+X$X@X$X%X2XeXrX%X'.,XG.:.` z z n j p 7 I -.z / :.j h c p 4 4 6 6 6 7 l l f f m n N N N N B M > sX    ",
"  kX'.).@X$X@X$X#X@X@X3X2X&X@X2XqXwX3X2X,X.XOX3X+X) I p p z z z z D.).%.c.).%.R >.E 6 4 6 6 6 7 l l l u f f N N N N N c > n.    ",
"  5XP.'.'.@X@X@X$X$X8XxX3X@X@X3XqXwXwX`.'..X_.'.D.) ~ l 8 p a W b.G.A.)._.A.>.$.o.^ Y j 4 6 7 6 t y y l p u M ( B m u y t 5 6 sX",
"  5X6.7.)..X@X$X@X.X3XxX,X'.%X2X@X,X3X;X,X'.x.2.z./ ! W h 0 p ` G.A.F.2X8XN.>.>.o.o.>.! 6 6 7 7 6 7 y h l l l n m y 7 7 t 4 o } ",
"  {.S 1.D.@X$X'.@X.X#X:X)..X#X#XXX'.`.$X:X).$.N.A.` j W z z ! A..XA.A.%X_.1.3.A.x.o.o.c y 6 6 6 7 6 y l l y u l f 7 8 7 4 z [.  ",
"    ].<.1.).F.).$X%X'.)..XOX.XXX.X@X#X'.A.2.*.z.G.-.t z U W _ _.8X).c.N.c.K.@XG.N.;.=.! R M y 6 7 7 t y y 7 u f y 7 8 3 o h     ",
"      b.<.1.` <.'.).7.F.OX#X). X).@X2X].$.x.'.y.) / I a a ! :.S.%X2X$XK.2.@X7XF.;.>.x.>.;.p.h 6 y u y y t 7 7 7 7 8 , } !.E.    ",
"      ].<.2.%.$.%.3.b.3.L._.N.2.*.).#Xb.b.c.>.^ c ~ / p 7 T A.A.#X%X2X$Xz.A.J.A.>.;.>.+.+.^ y y u y y y t t 7 7 y y , } dX      ",
"      lXX.R 1.%.` D.3.D.c.3.S.2.:.:.` T x.$.h k c ) ~ p 8 T 2.N.A.A.A.A.N.N.c.N.+.o.o.+.o.c y y y y t y y t y y 7 y u , o       ",
"        9 8 $.E k *.R %.X.` 3.*.2.$.8 h k k h 0 W ~ a 7 j $.>.x.c.N.x.c.F.A.s.;.+.) ) o.o.Y u y u y n 0.m n w.0.m x f , E.      ",
"      Q.9 j h 0 0 k R Y I I k k E I h j h h k h z z s 7 I z.1.z.A.N.1.a.A.N.;.>.:.+.@.;.s.;.j y y l u.j.B 0.j.j.q.B x i         ",
"  Q.X.R / E k j h k I j I E j c j j k k h j Y n s z I j T x.2.1.>.>.:.;.:.;.o.;.@.o.&.>.>.o.f f u m e.e.q.w.w.w.[ N b y         ",
"  l.v X.$./ / E I k j 0 j Y z z T I j k 0 p p z j k Y I I &.>.>.;.>.>.>.;.;.+.+.o.o.@.>.R h l j f x [ h.e.h.0.b N B N , pX      ",
"  vXo.R o.:.*.*.` R Y T ~ W c j ! W h 0 s s s I T U U U T ~ -.>.a.>.>.;.>.>.;.+.O.+.>.x.o.l l l V V [ h.e.w.0.M N N l : Q       ",
"  z.9 R >.1.1.1.,.%.R R -.) ! ~ ) I z U k j I I T ` / R / / $.:.>.>.;.+.>.;.;.@.&.:.&.&.E f l N h.e.q.u.w.B V N _ V f : E.      ",
"    sXz.1.1.1.1.3.%.c T :.z.:.l.$.T / _ k I k I ` 1.:.$.` ` ` %.=.$.;.;.;.;.;.;.&.:.^ y l 0.0.e.h.e.e.u.h.0.V N B B a o aX      ",
"      ].S *.:.1.3.1.R / c.D.b.1.%.-.y.-.I j U I / %.-.` / ` ` ` / ~ ^ +.^ V o.^ k x n l M j.e.[ e.[ N 0.w.B b n V f < Q         ",
"      m.j ^ :.3.b.A.b.b.3.b.D.c.l.y.:.*./ j I T I T $.%.$.%.%.$.` I I l u u f l u u N B N 0.[ M N N N N N N B l y : n           ",
"      z j / c.A.D.D.D.D.c.1.b.1.-.-.$./ I p U T I / %.-.%.%.%.%.:.` j a i r r l f u m B B N M N N b N N V N n u t , 4           ",
"      i.' I 1.c.%.2.c.z.1.b.3.%.R %.$.I t s 0 s T ` $.%.%.:.:.%.:.` a c a r r r m f f N B m M B n f n B B l r t t < O yX        ",
"          [.8 I I ` $.~ ' c.3.T U $.$.0 t s 0 s ` ` ` $.$.%.%.:.` z z a $ d r t i f i u u i N [ l i u N m y 4 4 t pX            ",
"            Q.p W z 0 z ] ~ I a p s z 3 q s 5 8 ` ` ~ ` R ` :.:.I h s # & & g i r r r r r r l l i f u t t t t : O               ",
"              5 5 U s 0 9 5 7 s 6 3 4 } n.O W z 5 I / $.~ j I T U j e & - - r r u 1 < r r r t t 1 < , y 4 O tXpXl               ",
"              [.[._ 5 { !.n.7 7 U a o [.  [.    J > ~ R U p s s x c D - - - # $ $ | ~.O : r 6 : r { { 3 1 a                     ",
"                  ~.5       ] o ~.  p [.          3 9 e $ s j s J J G ; - - # $ . iX  yX!., 7 m dX    O }                       ",
"                              Q                     A # # @ I A F H H L G * % X F         !.                                    ",
"                                                     .X % * L D H H G L H * @ X gX                                              ",
"                                                    iXX + K P F G ; D L F * J J                                                 ",
"                                                      @ # ) l.; F G - = ] U $.*                                                 ",
"                                                    I./ @ % x.K G Q K P I k.v - pX                                              ",
"                                                    ^.h.N @ ! O.c N     { 2 } vXN                                               ",
"                                                          tXtX..C g.      !.    pX                                              ",
"                                                              aXaX                                                              "
};
