/* XPM */
static char *result[] = {
/* columns rows colors chars-per-pixel */
"64 64 128 2 ",
"   c #202040",
".  c #282848",
"X  c #2B2B4B",
"o  c #2D2D4D",
"O  c #2E2E4E",
"+  c #323252",
"@  c #333353",
"#  c #353555",
"$  c #383858",
"%  c #393959",
"&  c #3B3B5B",
"*  c #3C3C5C",
"=  c #404060",
"-  c #444464",
";  c #464666",
":  c #474767",
">  c #4B4B6B",
",  c #4D4D6D",
"<  c #4E4E6E",
"1  c #52526E",
"2  c #57576E",
"3  c #59526E",
"4  c #505070",
"5  c #525272",
"6  c #535373",
"7  c #555575",
"8  c #5C5C75",
"9  c #595979",
"0  c #5A5A7A",
"q  c #5B5B7B",
"w  c #5C5C7C",
"e  c #60536D",
"r  c #6E5B72",
"t  c #60607A",
"y  c #756075",
"u  c #72647C",
"i  c #606080",
"p  c #646484",
"a  c #656585",
"s  c #676787",
"d  c #6B6B84",
"f  c #6E6E85",
"g  c #6B6B8B",
"h  c #6E6E8B",
"j  c #6E6E8E",
"k  c #7C6E87",
"l  c #75758B",
"z  c #707090",
"x  c #727292",
"c  c #757595",
"v  c #7C7592",
"b  c #797992",
"n  c #7C7C92",
"m  c #7C7C95",
"M  c #797999",
"N  c #7C7C9C",
"B  c #8B6E80",
"V  c #84758E",
"C  c #8B758B",
"Z  c #907080",
"A  c #927587",
"S  c #95798B",
"D  c #808099",
"F  c #848499",
"G  c #84849C",
"H  c #AB808B",
"J  c #A78492",
"K  c #A48799",
"L  c #B58B95",
"P  c #BC8B92",
"I  c #8080A0",
"U  c #8787A0",
"Y  c #8484A4",
"T  c #8787A7",
"R  c #8B8BA0",
"E  c #8B8BA4",
"W  c #8B8BAB",
"Q  c #8E8EAE",
"!  c #9C8EA7",
"~  c #9090A0",
"^  c #9292A7",
"/  c #9595A7",
"(  c #9292AB",
")  c #9595AE",
"_  c #9292B2",
"`  c #9595B5",
"'  c #9999B5",
"]  c #9C9CB5",
"[  c #9C9CBC",
"{  c #AB9CB5",
"}  c #A0A0B5",
"|  c #A4A4B5",
" . c #ABABB5",
".. c #E0A0A0",
"X. c #A0A0C0",
"o. c #A4A4C4",
"O. c #A7A7C7",
"+. c #AEAEC4",
"@. c #ABABCB",
"#. c #AEAECE",
"$. c #B5B5C0",
"%. c #B2B2C4",
"&. c #B5B5C4",
"*. c #B9B9C4",
"=. c #BCBCC4",
"-. c #B5B5CB",
";. c #BCBCCB",
":. c #B2B2D2",
">. c #B5B5D5",
",. c #B9B9D9",
"<. c #C0C0CB",
"1. c #C4C4CB",
"2. c #C0C0D2",
"3. c #C4C4D5",
"4. c #CBCBD2",
"5. c #CBCBD5",
"6. c #CBCBDC",
"7. c #D2D2DC",
"8. c #C0C0E0",
"9. c #C4C4E0",
"0. c #C7C7E0",
"q. c #CBCBE0",
"w. c #CECEE0",
"e. c #D2D2E0",
"r. c #D5D5E0",
"t. c #DCDCE0",
"y. c gray88",
"u. c None",
/* pixels */
"u.u.u.u.u.u.u.u.u.u.u.u.u.u.u.u.u.u.u.u.u.u.u.u.u.u.u.u.u.u.u.u.u.u.u.u.u.u.u.u.u.u.u.u.u.u.u.u.u.u.u.u.u.u.u.u.u.u.u.u.u.u.u.u.",
"u.u.u.u.u.u.u.u.u.u.u.u.u.u.u.u.u.u.u.u.u.u.u.u.u.u.u.u.u.u.u.u.u.u.* O u.u.u.u.u.u.u.u.u.u.u.u.u.u.u.u.u.u.u.u.u.u.u.u.u.u.u.u.",
"u.u.u.u.u.u.u.u.u.u.u.u.u.u.u.u.u.u.u.u.u.u.u.u.u.u.u.u.u.u.u.u.u.i i ; u.u.  u.u.u.u.u.u.u.u.u.u.u.u.u.u.u.u.u.u.u.u.u.u.u.u.u.",
"u.u.u.u.u.u.u.u.u.u.u.u.u.u.u.u.u.u.u.u.u.u.u.u.u.u.u.u.u.u.u.u.i i = u.u.# 7 u.u.u.u.u.u.u.u.u.u.u.u.u.u.u.u.u.u.u.u.u.u.u.u.u.",
"u.u.u.u.u.u.u.u.u.u.u.u.u.u.u.u.u.u.u.u.u.u.u.u.u.u.u.u.u.u.u.5 V H u.u.+ u = u.u.u.u.u.u.u.u.u.u.u.u.u.u.u.u.u.u.u.u.u.u.u.u.u.",
"u.u.u.u.u.u.u.u.u.u.u.u.u.u.u.u.u.u.u.u.u.u.u.u.u.u.u.u.u.u.> c L = u.= A r u.u.u.u.u.u.u.u.u.u.u.u.u.u.u.u.u.u.u.u.u.u.u.u.u.u.",
"u.u.u.u.u.u.u.u.u.u.u.u.u.u.u.u.u.u.u.u.u.u.u.u.u.u.u.u.u.  c V B u.+ 9 L = u.u.u.u.u.u.u.u.u.u.u.u.u.u.u.u.u.u.u.u.u.u.u.u.u.u.",
"u.u.u.u.u.u.u.u.u.u.u.u.u.u.u.u.u.u.u.u.u.u.u.u.u.u.u.u.u.5 c J y u.- L y u.u.u.u.u.u.u.u.u.u.u.u.u.u.u.u.u.u.u.u.u.u.u.u.u.u.u.",
"u.u.u.u.u.u.u.u.u.u.u.u.u.u.u.u.u.u.u.u.u.u.u.u.u.u.u.u.+ j i P e   i L y u.u.u.u.u.u.u.u.u.u.u.u.u.u.u.u.u.u.u.u.u.u.u.u.u.u.u.",
"u.u.u.u.u.u.u.u.u.u.u.u.u.u.u.u.u.u.u.u.u.u.u.u.u.u.u.u.# c i H O > k B e u.u.u.u.u.u.u.u.u.u.u.u.u.u.u.u.u.u.u.u.u.u.u.u.u.u.u.",
"u.u.u.u.u.u.u.u.u.u.u.u.u.u.u.u.u.u.u.u.u.u.u.u.u.u.u.o < g ..Z . i C y u.u.u.u.u.u.u.u.u.u.u.u.u.u.u.u.u.u.u.u.u.u.u.u.u.u.u.u.",
"u.u.u.u.u.u.u.u.u.u.u.u.u.u.u.u.u.u.u.u.u.u.u.u.u.u.u.# g g ..=   i S r u.u.u.u.u.u.u.u.u.u.u.u.u.u.u.u.u.u.u.u.u.u.u.u.u.u.u.u.",
"u.u.u.u.u.u.u.u.u.u.u.u.u.u.u.u.u.u.u.u.u.u.u.u.u.u.u.# g K y u.= i H u.u.u.u.u.u.u.u.u.u.u.u.u.u.u.u.u.u.u.u.u.u.u.u.u.u.u.u.u.",
"u.u.u.u.u.u.u.u.u.u.u.u.u.u.u.u.u.u.u.u.u.u.u.u.u.u.u.u.# L = u.7 ..= u.u.u.u.u.u.u.u.u.u.u.u.u.u.u.u.u.u.u.u.u.u.u.u.u.u.u.u.u.",
"u.u.u.u.u.u.u.u.u.u.u.u.u.u.u.u.u.u.u.u.u.u.u.u.u.u.u.u.# > i = 7 H u.u.u.u.u.u.u.u.u.u.u.u.u.u.u.u.u.u.u.u.u.u.u.u.u.u.u.u.u.u.",
"u.u.u.u.u.u.u.u.u.u.u.u.u.u.u.u.u.u.u.u.u.u.u.u.u.u.u.& i 9 c p g X u.u.u.u.u.u.u.u.u.u.u.u.u.u.u.u.u.u.u.u.u.u.u.u.u.u.u.u.u.u.",
"u.u.u.u.u.u.u.u.u.u.u.u.u.u.u.u.u.u.u.u.u.u.u.u.u.u.u.= c j g i s   u.u.u.u.u.u.u.u.u.u.u.u.u.u.u.u.u.u.u.u.u.u.u.u.u.u.u.u.u.u.",
"u.u.u.u.u.u.u.u.u.u.u.u.u.u.u.u.u.u.u.u.u.u.u.u.u.u.  c i c i 1.h i < u.u.u.u.u.u.u.u.u.u.u.u.u.u.u.u.u.u.u.u.u.u.u.u.u.u.u.u.u.",
"u.u.u.u.u.u.u.u.u.u.u.u.u.u.u.u.u.u.u.u.u.u.u.u.u.u.  c i j i y.R i W u.u.u.u.u.u.u.u.u.u.u.u.u.u.u.u.u.u.u.u.u.u.u.u.u.u.u.u.u.",
"u.u.u.u.u.u.u.u.u.u.u.u.u.u.u.u.u.u.u.u.u.u.u.u.u.u.  c i i i e.1.i E 2 # u.u.u.u.u.u.u.u.u.u.u.u.u.u.u.u.u.u.u.u.u.u.u.u.u.u.u.",
"u.u.u.u.u.u.u.u.u.u.u.u.u.u.u.u.u.u.u.u.u.u.u.u.u.f l n R R R U 8 i v 3 | a u.u.u.u.u.u.u.u.u.u.u.u.u.u.u.u.u.u.u.u.u.u.u.u.u.u.",
"u.u.u.u.u.u.u.u.u.u.u.u.u.u.u.u.u.u.u.u.u.u.u.u.t &.r.r.r.r.r.} F g ! { o.` = u.u.u.u.u.u.u.u.u.u.u.u.u.u.u.u.u.u.u.u.u.u.u.u.u.",
"u.u.u.u.u.u.u.u.u.u.u.u.u.u.u.u.u.u.u.u.u.u.u.u.h 9.8.8.8.8.8.q.+.` ` ` ` ` = u.u.u.u.u.u.u.u.u.u.u.u.u.u.u.u.u.u.u.u.u.u.u.u.u.",
"u.u.u.u.u.u.u.u.u.u.u.u.u.u.u.u.u.u.u.u.u.u.u.u.i >.8.8.>.W I I ` 8.} -.W = u.u.u.u.u.u.u.u.u.u.u.u.u.u.u.u.u.u.u.u.u.u.u.u.u.u.",
"u.u.u.u.u.u.u.u.u.u.u.u.u.u.u.u.u.u.u.u.u.u.u.u.u.z Q #.,.8.8.8.8.W ) D 5 u.u.u.u.u.u.u.u.u.u.u.u.u.u.u.u.u.u.u.u.u.u.u.u.u.u.u.",
"u.u.u.u.u.u.u.u.u.u.u.u.u.u.u.u.u.u.u.u.u.u.u.u.u.u.u.9 p T @.8.:.i q u.u.u.u.u.u.u.u.u.u.u.u.u.u.u.u.u.u.u.u.u.u.u.u.u.u.u.u.u.",
"u.u.u.u.u.u.u.u.u.u.u.u.u.u.u.u.u.u.u.u.u.u.u.u.u.u.u.u.u.5 W ` x u.u.u.u.u.u.u.u.u.u.u.u.u.u.u.u.u.u.u.u.u.u.u.u.u.u.u.u.u.u.u.",
"u.u.u.u.u.u.u.u.u.u.u.u.u.u.u.u.u.u.u.u.u.u.u.u.u.u.u.u.u.  i W c u.u.u.u.u.u.u.u.u.u.u.u.u.u.u.u.u.u.u.u.u.u.u.u.u.u.u.u.u.u.u.",
"u.u.u.u.u.u.u.u.u.u.u.u.u.u.u.u.u.u.u.u.u.u.u.u.u.u.u.u.@ = 7 T @.l u.u.u.u.u.u.u.u.u.u.u.u.u.u.u.u.u.u.u.u.u.u.u.u.u.u.u.u.u.u.",
"u.u.u.u.u.u.u.u.u.u.u.u.u.u.u.u.u.u.u.u.u.u.u.u.u.u.u.& p g 7 p :.y.= u.u.u.u.u.u.u.u.u.u.u.u.u.u.u.u.u.u.u.u.u.u.u.u.u.u.u.u.u.",
"u.u.u.u.u.u.u.u.u.u.u.u.u.u.u.u.u.u.u.u.u.u.u.u.u.u.  c i i i g @.8. .u.u.u.u.u.u.u.u.u.u.u.u.u.u.u.u.u.u.u.u.u.u.u.u.u.u.u.u.u.",
"u.u.u.u.u.u.u.u.u.u.u.u.u.u.u.u.u.u.u.u.u.u.u.u.u.& p i 9 > > g @.8. .u.u.u.u.u.u.u.u.u.u.u.u.u.u.u.u.u.u.u.u.u.u.u.u.u.u.u.u.u.",
"u.u.u.u.u.u.u.u.u.u.u.u.u.u.u.u.u.u.u.u.u.u.u.u.& s p 5 +   i g @.8.2.f u.u.u.u.u.u.u.u.u.u.u.u.u.u.u.u.u.u.u.u.u.u.u.u.u.u.u.u.",
"u.u.u.u.u.u.u.u.u.u.u.u.u.u.u.u.u.u.u.u.u.u.u.  c i i   u.  i g @.8.q.l u.u.u.u.u.u.u.u.u.u.u.u.u.u.u.u.u.u.u.u.u.u.u.u.u.u.u.u.",
"u.u.u.u.u.u.u.u.u.u.u.u.u.u.u.u.u.u.u.u.u.u.u.  i i j &   > i M :.8.0.b i l l t u.u.u.u.u.u.u.u.u.u.u.u.u.u.u.u.u.u.u.u.u.u.u.u.",
"u.u.u.u.u.u.u.u.u.u.u.u.u.u.u.u.u.u.u.u.u.u.u.u.o 5 i s 9 9 i ` 8.8.8.I X.+.e.=.= u.u.u.u.u.u.u.u.u.u.u.u.u.u.u.u.u.u.u.u.u.u.u.",
"u.u.u.u.u.u.u.u.u.u.u.u.u.u.u.u.u.u.u.u.u.u.u.u.u.+ 5 p j s i ` 8.8.8.Q W o.' 4.= u.u.u.u.u.u.u.u.u.u.u.u.u.u.u.u.u.u.u.u.u.u.u.",
"u.u.u.u.u.u.u.u.u.u.u.u.u.u.u.u.u.u.u.u.u.u.q # = @   9 w d g c W ` } } &.Q :.T u.u.u.u.u.u.u.u.u.u.u.u.u.u.u.u.u.u.u.u.u.u.u.u.",
"u.u.u.u.u.u.u.u.u.u.u.u.u.u.u.u.u.u.u.u.u.u.I i c 5 = : w *.X.I ` 8.r.r.%.T [ [ = u.u.u.u.u.u.u.u.u.u.u.u.u.u.u.u.u.u.u.u.u.u.u.",
"u.u.u.u.u.u.u.u.u.u.u.u.u.u.u.u.u.u.u.u.u.u.Q W i s w w p ) W 8.@.8.8.8.0.%.I , u.u.u.u.u.u.u.u.u.u.u.u.u.u.u.u.u.u.u.u.u.u.u.u.",
"u.u.u.u.u.u.u.u.u.u.u.u.u.u.u.u.u.u.u.u.u.u.= 8.i > g i 7 7 X.@.8.y.W 5.}  .= u.u.u.u.u.u.u.u.u.u.u.u.u.u.u.u.u.u.u.u.u.u.u.u.u.",
"u.u.u.u.u.u.u.u.u.u.u.u.u.u.u.u.u.u.u.u.u.u.u.` _ > g i p M g I T >.<.o.7.i u.u.u.u.u.u.u.u.u.u.u.u.u.u.u.u.u.u.u.u.u.u.u.u.u.u.",
"u.u.u.u.u.u.u.u.u.u.u.u.u.u.u.u.u.u.u.u.u.u.u.= #.9 w i p g g ` x X.] [ G u.u.u.u.u.u.u.u.u.u.u.u.u.u.u.u.u.u.u.u.u.u.u.u.u.u.u.",
"u.u.u.u.u.u.u.u.u.u.u.u.u.u.u.u.u.u.u.u.u.u.u.u.Y s 7 i i i i g x W c W s u.u.u.u.u.u.u.u.u.u.u.u.u.u.u.u.u.u.u.u.u.u.u.u.u.u.u.",
"u.u.u.u.u.u.u.u.u.u.u.u.u.u.u.u.u.u.u.u.u.u.u.u.u.$ > < 7 7 i i i i i i i i   u.u.u.u.u.u.u.u.u.u.u.u.u.u.u.u.u.u.u.u.u.u.u.u.u.",
"u.u.u.u.u.u.u.u.u.u.u.u.u.u.u.u.u.u.u.u.u.u.u.u.u.4 s w 7 % # # # # - i i & u.u.u.u.u.u.u.u.u.u.u.u.u.u.u.u.u.u.u.u.u.u.u.u.u.u.",
"u.u.u.u.u.u.u.u.u.u.u.u.u.u.u.u.u.u.u.u.u.u.u.u.u.i g i 5 o u.u.  i 5 i - u.u.u.u.u.u.u.u.u.u.u.u.u.u.u.u.u.u.u.u.u.u.u.u.u.u.u.",
"u.u.u.u.u.u.u.u.u.u.u.u.u.u.u.u.u.u.u.u.u.u.u.u.= g i = u.u.u.= p i 9 + u.u.t l l g 0 u.u.u.u.u.u.u.u.u.u.u.u.u.u.u.u.u.u.u.u.u.",
"u.u.u.u.u.u.u.u.u.u.u.u.u.u.u.u.u.u.u.u.u.u.u.u.5 s 5 u.u.& = c s i *   & 1 / r.$.X.N 0 u.u.u.u.u.u.u.u.u.u.u.u.u.u.u.u.u.u.u.u.",
"u.u.u.u.u.u.u.u.u.u.u.u.u.u.u.u.u.u.u.u.u.u.u.  c i # u.i c g i i > 5 i s ^ r.8.$.$.( 7 u.u.u.u.u.u.u.u.u.u.u.u.u.u.u.u.u.u.u.u.",
"u.u.u.u.u.u.u.u.u.u.u.u.u.u.u.u.u.u.u.u.u.u.  I i # u.u.g r.i i i i i i i r.8.I i 8.r.l u.u.u.u.u.u.u.u.u.u.u.u.u.u.u.u.u.u.u.u.",
"u.u.u.u.u.u.u.u.u.u.u.u.u.u.u.u.u.u.u.u.u.u.& c 9 + u.u.u.I 5.r.| R R R ;.8.8.w.r.E O.s u.u.u.u.u.u.u.u.u.u.u.u.u.u.u.u.u.u.u.u.",
"u.u.u.u.u.u.u.u.u.u.u.u.u.u.u.u.u.u.u.u.u.u.i i > u.u.u.u.u.i T 0.q.q.q.9.8.8.8.8.( 9 6 u.u.u.u.u.u.u.u.u.u.u.u.u.u.u.u.u.u.u.u.",
"u.u.u.u.u.u.u.u.u.u.u.u.u.u.u.u.u.u.u.u.u.& s i + u.u.u.u.u.u.0 g g I @.,.8.8.:.@.q u.u.u.u.u.u.u.u.u.u.u.u.u.u.u.u.u.u.u.u.u.u.",
"u.u.u.u.u.u.u.u.u.u.u.u.u.u.u.u.u.u.u.u.@ 5 s > u.u.u.u.u.u.u.u.u.u.u.= = = = = = u.u.u.u.u.u.u.u.u.u.u.u.u.u.u.u.u.u.u.u.u.u.u.",
"u.u.u.u.u.u.u.u.u.u.u.u.u.u.u.u.u.u.u.u.= c i   u.u.u.u.u.u.u.u.u.u.u.u.u.u.u.u.u.u.u.u.u.u.u.u.u.u.u.u.u.u.u.u.u.u.u.u.u.u.u.u.",
"u.u.u.u.u.u.u.u.u.u.u.u.u.u.u.u.u.u.u.u.p s i i       X = ~  . .f u.u.u.u.u.u.u.u.u.u.u.u.u.u.u.u.u.u.u.u.u.u.u.u.u.u.u.u.u.u.u.",
"u.u.u.u.u.u.u.u.u.u.u.u.u.u.u.u.u.u.u.  j i i i c c c R t.0.q.O.6.g u.u.u.u.u.u.u.u.u.u.u.u.u.u.u.u.u.u.u.u.u.u.u.u.u.u.u.u.u.u.",
"u.u.u.u.u.u.u.u.u.u.u.u.u.u.u.u.u.u.u.  i i i i i i m | w.8.r.E O.8.f u.u.u.u.u.u.u.u.u.u.u.u.u.u.u.u.u.u.u.u.u.u.u.u.u.u.u.u.u.",
"u.u.u.u.u.u.u.u.u.u.u.u.u.u.u.u.u.u.u.# $.$.$.$.$.$.3.0.8.8.8.3.E 8.] u.u.u.u.u.u.u.u.u.u.u.u.u.u.u.u.u.u.u.u.u.u.u.u.u.u.u.u.u.",
"u.u.u.u.u.u.u.u.u.u.u.u.u.u.u.u.u.u.u.= 8.8.8.8.8.8.8.8.8.8.8.q.R X.I u.u.u.u.u.u.u.u.u.u.u.u.u.u.u.u.u.u.u.u.u.u.u.u.u.u.u.u.u.",
"u.u.u.u.u.u.u.u.u.u.u.u.u.u.u.u.u.u.u.u.= = = = = = = q T ` ` I q = u.u.u.u.u.u.u.u.u.u.u.u.u.u.u.u.u.u.u.u.u.u.u.u.u.u.u.u.u.u.",
"u.u.u.u.u.u.u.u.u.u.u.u.u.u.u.u.u.u.u.u.u.u.u.u.u.u.u.u.u.u.u.u.u.u.u.u.u.u.u.u.u.u.u.u.u.u.u.u.u.u.u.u.u.u.u.u.u.u.u.u.u.u.u.u.",
"u.u.u.u.u.u.u.u.u.u.u.u.u.u.u.u.u.u.u.u.u.u.u.u.u.u.u.u.u.u.u.u.u.u.u.u.u.u.u.u.u.u.u.u.u.u.u.u.u.u.u.u.u.u.u.u.u.u.u.u.u.u.u.u."
};
