/* XPM */
static char *cropped__12__removebg_preview__1_1694429355[] = {
/* columns rows colors chars-per-pixel */
"64 64 200 2 ",
"   c None",
".  c #092B0D",
"X  c #062612",
"o  c #0C2515",
"O  c #0C2A15",
"+  c #0E2619",
"@  c #0E2A19",
"#  c #062C11",
"$  c #112317",
"%  c #102917",
"&  c #12261A",
"*  c #19261D",
"=  c #12291B",
"-  c #18291E",
";  c #14341E",
":  c #153B1E",
">  c #162D20",
",  c #1D2D23",
"<  c #153521",
"1  c #1A3424",
"2  c #173C23",
"3  c #1B3C25",
"4  c #1D3D29",
"5  c #212F26",
"6  c #213D2B",
"7  c #29392F",
"8  c #26392B",
"9  c #2C3A31",
"0  c #323D35",
"q  c #353F38",
"w  c #194D1D",
"e  c #174B1E",
"r  c #195217",
"t  c #1B501E",
"y  c #1B4426",
"u  c #1B4B25",
"i  c #1E452A",
"p  c #1D4A2A",
"a  c #174A22",
"s  c #1D5324",
"d  c #1F4C30",
"f  c #22452C",
"g  c #214A2C",
"h  c #225425",
"j  c #245C23",
"k  c #23532B",
"l  c #2A562E",
"z  c #245C2B",
"x  c #224530",
"c  c #234B31",
"v  c #2A4932",
"b  c #284732",
"n  c #36443B",
"m  c #39433B",
"M  c #38493D",
"N  c #255332",
"B  c #2B5535",
"V  c #275A31",
"C  c #2B5D34",
"Z  c #34543E",
"A  c #385E3A",
"S  c #276122",
"D  c #2C6D26",
"F  c #27612C",
"G  c #2A632D",
"H  c #2E6D2C",
"J  c #306D25",
"K  c #316D2D",
"L  c #326629",
"P  c #2F7426",
"I  c #2F702B",
"U  c #32722C",
"Y  c #37792E",
"T  c #397B2D",
"R  c #35712A",
"E  c #2C6432",
"W  c #2F6B32",
"Q  c #356434",
"!  c #396634",
"~  c #326D32",
"^  c #396C35",
"/  c #35663A",
"(  c #3C653D",
")  c #346B3A",
"_  c #3B6A3A",
"`  c #2E7134",
"'  c #347232",
"]  c #3B7436",
"[  c #3C7C34",
"{  c #3B723B",
"}  c #3E7E39",
"|  c #347537",
" . c #416C3F",
".. c #417A37",
"X. c #427D3B",
"o. c #42713A",
"O. c #3E4F44",
"+. c #3D4741",
"@. c #3F5B49",
"#. c #3F6341",
"$. c #3E6A40",
"%. c #424C45",
"&. c #445447",
"*. c #435F44",
"=. c #4A594E",
"-. c #535C56",
";. c #4D5953",
":. c #446444",
">. c #436C43",
",. c #4A644B",
"<. c #476B48",
"1. c #4B6C4B",
"2. c #486747",
"3. c #4B7247",
"4. c #447A42",
"5. c #4E734D",
"6. c #4E7C4C",
"7. c #457441",
"8. c #52734F",
"9. c #537E4E",
"0. c #546F56",
"q. c #5A655F",
"w. c #566B58",
"e. c #4F7852",
"r. c #537552",
"t. c #5B765B",
"y. c #5D7D5D",
"u. c #577B56",
"i. c #5D6360",
"p. c #5F7B61",
"a. c #646C67",
"s. c #637A62",
"d. c #6E7F74",
"f. c #3E8034",
"g. c #3F8238",
"h. c #428335",
"j. c #44843C",
"k. c #49803F",
"l. c #478A3C",
"z. c #4B8D3F",
"x. c #4F943D",
"c. c #4A9137",
"v. c #52953E",
"b. c #52983F",
"n. c #468443",
"m. c #4B8543",
"M. c #4C8C43",
"N. c #4F8E49",
"B. c #4B8646",
"V. c #528E46",
"C. c #53844D",
"Z. c #538D4A",
"A. c #4E9343",
"S. c #4F914A",
"D. c #539543",
"F. c #549943",
"G. c #589945",
"H. c #54944A",
"J. c #58954B",
"K. c #55994B",
"L. c #59994B",
"P. c #558254",
"I. c #568B52",
"U. c #598A52",
"Y. c #578359",
"T. c #5A8159",
"R. c #5A9254",
"E. c #5B9952",
"W. c #579352",
"Q. c #648D5E",
"!. c #5E8061",
"~. c #6B8A6B",
"^. c #668764",
"/. c #6A9669",
"(. c #71956C",
"). c #73996F",
"_. c #798D7A",
"`. c #789778",
"'. c #7DA37B",
"]. c #7FAA7C",
"[. c #75A675",
"{. c #839D7F",
"}. c #7D9D80",
"|. c #859B86",
" X c #849386",
".X c #8AA789",
"XX c #8CB28D",
"oX c #91A693",
"OX c #95B796",
"+X c #9EB6A1",
"@X c #ABBEB1",
"#X c #A8C7A7",
"$X c #B2D2AF",
"%X c #B7D9B8",
"&X c #C2D2C2",
"*X c #C0E2C0",
"=X c #D2F9CF",
"-X c #D7FBD4",
";X c #E1FBDE",
":X c #E8F3E8",
/* pixels */
"                                                                                                                                ",
"                                                                                                                                ",
"                                                                                                                                ",
"                                                                                                                                ",
"                                                                                                                                ",
"                                                                          1.2.1.t.                                              ",
"                                                                          ! A  .r.                                              ",
"                                                                      3.6.U.U.! _ <.0.                                          ",
"                                                                      ! X.Z.Z.L ~  .:.                                          ",
"                                0.3.8.8.5.5.5.r.5.5.r.5.r.5.5.3.8.8.C.V.H.D.N.K ^ _ :.            {.8.r.r.r.t.r.w. X            ",
"                              $X .! L ! ^ ^ K ~ ^ ~ ~ ^ ~ { _ ^ o.L ..E.H.A.M.U G _ $.            ).! ! ! ^ / 1.*._.            ",
"                      +Xu.8.8.9.Z.Z.J.Z.N.N.Z.V.Z.N.Z.N.[ K X.H.V.V.V.J.D.K.z.D K ~ Q T.u.    (.9.C.U.R.R.4.) /.*X              ",
"                      OX( _ ^ ..J.J.G.D.D.G.J.D.D.D.K.H.T J h.H.D.G.D.H.D.K.M.H J ~ ^ !  .    Q.! m.H.Z.H.X.| [.                ",
"          |.^.s.!.u.Y.Y.I.C.V.V.G.G.v.D.G.v.v.D.D.D.D.F.v.V.D.D.D.x.F.D.l.U Y I R ^ ! ~ _ I.B.C.Z.J.J.H.K.g.H $.Y.}.            ",
"          ~.#.( ( $.) 4.E.A.G.x.v.v.v.v.v.v.G.v.x.F.F.D.v.v.v.V.F.x.J.J.N.I ' K | K L ~ G K { m.H.D.K.H.A.g.' ~ _ `.            ",
"      _.s.1.>.XX%X/.Q | Y g.A.x.v.v.v.v.G.v.v.D.G.D.D.D.D.D.D.G.D.G.l.U ' I H W ~ K ~ Z.H.l.N.H.H.f.Y P f.U H ~ / $.p.|.        ",
"    :Xs.*.,.:.#X  {.' K U f.A.F.b.A.D.v.b.b.v.F.v.G.D.D.J.V.D.D.F.v.j.U H ~ | W ~ W I H.H.H.D.H.H.[ P H I ` H ~ ~ _ _ y.        ",
"      s.:.OX#X    {.Y ..l.c.x.b.F.b.b.v.v.b.F.v.F.D.[ Y T T z.H.j.[ U H H W W ~ W ' H M.H.K.A.f.[ I H H W W H W | K ) 6.~._.    ",
"    :Xt.2.$X-X-X=X{.! ..D.F.F.b.b.b.x.b.v.F.v.D.D.H.Y U J J z.Z.X.U H ' ' ~ W ~ H ' I S.K.H.A.Y I H I W W ~ ~ H K D ~ ~ #.r.    ",
"      &X#X'./.^./.U.z.V.G.D.x.x.b.b.b.b.v.v.F.D.f.} D I K D ' [ ' K H W ~ W H H H I I H.H.g.[ U H I ' W W ) ~ ' ' ' ' G ) e.    ",
"      ;X-XQ.! ^ L m.V.D.v.v.b.b.b.x.b.b.v.v.D.H.P I H I W H H U K ~ ~ W W ` U I I I I S.M.I I H H H W W ~ ) H W H ` ` ` { 6.    ",
"      {.(.o.o...m.V.G.D.b.G.G.c.b.b.x.b.D.F.D.H.| H ` I ` ' H ~ H K ~ W W H H I D D P [ } ` W ` ` H W ) | E s S | I ` ` W ) [.`.",
"      s.o.! R j.H.F.b.x.c.x.v.G.b.v.F.x.D.D.D.H.Y H H W H H H ' ' U U U I H H I D I I D H H W W K ~ ' W E z a s ~ ~ | ` ` ) Q >.",
"      r.! X.j.D.F.v.b.b.b.b.v.D.F.v.D.F.A.H.H.H.` I H I I H h.j.j.l.n.j.l.n.l.j.j.M.j.I H ' W ' H ~ ~ F z s s z W ) W | W $./ $.",
"      T.K m.J.D.D.b.F.b.x.x.F.D.G.D.H.H.D.H.H.H.U I I I I P } H.D.D.D.D.D.H.D.H.J.D.Z.J ~ _ W ) W W ` F s a u k / ) { W ) ) / 1.",
"      9.] Z.H.D.D.A.b.b.F.F.D.M.[ T [ [ [ [ f.f.I H D I [ j.A.D.G.F.v.F.F.D.D.F.D.V.H.S S s s / | ) ) s a u h g N z k V C #.    ",
"      9.K M.L.A.A.F.A.A.x.D.D.m.U U J U D D U P I P D P h.H.D.V.v.v.v.v.v.v.v.v.v.J.H.r r a u E / ) ) s s u p u u p u u a @.    ",
"  .X{.7.K n.K.H.F.K.A.l.[ f.X.[ K K D P P J j.j.f.l.h.h.D.D.G.v.v.v.x.b.F.F.F.D.J.J.W.r e s a N V / $.V u a u g f g p p c B @X  ",
"  2.:.~ K V.H.S.S.K.S.g.I D H H H H K J U P V.H.A.D.D.D.D.D.x.D.D.b.x.D.D.z.D.H.H.W.I.t a u u p u C ) V u p p g g i c i p c i Z ",
"  r._ K K } j.k.j.g.g.Y I H H H H ~ H U h.h.D.D.D.G.D.D.D.x.x.v.v.D.D.D.M.h.} X.X.~ ^ u u u p g p d C p u p p g c c p d i c f v ",
"  5./ Q U U D U H H H H H ` ' W H H U ' D.D.J.v.F.D.v.v.v.F.v.F.v.D.D.H.n.' H ~ E s e a u g g g g u p p p p p p c p y N p i Z Z ",
"  1._ ^ ~ H H K W W W ' H H H H I ' h.h.L.F.D.F.v.F.v.x.v.F.F.v.G.D.z.n.' z z V V u a k y i g f g u g p p p y g p p c d c Z     ",
"  1.( ^ ~ I I ' H W ~ ~ ` H I P U R H.D.D.J.D.F.x.x.b.v.G.G.D.J.H.H.m.K Q u e g p p u p p u d p p p p p y h i u g c p c x @.    ",
"  &X.X3.) W W ' W ~ H K H | g.j.h.h.D.G.V.D.v.v.b.b.F.x.V.x.l.h.j.X.] z k u a p y u p g p p p d p p p p g g u i p c i x 1 M     ",
"      T.^ ^ ~ K ` K ~ K K } H.S.D.A.b.G.v.G.b.v.F.x.D.D.F.D.h.K K ~ G t p a c p p f g u p p p p p p p g g u p u p N c x @ 7     ",
"      r./ _ G | ~ H ~ ~ J [ H.D.D.F.v.v...h.l.h.A.D.D.H.l.j.' H G z k u u p c p g u g f p g i p p p u p g f f g c i 2 < o 0     ",
"      y.>./ ~ ~ ~ H K ~ H } H.H.A.K.A.A.R J J J H.H.E.N.} W H ~ z s u u p p d p i u g f g g i i g p p f g f f g c : @ & $ m     ",
"      y.( / { H ' W ~ ' ~ ] k.j.j.l.j.k.K K S S ' ] n.n.| W E E d u p p d p p p g g g 3 : : 2 g c p p g g g f f ; y @ 1 d.      ",
"      p.:./ $.) | W W ~ ~ H ' K U K H W Q ^ t w w s C ) ) ) z u s d d p d i d d g g y O o O o 4 i p p i f g f 3 O ; o O.        ",
"      oX`.#.h E / E z G G z V V z z G V C B e : a a C C V C V a y d d i d i d i i f : O o O + 1 3 i g i g g f 3 O O o &.        ",
"          *.. l _ V u w u u a h a u p p p g X # y y g u a g u g d d d x g f f g f # O O o & o + O 2 v f f f f 1 O & & O.        ",
"          ,.% : g g g g g g i p p p d x 2 4 O O 3 3 f f p p i 2 2 2 4 x g g f : 3 O @ + + + o > ; f f f 4 4 4 4 + = , %.        ",
"          &.% % O : g i f p c c p i c i @ ; X @ X # 3 g g f ; . X O < i f f y O @ X + + + + & 8 x b f ; O o o o & * *           ",
"          =.% % O < 4 i f c x x 3 3 4 1 X @ X O ; ; f f f f : ; @ o ; 4 6 6 3 O @ o + + > + + 5 6 8 4 ; @ O & & & 8 i.          ",
"          -.- - & O O < i b x 3 = O @ & + + o @ 6 x f g f x b x 2 o o O o # % o @ + + + > + X & o o o o o @ & & - q.            ",
"            q.7 & & @ < 4 i 4 3 O o o & + @ @ o 4 x 6 4 4 4 4 4 1 @ + = o o % = @ + + + + & $ o % % O & & & & $ * -.            ",
"              a.$ $ = & o X o O O & + & & @ + o x x ; O o o + @ + + + @ % o % o + & + + + > & o O $ & & & + & * *               ",
"              i.* & % o & + % % o & & & > + + @ 4 6 @ o = o + + & + o + $ % $ & & & & = + + > o $ @ & & + + * 5 +.              ",
"              -.* $ $ * $ o O $ + & & & & + + o & + + & + + + + + @ + + @ + & o o > + + = & $ = & = $ & & * *                   ",
"                q 9 $ $ = & - @ & & & & & & & & & + & + & @ + = @ + @ + + + + + > o = = o = o & % - & 7 m M                     ",
"                  a.* * - & & @ & & @ & @ + & @ & @ @ & & & & & + & + & & & & & + & + & * & & & & = *                           ",
"                    q 0 9 7 + > + + + @ + & o & o & + + o + @ + + & & & + & & & & 1 * & * 9 n n q 0 q                           ",
"                            * & = & * & & & = & & = & & = * & & & & & * & & * & $ $ * $ *                                       ",
"                            9 0 9 9 9 7 9 9 9 9 9 9 9 9 9 7 9 9 9 9 9 9 9 9 9 9 9 0 0 0 q                                       ",
"                                                                                                                                ",
"                                                                                                                                ",
"                                                                                                                                ",
"                                                                                                                                ",
"                                                                                                                                ",
"                                                                                                                                ",
"                                                                                                                                ",
"                                                                                                                                ",
"                                                                                                                                ",
"                                                                                                                                "
};
