/* XPM */
static char *Coin1694438270[] = {
/* columns rows colors chars-per-pixel */
"64 64 147 2 ",
"   c None",
".  c #BC6B27",
"X  c #BC7329",
"o  c #C26D27",
"O  c #C4742A",
"+  c #C9772C",
"@  c #C67A2C",
"#  c #CB7D2D",
"$  c #D5870C",
"%  c #D3890C",
"&  c #D38C15",
"*  c #D98F14",
"=  c #D48D1A",
"-  c #DA8D1B",
";  c #D3921C",
":  c #DD931C",
">  c #E09519",
",  c #E0981F",
"<  c #CC812F",
"1  c #D99524",
"2  c #DC9A23",
"3  c #D59829",
"4  c #DB9B2E",
"5  c #CE8430",
"6  c #CF8A31",
"7  c #D18531",
"8  c #D38B32",
"9  c #D69235",
"0  c #DA9536",
"q  c #D99D35",
"w  c #DD9638",
"e  c #DD9E39",
"r  c #E09620",
"t  c #E19C24",
"y  c #E49E2A",
"u  c #EC9736",
"i  c #E29E3B",
"p  c #EF9E38",
"a  c #F29E3A",
"s  c #DEA139",
"d  c #D9A93C",
"f  c #E4A12D",
"g  c #E8A02E",
"h  c #E6A433",
"j  c #EAA534",
"k  c #E7AC36",
"l  c #E3A43B",
"z  c #ECA43B",
"x  c #E5AB3D",
"c  c #ECAB3B",
"v  c #F3A43B",
"b  c #F4AD3D",
"n  c #F8AD3E",
"m  c #E6B23D",
"M  c #EEB43F",
"N  c #F5B13E",
"B  c #F9B23F",
"V  c #F2B83F",
"C  c #F4E527",
"Z  c #F3E32B",
"A  c #EFE432",
"S  c #F2E435",
"D  c #F6EA35",
"F  c #F9EA36",
"G  c #F3E53A",
"H  c #F8E538",
"J  c #F6ED3B",
"K  c #F9EC3C",
"L  c #F6F03F",
"P  c #DDAE54",
"I  c #DDB458",
"U  c #DEB85F",
"Y  c #E6AF40",
"T  c #ECAC41",
"R  c #EDB640",
"E  c #EEBC41",
"W  c #F3B641",
"Q  c #F1BD42",
"!  c #E1AB50",
"~  c #E1B25D",
"^  c #DDB362",
"/  c #DFB863",
"(  c #E5B664",
")  c #E2B863",
"_  c #E3BC6C",
"`  c #E6BF75",
"'  c #EEC343",
"]  c #F4C344",
"[  c #F9C645",
"{  c #F2CC47",
"}  c #F9C946",
"|  c #F4CE48",
" . c #FDCD49",
".. c #F6D047",
"X. c #F5D349",
"o. c #FCD34A",
"O. c #F5DC4C",
"+. c #F0E747",
"@. c #F8E546",
"#. c #F4E943",
"$. c #FAEF42",
"%. c #F5E24D",
"&. c #FAE54F",
"*. c #F6EA4E",
"=. c #F9EB4F",
"-. c #FBF343",
";. c #FDF44B",
":. c #FCF94F",
">. c #F4EC51",
",. c #FBED51",
"<. c #F5F250",
"1. c #FBF352",
"2. c #FEFA53",
"3. c #E7C372",
"4. c #EAC177",
"5. c #E3C27C",
"6. c #E8C579",
"7. c #F5E965",
"8. c #F6ED6C",
"9. c #F6EC72",
"0. c #F8ED73",
"q. c #F4EF78",
"w. c #F8EE7F",
"e. c #F9F177",
"r. c #F6F27E",
"t. c #F8F27E",
"y. c #E5C580",
"u. c #E3CF8F",
"i. c #E8CE8D",
"p. c #E8D387",
"a. c #EDD691",
"s. c #E7D699",
"d. c #EBD69A",
"f. c #F0DA99",
"g. c #FAEF82",
"h. c #F5EF8E",
"j. c #F7F283",
"k. c #FAF38D",
"l. c #F8F494",
"z. c #F7F49A",
"x. c #F8F59D",
"c. c #EDDBA2",
"v. c #EFDFAA",
"b. c #F5F6A4",
"n. c #F8F7A9",
"m. c #FBF4B0",
"M. c #FAF9B0",
/* pixels */
"                                                                                                                                ",
"                                                                                                                                ",
"                                                                                                                                ",
"                                                                                                                                ",
"                                                                                                                                ",
"                                                                                                                                ",
"                                                                                                                                ",
"                                                                                                                                ",
"                                                                                                                                ",
"                                                                                                                                ",
"                                                                                                                                ",
"                                                                                                                                ",
"                                                                                                                                ",
"                                                                                                                                ",
"                                                                                                                                ",
"                                                                                                                                ",
"                                                        b.k.e.0.) ) p.s.                                                        ",
"                                                    j.>.#.H -.K t 1 ; 3 d 3.                                                    ",
"                                                8.G D ;.:.=.,.%.s e x j f : 1 )                                                 ",
"                                            z.G H ;.,.O.] T B b < @ < 8 w x k : 1 u.                                            ",
"                                          j.Z $.1.o.R v v v T v < @ @ @ @ 5 w c f $ 5.                                          ",
"                                        j.Z 1.,.W v v v b b B v @ < < 5 5 @ + < x j & 3.                                        ",
"                                      l.C 2.,.c a n b b b b n W 5 @ < < 5 < 5 O 5 l j $ i.                                      ",
"                                      S $.,.T z T b b b b n v o.x O < 5 < < 5 5 @ # l y =                                       ",
"                                    0.F 1.W a b b b b T b v N ,.{ @ @ < < < < < < @ 6 T : I                                     ",
"                                    S :.O.z b b b b b n b a X.1.} e O < < < < < 5 < @ 0 k ;                                     ",
"                                  q.F ,.M v b b b b B B v b 1.,.] W < + 5 5 < < < < @ < x - )                                   ",
"                                  @.;.X.z b N B n v v z u | 2.=.E [ s . + @ @ < < 5 5 @ 0 y q                                   ",
"                                m.G :.Q a b b v b N V Q { >.1.&.E Q ] s 9 8 5 < @ < 5 @ 8 k 1 c.                                ",
"                                g.J >.b v b v X.<.=.<.1.1.,.<.&.E R ] ] ] ] E ' x # # # < l : 6.                                ",
"                                9.J %.c b b v ] 2.1.,.=.=.=.1.&.E E ] Q ] E }  .9 @ 5 # @ s t (                                 ",
"                                9.$.%.v b b B a W 1.1.,.=.=.:.*.E E E Q E } } 8 X # # 5 # e y ~                                 ",
"                                0.L O.b b b b N z V ,.1.=.=.1.*.E R ' E ] } 8 O < < < # @ s y ~                                 ",
"                                0.J %.v b b B B b p Q =.=.=.<.*.Q E E E ] 9 o # < # < < # s t (                                 ",
"                                t.J >.b v B B b b n z %.1.=.1.*.E E Q } m + # < < < 5 # < l : 6.                                ",
"                                b.J 1.' a N b B b b b %.1.<.1.=.E R E ] m # # # # < < + 6 x : f.                                ",
"                                  @.;.| p b T b B b N *.<.<.:.=.' V V ] Q 7 + # < # < + 0 g q                                   ",
"                                  9.H ,.R v B n b v W ;.=.=.2.%.E [ ' E [ 8 + < # < # < x , ^                                   ",
"                                  M.S :.X.v b b b v E 1.2.1.X.c < s ] | } 0 + < < # @ 0 c - v.                                  ",
"                                    8.F 1.M v B B v X.2.O.M v v @ . 6 x o.l O # # + 5 x : !                                     ",
"                                      A ;.>.c v b b ] ' z a B b # + + X 0 w @ # + # i j &                                       ",
"                                      k.C :.O.v v B b p v b B b < + < < + # 5 + # l x % y.                                      ",
"                                        q.Z :.,.b a v n b N N b < + # < # # @ 5 l x * U                                         ",
"                                          w.C ;.1.| M v v v n v # + # + @ # 9 c h % )                                           ",
"                                            k.S K :.,.X.W b b c # + # 5 0 z c , = 5.                                            ",
"                                                7.G K ;.1.&.=.O.i q l z j 2 1 P                                                 ",
"                                                  z.8.+.S J -.-.f 2 1 ; 4 U d.                                                  ",
"                                                        x.w.q.8.I I ` a.                                                        ",
"                                                                                                                                ",
"                                                                                                                                ",
"                                                                                                                                ",
"                                                                                                                                ",
"                                                                                                                                ",
"                                                                                                                                ",
"                                                                                                                                ",
"                                                                                                                                ",
"                                                                                                                                ",
"                                                                                                                                ",
"                                                                                                                                ",
"                                                                                                                                ",
"                                                                                                                                ",
"                                                                                                                                ",
"                                                                                                                                ",
"                                                                                                                                "
};
