/* XPM */
static char *Game_Boy_GBC___Looney_Tunes___Elmer_Fudd1694683903[] = {
/* columns rows colors chars-per-pixel */
"64 64 6 1 ",
"  c None",
". c black",
"X c #F83800",
"o c #C08800",
"O c #F8E8D8",
"+ c #F8F8F8",
/* pixels */
"                                                                ",
"                                                                ",
"                                                                ",
"                                                                ",
"                              ..                                ",
"                           ...Xo...                             ",
"                          .XX.....o.                            ",
"                          ...ooooo..                            ",
"                         ...oooooooo.                           ",
"                       ..XXX.ooooooo.                           ",
"                      .XXXXX.ooooooo.                           ",
"                     .XXXXXX.oooooo.                            ",
"                     .XXXXX.ooooooo.                            ",
"                      .XXXX.oooooo.                             ",
"                      .XXX.oooooooo.                            ",
"                      .XXX.ooooo.....                           ",
"                     .XXXX.oo...ooooo..                         ",
"                     .Xoo.oo.oooooo..oo.                        ",
"                    .ooo..ooooo....o...o.                       ",
"                    .o..OO.....oOOOOo...                        ",
"                    ..oOOOOO..OOOOO.O.                          ",
"                     .OOOOO.oO.oOO.OO.                          ",
"                     .oOOOOOO.+.O.+.o.                          ",
"                      .OOOOO.++.O.+..                           ",
"                      .oOOOO.+..O....                           ",
"                       ..oOO.+..O...                            ",
"                      .oO.OOO..oOOo..                           ",
"                      .O.OOOOOO.OOo.o.                          ",
"                       .O.OOOO.O...Oo.                          ",
"                        ..oOO.O...Oo.                           ",
"                         ...oOOOOo..         ..                 ",
"                        .ooo.........       .oO.                ",
"                        .ooooo....oO............                ",
"                       .o..o...OOO..OOOOOOOOOOO.                ",
"                      .ooo....OOo.OO.oooooooooo.                ",
"                    ..ooo..OO....OOOO...........                ",
"                  ....o..o.OOOOo.oOOO.o.                        ",
"                  ...oooo.OOOOo.o.oOo.o.                        ",
"                   ..oooo.oOOO.oo....oo.                        ",
"                   ..oooo..oOo..oo.ooo.                         ",
"                    ..ooo.o...oo......                          ",
"                    ........ooooooo...                          ",
"                      .ooooooooooooooo.                         ",
"                     .ooooooo...ooooooo.                        ",
"                     .ooooo..   .oooooo.                        ",
"                      ...o.      .o....                         ",
"                    .......       ........                      ",
"                   .........     ..........                     ",
"                   ..... ...     ... ......                     ",
"                                                                ",
"                                                                ",
"                                                                ",
"                                                                ",
"                                                                ",
"                                                                ",
"                                                                ",
"                                                                ",
"                                                                ",
"                                                                ",
"                                                                ",
"                                                                ",
"                                                                ",
"                                                                ",
"                                                                "
};
