/* XPM */
static char *Gate1694436460[] = {
/* columns rows colors chars-per-pixel */
"64 64 235 2 ",
"   c None",
".  c #05050B",
"X  c #08070B",
"o  c #0E0D13",
"O  c #0E0F18",
"+  c #100F15",
"@  c #110F19",
"#  c #111117",
"$  c #15141A",
"%  c #18171D",
"&  c #19181F",
"*  c #17181E",
"=  c #3C1E14",
"-  c #33160D",
";  c #3D2119",
":  c #1C1B23",
">  c #181B2A",
",  c #131A2E",
"<  c #201F26",
"1  c #201F2A",
"2  c #1C2438",
"3  c #1E2028",
"4  c #212027",
"5  c #23222A",
"6  c #28272E",
"7  c #2B2B34",
"8  c #242B3D",
"9  c #282937",
"0  c #35333B",
"q  c #322F34",
"w  c #451D0C",
"e  c #472419",
"r  c #552B1A",
"t  c #5A2E15",
"y  c #693519",
"u  c #753A19",
"i  c #632E17",
"p  c #583225",
"a  c #50352F",
"s  c #6C3D25",
"d  c #663B27",
"f  c #743E26",
"g  c #75432B",
"h  c #7B442C",
"j  c #7A4527",
"k  c #664539",
"l  c #7A4D37",
"z  c #7E5138",
"x  c #6D412B",
"c  c #6A412F",
"v  c #262E42",
"b  c #2A3244",
"n  c #2B3449",
"m  c #343443",
"M  c #3B3B44",
"N  c #3B3C4C",
"B  c #373846",
"V  c #373B53",
"C  c #2E3752",
"Z  c #453D49",
"A  c #523E45",
"S  c #3E4358",
"D  c #3C4447",
"F  c #3C4A69",
"G  c #3D5479",
"H  c #3C4F71",
"J  c #43434C",
"K  c #48464B",
"L  c #564749",
"P  c #444353",
"I  c #494654",
"U  c #4B4C52",
"Y  c #45495B",
"T  c #4B4B5B",
"R  c #464659",
"E  c #534D5C",
"W  c #584B53",
"Q  c #57535C",
"!  c #4C5256",
"~  c #684D46",
"^  c #795649",
"/  c #675658",
"(  c #765B55",
")  c #6F5148",
"_  c #7C615B",
"`  c #77615C",
"'  c #444B63",
"]  c #4B4E63",
"[  c #434F6C",
"{  c #4C546B",
"}  c #4D5164",
"|  c #535364",
" . c #5A5A65",
".. c #53566B",
"X. c #55586C",
"o. c #5B5B6B",
"O. c #5A5664",
"+. c #495877",
"@. c #555B73",
"#. c #5B5E73",
"$. c #575E79",
"%. c #4C4F66",
"&. c #655D69",
"*. c #675E6B",
"=. c #5E6669",
"-. c #5C627A",
";. c #5D6075",
":. c #66646D",
">. c #786566",
",. c #636374",
"<. c #656C72",
"1. c #6C6C7B",
"2. c #686776",
"3. c #746C77",
"4. c #6C7578",
"5. c #717176",
"6. c #73737A",
"7. c #74797D",
"8. c #89471F",
"9. c #834B2C",
"0. c #854A28",
"q. c #96542B",
"w. c #834E34",
"e. c #8B5434",
"r. c #83533A",
"t. c #8D593C",
"y. c #875539",
"u. c #935B3B",
"i. c #9B5E3B",
"p. c #955834",
"a. c #91502A",
"s. c #A65D31",
"d. c #9A613F",
"f. c #A6633A",
"g. c #B76C3B",
"h. c #BC713F",
"j. c #C3723C",
"k. c #D17535",
"l. c #865B47",
"z. c #935E42",
"x. c #995F43",
"c. c #825F54",
"v. c #9B6344",
"b. c #99664A",
"n. c #876455",
"m. c #986A55",
"M. c #8F6552",
"N. c #A16644",
"B. c #AC6B44",
"V. c #A56C4B",
"C. c #AB6E49",
"Z. c #A56845",
"A. c #B36D43",
"S. c #B56F4A",
"D. c #AD714C",
"F. c #BB7345",
"G. c #B4734C",
"H. c #BA754C",
"J. c #BD784E",
"K. c #B57145",
"L. c #AA7357",
"P. c #B47652",
"I. c #BC7B54",
"U. c #B87A55",
"Y. c #876B64",
"T. c #90746E",
"R. c #C47A4C",
"E. c #C67948",
"W. c #C27D54",
"Q. c #C17E59",
"!. c #CE7F50",
"~. c #CB8254",
"^. c #C4815B",
"/. c #CA845C",
"(. c #C88258",
"). c #D68859",
"_. c #D08049",
"`. c #CB8761",
"'. c #D28B63",
"]. c #DE9265",
"[. c #B48772",
"{. c #495E83",
"}. c #4B6286",
"|. c #576889",
" X c #5F779F",
".X c #646C86",
"XX c #66718C",
"oX c #7C7C84",
"OX c #757884",
"+X c #667495",
"@X c #6079A6",
"#X c #8E7D85",
"$X c #7A8285",
"%X c #7B878A",
"&X c #7F8792",
"*X c #84838C",
"=X c #838A8E",
"-X c #888D95",
";X c #8B959A",
":X c #8D9A9D",
">X c #859294",
",X c #91989D",
"<X c #8F9DA1",
"1X c #929FA2",
"2X c #9796A1",
"3X c #8D8DA2",
"4X c #94A2A5",
"5X c #99A4A6",
"6X c #9BA6AA",
"7X c #9DAAAD",
"8X c #97A5A9",
"9X c #9FADB0",
"0X c #A1AAAC",
"qX c #A2AEB1",
"wX c #A7A7B4",
"eX c #A5B2B5",
"rX c #AAB4B6",
"tX c #AAB6B9",
"yX c #ACBABD",
"uX c #A7B6B8",
"iX c #B2BBBE",
"pX c #B2BEC1",
"aX c #B8BFC2",
"sX c #AFBEC1",
"dX c #B5C2C4",
"fX c #B9C2C5",
"gX c #BDCACC",
"hX c #BAC6C9",
"jX c #C2CACD",
"kX c #C1CED1",
"lX c #C9D5D8",
"zX c #D2DBDE",
"xX c #D0DEE0",
"cX c #D9E4E7",
"vX c #EDF5F8",
/* pixels */
"                                                                                                                                ",
"                                                                          iXiX                                                  ",
"                                                                iXrX7.&XkXpXrXhXiXtXfX>X5X                                      ",
"                                                            0XeX8X8XuX:XtXzXjXcXcXcX8X7.4XrX                                    ",
"                                                        gX;X7.tX4X-X1XkXqX7X8XqXdXiX0XdXkX,X4.iXiX                              ",
"                                                  1X$XdXcXcX$X4XtX1X<XpXlXuXqXyX5XuXdXqXlX>X:XgXtXqXtX                          ",
"                                                pX>X;X8XuXeX<.;XgXsXsXkXhX$X5.6XdXgXkXzXlX$XtXsXtXpXqXeXiX                      ",
"  wXoXP | oX                                rXD 4.9XeX7X1X9X9X:XkXpX=X! q 5 6 5 0 5.0XcX0X;XgX7X1X1XeX7XJ $XjX                  ",
"3X%.@.Z m m V &.,X                      aX7XdX>XJ 9X&X%X4XgXlX<.I 7 5 7 T <.,.E 0 : : m N 6XzX7X%X$XdX4.! xXuX7X                ",
"3X@.1.P Z ;.+.V B O.;X                yX6XuXuXlX&X%XuX:XdX7XK @ 5 Q 6.1. .M m O.o.3.{ 2 # 9 $XkXsX9X7X4.xXvXlX>X,X              ",
"3Xo.,.] I l.Y.2.|.%.N o.            iX4X6X<X5XsXsX%XuXdX=.% > o.6.,.N 4 * + 5 Y L d ~ 3.@.n @ 0 8XxX7.4.yXuX9XsXyX5X            ",
"-X| ,.@.E f j.C.Y.OXXX' N #X        eX7X7X7X&X%X7XgXOX6 $ E 6.T 7 5 : : : * 7 Y U = u p.( T.@.9 * U 5XlXgX%X>XgXgX9XuX          ",
"-X] 2.%.Z f D.E.j.y.( oX|.V  .    qX%X%X4XdXtX:X9X7.o 7 1. .7 $ % 5 5 : : $ 5 -.Q e f 0.0.f.( 1.S O D zXgX&X8X<X9XiXtX          ",
"-XT ,.X.T f P./ m.e.q.P.3.XX' E   Q <.kXdXeXkXlX<.X R 6.M $ : : 5 : : : : O 5 ;./ e y (  Xl q.D.<.-.3 q 4.9X<X:XyXyXK <.        ",
"*X' 2.{ Z 9.S. XT.a.t.!.a.( oX}.N 7.=.7.hXdXgX<.o E 2.5 # 1 : : : : : : * o 5 ;.O.e y Y.3X) q.E.B./ +.5 7 eXyXyX8XQ 7.yXjX      ",
"*XZ ,.$.T f H.m.U.t.t.(.d.s.v.,.+. .qX<.<.gX4.. T ,.: % 5 5 : : : % % $ $ o 5 { O.e s W.B.e.z.I.F.j W -.6 q yX6X! =.yXhX=XqX    ",
"#X' #.,.%.f W.R.W.t.z.I.D.I.0.y oXF 2.lX>XU X P ,.: % 4 : : : * & % % $ # X : |.&.e d /./.z.z.I.P.x q.>.{ : 5 6.9XeX%X<.:XeX    ",
"#XV ,.@.R h Q.I.Q.t.z.I.P.W.w.s F.2.C ;XxX$ 9 2.5 % 5 < : : : * $ $ # # # X < ,.*.e y Q.Q.x.x.Q.P.d d.h.=.} . 4.gX7XuXdXdX9XhX  ",
"OXN ,.$.] f W.I.Q.z.x.Q.P.W.w.d E.B.X.-. .: o.0 % 4 < : : % % $ $ $ # # + X < #.,.e s /.^.z.x.Q.P.x u.E.d.} 0 0 dX4X&X;XqXuXrX  ",
"OXN ,.$.I h Q.I.Q.z.z.^.U.W.w.d H.g.^ { 3 D T : 5 4 : % % $ $ $ $ # # + + X < @.&.r d /.^.v.N.Q.D.x Z.(.p.A [ 4 %XsX<X<X:X9XqX  ",
"OXV o.@.R f W.Q.^.z.z.(.G.(.y.x ^.B.9.Q Y Q 7 : 4 : : : % $ $ $ # # # # + . & $.o.e f Q.Q.N.b.Q.I.i w.R.f.d Q 9 U dX8X1X8XuXqX  ",
"3.Z #..X| f Q.Q.`.t.l.(.P.~.j p E.D.q.` [ N : 3 4 : : % $ $ $ # # # + # X . % 2.,.e f `.Q.N.x.U.P.a P :.w.8._ C 6 4XsX5XeXsXuX  ",
"6.Z ,.@.E h Q.Q.`.t.y.`.(.z.I ] n.A.i.n.[ 0 : 5 4 & % % $ $ # # # + + o + . : $.,.e f '.I.b.x.S.M.@.o.[ ' 9.N.R : <.kXeX7XyXyX  ",
"6.B ,.$.T h Q.Q./.t.r.'.J.Q +.' G ^ q.m.{ B : : : : % % $ $ # # + o o o X . : ..o.; f '.Q.N.x.S.m.+.M.r.[ >.g./ 2 7 7XeX8X,X0X  ",
"6.B ,...Z l Q.Q.'.y.l '.R.:.N y / [ y.V.| N : : : : % % # # # + + o o o X . # ,.#.w f '.!.B.p.S.E.k I.k.^ @.F.l.C X U &X%X4.0X  ",
"6.B #.$.E f Q.Q.'.p.f '.~.^.~ q.j.' Y.F.| N 1 : : : % $ # # # + + o o o o . $ ,.o.= 9.Q.T.( l.c.M.k M.m.l.X.>.W B . %XlXsXdXrX  ",
"6.m &.$.E f Q./.L./ k L.M.m.( ) m.Q :._ ] M < : : % % # # # + + + + o o X . : @.O.e f OX{.+.{.{.{.XX{.}.|.OXF +.M o =XlXkXuX9X  ",
"5.m ,.$.T h !.m.{.}.{.G |.}.XXXX|.OX{ F ,.m : : : : % # # # # # + o + o X . : ,.&.e h L.*./ ) ( / ~ c.>.( o.:.2.N O $XgXzXeX7X  ",
"6.m #.#.T h !.L.Y.W L n.>.T._ ` T.:.&.*.-.m : : : $ % $ $ # # # # o # o o . : ..O.e 9.).W.i.Z.R.F.p P.k.e.+.D.l.b o :XlX9X8X9X  ",
"3.m #.@.I h Q.Q.).9.h ].R.!.r.t.j.W >.K.| B : : > $ $ $ # # # # # # o o o . % -.,.e h `.!.z.V.W.V.] m.p.T <.j.v.b o 5XeX&X4X7X  ",
"5.0 @.$.P f Q.I.`.h l.'.F.( I j ^ H ~ j.&.n < : * % $ $ $ # # # # o o o o . % ,.#.r h `.Q.z.Z.).M.{./ I G z.k.c.b O 7X<X$X8X6XjX",
"5.m o.,.E f Q.U.Q.l l./.C.#.-.Z H / 8.C./ b & : : * * $ $ # $ # # # # o o . : -.o.r f `.`.t.N.`.Z.L F @.^ d.R.^ b * 8X%X7.5X8XfX",
"3.m ,.@.Z f W.W.~.r.z.L.Q.m.' [ :.v.e.G./ b & : : & % % $ # $ # # # # o o X : ..%.r f `.R.9.x.Q.W.y l.V.K.v.F.l.b 3 5X4.&XuX4X  ",
"3.m #.@.] f R.[.#Xa b.b.b.(.h k E.g.z H./ b : : : & % $ $ $ # # # # # o o X * ;.o.e s S.( XXT.W.S.r.S.H.D.N.h.^ n # ! =.7.%X=.  ",
"3.m #.%.Z w.Q.3X&XS d.V.z./.Z.9.^.Z.y.K./ b & 4 : & & $ $ $ $ # # # # # # X : ;.o.e d s.o. XOXP.J.w.V.S.D.C.F.^ b X <.dX7X6XqXdX",
"2.m &.$.E l.!.T.XXM v.V.N.I.v.z J.V.t.K.Q b : : : & & & $ $ $ # $ # # # o X : ....e f E.~ |.Y.R.I.l V.S.D.P.H.^ n 7 tXcXlXgXrXaX",
"3.M 2.-.E w.!.( -.0 i.C.D.I.b.l P.V.u.K./ 8 : : : : & % $ $ $ $ $ # # # # o 4 } E ; f N.A #.W N.W.r.N.S.D.P.J.n.b 7 5XhXkXgXuXiX",
"5.P ;.] Z 0.Y.O._ I ) f.P.I.N.w.P.B.t.K./ 8 * 4 : & & & % $ $ $ # $ # # o X * o.@.= i *.Y.l.a E L.y.N.P.C.N.A.M.8 4 4XuXyXrX7XiX",
"6.J ,.-.O.l A N.'.d Z b.W.I.N.w.P.Z.t.K./ 8 : : : : & $ $ $ $ $ $ $ # # # X : ;.o.w p *.!.A.8.A Y.e.x.P.G.D.A.( n q uXlXyX:X1XaX",
"5.N 1.{ Z l.E w.!.~ Z Z.Q.I.V.y.P.V.t.G.W 9 : < : : & & % % $ $ $ # # # # o : } T e s O.Y.f.p R L.9.x.H.P.P.J.( 2 M yXgX,X:X7XaX",
"5.B X.{ T e.m.I A T ^ F.U.W.e.s h.J.j d.Q 8 : : : : & % % $ $ $ $ $ # # o o : } S e a.l.E Z Z m.(.z d.P.U.C.g._ 2 0 sXdX9XsXsXfX",
"6.M ..;.O.h ~.m.( a f.W.W.N.A ' ` K.l d./ 7 : 3 < & : % & $ $ % $ $ $ # # o & o.} ; i.R.D.( l.!.P.t.D.U.L.L.g.` b 3 $X<X>X=X$X  ",
"oXN o.] Z h I.(.R.h C.W.R./ {.T H / a.H.W 8 : 3 < : : % & $ % $ $ $ $ # # o * X...= q.I.(.f.u.I.P.j z G.K.U.W.( v 3 %X:X=X%X4.  ",
"OXJ o.} Z h P.Q.D.w.P.P.R.` S d ~ H ^ h.W 9 : : : : : : & % % $ $ $ $ $ # # 4 } Y ; w.I.I.v.y.W.C.W F :.b.H.K.~ 2 0 sXgXzXgXtXfX",
"oXR #.Y B h P.W.S.e.R.R.R.R.z 9.j.| >.j.L 8 3 3 : : : : & & % % % $ $ $ $ # 5 U Y e j W.I.x.r.R._ }.Q F -.Z.g.~ 2 q hXgX7X9XuXaX",
"*XI | @.T f R.P.n.*.( ( ( M.c.) N./ :.n.S 7 : 4 < : : & : & & % & & % % $ # * X.@.; s I.Q.V.z.~.z.-.m.u.+.>.h.~ 2 M <X$X<XdXyXtX",
"6.N ..| I f R.m.}.{.H +.{.{.|.|.|.XX..H  .6 : 4 : < : : : % & % & & % $ $ $ : X. .e s W.(.N.e./._.l Z.k.l +.K.~ v 5 D %XlXyXuXyX",
"oXP o.R Z h I.H.b.( c.c.c.M.^ ) n.:...:.;.6 : 4 < < : : : : : & & & % % % % 4 U T p f P.Y.>.( n.Y.( ( n.` ;.` ! 8 3 1XlXyXuX6XrX",
"oXR o.R Z f U.W.A.f.R.F.R.E.l g.s.W Y.A.Y 6 : 4 4 < : : : : : : % : % * * % 5 P Z d u 3.}.+.|.+.G XX}.}.XX1.H $.0 9 ;X7X8XeX,X6X",
"oXY X.' Z f P.U.C.x.P.H.F.&.P q.~ +.m.F.J 8 : 1 4 : < < : : : & : : : : * * : | @.p 0.m.` / ( n.n.k ) M.( ..>.:.8 7 =X=X%X4.=.  ",
"*XY | X.I f H.P.C.x.C.K.B...@.K G Q q.D.J 9 : 5 4 < < : < : : : : : : : % % : | ..p j _.E.i.p.R.E.z z k.z @.G.~ , ! cXgXgX$X%XzX",
"*XY X.P Z f H.P.D.u.C.G.K.l.' { n.p.d.L.D 9 : 5 4 < < < : < < : : : : : : : 5 J R p 0.d.i.d.r.J.b.X.k j ' >.g.L , O.lXkXdX>X,XlX",
"*X] ..R Z h S.H.G.t.Z.D.P.A.d u.R.u.p.V.D 5 < 5 5 4 4 < < < : < : < : : : : 5 S P d y |.OXq.y.R.^ +.Q F +.e.h.L , Q gXgXgX:X7XzX",
"-XE O.V m h F.j.H.w.d.P.G.C.h B.J.y.p.V.N 9 < 5 5 4 4 4 < < < < < : < 4 < : : | @.p t #X#Xg h B.d.L } :.l j i.K 2 =.dXsXhX7X:X  ",
"*X%.O.] J 0.b./ Z.z d.P.D.A.h N.H.e.i.V.B 9 < 5 5 5 4 4 < < < < 4 4 4 : 1 : < T ] = w y u t e x u u = t u t y M > =.fX<X8XtX:X  ",
"-X..| ..I u T.+Xd.0.d.P.G.D.g N.I.y.f.V.n 9 4 5 5 < 5 4 5 < 5 1 4 4 4 5 5 : 5 I T ; - r r ; = r e t e = e ; e a 8 =.gX8X4XyXeX  ",
"-X..o.N M j C.m.Z.g d.G.P.J.0.g.!.w.p.( B 7 < 5 5 5 5 5 5 4 4 4 5 4 5 4 5 4 4 T o.| o.O.E | o.o.o.o.| O. .| I T N 6.hX7X4XyXyX  ",
"3X@.X.N M h E.E.K.j g.P.B.b.k ~ ~ U N 0 0 # . o o o O + + # # o O O $ $ # # O M %.] T ] ' ] T E | Y ' ] T S Y P @ <.gXyXeXyXtX  ",
"2X#.o.N M 0.B.b.z a ~ W J n S v , C B m | Q U U K U K J K J J J Z M M 0 M 0 q  .OX5.<.2.1.6.2.1.1.1.6.1.1.<.1.2.Q =XpXeXeXeX7X  ",
"3X-.O.| I Z I B S F , C b 3 ! } :.*X                                                                                            ",
"3Xo.o.J N 8 V 2 B T U <.=X                                                                                                      ",
"  3X] 9 M U :.*X                                                                                                                ",
"    2X                                                                                                                          ",
"                                                                                                                                "
};
