/* XPM */
static char *Gem1694438920[] = {
/* columns rows colors chars-per-pixel */
"64 64 244 2 ",
"   c None",
".  c #000001",
"X  c #06020C",
"o  c #030517",
"O  c #051519",
"+  c #0A1111",
"@  c #2B1F1F",
"#  c #030528",
"$  c #02152C",
"%  c #07093B",
"&  c #06183B",
"*  c #16082D",
"=  c #231732",
"-  c #2F0F2D",
";  c #07283A",
":  c #182439",
">  c #0D282C",
",  c #302B34",
"<  c #40173D",
"1  c #412B2F",
"2  c #430C19",
"3  c #021A49",
"4  c #001B58",
"5  c #13185F",
"6  c #090C43",
"7  c #25174C",
"8  c #182546",
"9  c #193A45",
"0  c #112856",
"q  c #0E2A55",
"w  c #2A2849",
"e  c #2E2A54",
"r  c #3D335B",
"t  c #2E2E49",
"y  c #001A69",
"u  c #0A2A6B",
"i  c #0F2D6D",
"p  c #283A69",
"a  c #313661",
"s  c #32336B",
"d  c #491949",
"f  c #442A56",
"g  c #57375B",
"h  c #4D3551",
"j  c #623849",
"k  c #693355",
"l  c #523867",
"z  c #673B67",
"x  c #623479",
"c  c #1A4854",
"v  c #1C5456",
"b  c #33515C",
"n  c #1D5869",
"m  c #1A4977",
"M  c #155575",
"N  c #3A5566",
"B  c #3A4C73",
"V  c #375476",
"C  c #2B5574",
"Z  c #34666C",
"A  c #28737A",
"S  c #554B4A",
"D  c #73514F",
"F  c #4A456A",
"G  c #445566",
"H  c #5B4877",
"J  c #545679",
"K  c #504F71",
"L  c #61466E",
"P  c #794568",
"I  c #684B74",
"U  c #65547A",
"Y  c #775778",
"T  c #695E6D",
"R  c #5B687C",
"E  c #4D6D73",
"W  c #706B7B",
"Q  c #6C655B",
"!  c #B53230",
"~  c #A0513C",
"^  c #C6733F",
"/  c #E8633F",
"(  c #CC472A",
")  c #953C5B",
"_  c #B43A4F",
"`  c #823971",
"'  c #934C53",
"]  c #BC7341",
"[  c #865678",
"{  c #9B5C78",
"}  c #8F4E6B",
"|  c #B95567",
" . c #A65B73",
".. c #B24B68",
"X. c #946777",
"o. c #AF6C72",
"O. c #D15C4D",
"+. c #E1795D",
"@. c #C5556B",
"#. c #C67564",
"$. c #DA7969",
"%. c #CC6B74",
"&. c #768B76",
"*. c #67A175",
"=. c #889A68",
"-. c #CF8C53",
";. c #E29748",
":. c #D6877B",
">. c #FF957F",
",. c #032883",
"<. c #10368C",
"1. c #343A88",
"2. c #643F81",
"3. c #1E5589",
"4. c #174490",
"5. c #305191",
"6. c #1B6B8B",
"7. c #236584",
"8. c #3D648D",
"9. c #26728F",
"0. c #3475AF",
"q. c #1848A5",
"w. c #595987",
"e. c #4B508A",
"r. c #735988",
"t. c #6D5A98",
"y. c #6B5285",
"u. c #44688B",
"i. c #5D6C8A",
"p. c #5D7782",
"a. c #686387",
"s. c #766A98",
"d. c #687898",
"f. c #767597",
"g. c #6D6E8E",
"h. c #4874AA",
"j. c #537BA8",
"k. c #6E73A8",
"l. c #2E7EC6",
"z. c #736CC9",
"x. c #8B5086",
"c. c #876A89",
"v. c #977784",
"b. c #86699E",
"n. c #897896",
"m. c #967595",
"M. c #966B87",
"N. c #A96882",
"B. c #B97887",
"V. c #B1748F",
"C. c #9378B2",
"Z. c #C57793",
"A. c #D17390",
"S. c #398483",
"D. c #3E979F",
"F. c #3C8EAD",
"G. c #528E94",
"H. c #748B8F",
"J. c #6EA885",
"K. c #5B85AB",
"L. c #4C82B1",
"P. c #4C98B2",
"I. c #7788BB",
"U. c #6F94AF",
"Y. c #50B3BB",
"T. c #70A7A2",
"R. c #5BA48B",
"E. c #3094CD",
"W. c #5995C6",
"Q. c #738DC2",
"!. c #6A99C9",
"~. c #52A7D0",
"^. c #7DB5CD",
"/. c #73ABCC",
"(. c #72ABE2",
"). c #76C3D7",
"_. c #69CFC9",
"`. c #5CD1E1",
"'. c #7CCBE5",
"]. c #918993",
"[. c #A9879A",
"{. c #BA8197",
"}. c #B5919A",
"|. c #8DAB98",
" X c #8886A9",
".X c #9783A9",
"XX c #9796AB",
"oX c #8999AC",
"OX c #A987BC",
"+X c #B192B3",
"@X c #96AFA6",
"#X c #91B3AE",
"$X c #A8AAB7",
"%X c #B4B6B3",
"&X c #A7B09A",
"*X c #D18992",
"=X c #E48B98",
"-X c #F09688",
";X c #C9B191",
":X c #F8A59C",
">X c #FDAA8B",
",X c #C992A9",
"<X c #CCAFB1",
"1X c #F3A9A9",
"2X c #FEB9A1",
"3X c #E4A9B0",
"4X c #98C59B",
"5X c #98C5A5",
"6X c #B2C6B0",
"7X c #D8D5BD",
"8X c #C5C8A1",
"9X c #E6D3BE",
"0X c #B39DCF",
"qX c #86A6C8",
"wX c #8AB7D9",
"eX c #92B3CD",
"rX c #B3B4C9",
"tX c #A597E0",
"yX c #B4BAE4",
"uX c #CEBDC6",
"iX c #D9BDC8",
"pX c #D6ACCB",
"aX c #E3B5D2",
"sX c #8CCCCF",
"dX c #B4CED5",
"fX c #86ECDA",
"gX c #8DF1F9",
"hX c #BAE8E8",
"jX c #B8EDF8",
"kX c #A0F0E2",
"lX c #89CAE1",
"zX c #D4D3D6",
"xX c #C7C7CA",
"cX c #E2C8CB",
"vX c #EAD9DA",
"bX c #F2CBCF",
"nX c #D7E9D3",
"mX c #EDE9C4",
"MX c #D8FEFF",
"NX c #CBF3FA",
"BX c #FDE6E6",
"VX c #FDFBF9",
"CX c #FFF0E0",
"ZX c #E2CFF0",
/* pixels */
"                                                                                                                                ",
"                                                                                                                                ",
"                                                                                                                                ",
"                                                                                                                                ",
"                                                                                                                                ",
"                                                                                                                                ",
"                                                              R                                                                 ",
"                                                              v                                                                 ",
"                                                            > T.p.                                                              ",
"                                                            O hXR                                                               ",
"                                                          : O hX#X:                                                             ",
"                                                          . > kXNX9                                                             ",
"                                                        t . v fXMXb ,                                                           ",
"                                                        ; 9 S.fXNXoXX                                                           ",
"                                                      Z O > Z T.6X#X@ T                                                         ",
"                                                      $ . O v N 8X|.1 1                                                         ",
"                                                    G o > : c b 6XH.V @ &.                                                      ",
"                                                    c c 9 Z n G.mX|.8.G S                                                       ",
"                                                  N A v ; b R.5XmX&XA i.S ].                                                    ",
"                                                  n A : > N *.*.mX6X3.R } [.                                                    ",
"                                                N 6.S.c o Z J.J.7X%XC J o.*XxX                                                  ",
"                                                A `.Z . ; T.5X5X7X%Xp F } ' <X                                                  ",
"                                              N P.gXS.n /.sXJ.6X;XcXK * B.B.[.X.                                                ",
"                                              C Y.D.Y.`.wX@X4X@X].VXzX*  .bX<Xh                                                 ",
"                                            i.9.P.M P./.eX5X5X&XxXVXVX Xd 1XBXzXc.                                              ",
"                                            9 P.D.F.U.Q.U.|.=.;XVXvX3XVXH } -XBXdX                                              ",
"                                          i.m ~.F.~.0.q.k.&.D *XCXvX[.zXdXP #.#.mXzX                                            ",
"                                          V h.!.).~.<.,.e.=.].%XiX3Xm.].nX}.o.^ -.nX                                            ",
"                                        H.i Q.hXU.p e.5..X3XiXVX<X<XM.a.%X6X{ -.] ;XmX                                          ",
"                                        p 5.NXjX0.h.yXyXpX,XpXbXV.}.M.g.].s r.;.-.-.}.                                          ",
"                                      g.m W.wXwX(.wXoXXX XJ M.aX0XC.t.t.x x x.o.;.^ )                                           ",
"                                      : K.lXP.K.i.: + B k.l . s.VXyXz.tX+X[ ` x.o.] ~ B.                                        ",
"                                      3 C sXhXeX4 # + T  Xl . L VXBXBXaXV.j P x.r.Y D ..                                        ",
"                                    p ,.# XXVXrX& q V a.}.a.K U N.1X,X} x.V.[ Y b.8.d.V.Z.                                      ",
"                                  V 7.~.u p MXzX8 # p m n.n.s.U  .,X . .<XV.[ h f p (.rXx t.                                    ",
"                                    /.9.u # wXjXp 3 8 3 B s.U.g.A.Z.*X*X%.| z a f <.W.<XC.                                      ",
"                                    0X# ; 3 u.NXw.e s t 7 I.'.f...Z.%.#.O.%.L d.e.<.0.zXaX                                      ",
"                                      y.# q i jXH.t t l g oXlXf.| *X%._ O.| { qX3.5 9.Q.                                        ",
"                                        f 6 ,.h.i.w w U P f.sXm.A.=X@.! +.o.M.j.u 0 5 b.                                        ",
"                                        OX# 3 <.u.H r.I z s.dX[.A.A.%.$.-Xj g.5.y 4 y.                                          ",
"                                          r.o u 5.0X+XL z U $Xm.@.A.2XBX}., #X~.3.f                                             ",
"                                            * # 4..XV.P < f H.c._ $.$.-Xj Q gXE.# c.                                            ",
"                                            L . F.I.) ` < g oXc.| >.O.! g #Xl.% *                                               ",
"                                              X b gXx.) k I oXm.=X2X>...D I.y # m.                                              ",
"                                              W o K.U.g x.f.J } -X>X2XD k 5 6 c.                                                ",
"                                                * e d.s K s.s.{ ( / :.j 7 m P                                                   ",
"                                                  f k.V 7 r e.M.:X>X:.- M sX*X                                                  ",
"                                                  T y.k.w.t.L l {.bXM.3 `.o.                                                    ",
"                                                    L 0Xb J k.w.=X=XU fX$X                                                      ",
"                                                      0XW * k.OX:XV.(.dXN.                                                      ",
"                                                      s.b.= w.aX} s._.X.                                                        ",
"                                                        3.p h <Xy.K.G                                                           ",
"                                                        u.p I U.eX#XH.                                                          ",
"                                                          8.t.qXqXT.                                                            ",
"                                                            L.wX^.                                                              ",
"                                                            /.~.eX                                                              ",
"                                                              !.                                                                ",
"                                                                                                                                ",
"                                                                                                                                ",
"                                                                                                                                ",
"                                                                                                                                ",
"                                                                                                                                ",
"                                                                                                                                ",
"                                                                                                                                "
};
