/* XPM */
static char *New_Project1694436743[] = {
/* columns rows colors chars-per-pixel */
"64 64 8 1 ",
"  c None",
". c #571616",
"X c #8E0F0F",
"o c #C02828",
"O c #CF6855",
"+ c #D57490",
"@ c #D5AAB7",
"# c white",
/* pixels */
"                                                                ",
"                                                                ",
"                                                                ",
"                                                                ",
"                                                                ",
"                                                                ",
"                                                                ",
"                                                                ",
"                                                                ",
"                                                                ",
"                                                                ",
"                                                                ",
"                                                                ",
"                             .....                              ",
"                             .....                              ",
"                             .....                              ",
"                           ..OOOOO..                            ",
"                           ..OOOOO..                            ",
"                         ..OO+++OOOO..                          ",
"                         ..OO+++OOOO..                          ",
"                         ..OO+++OOOO..                          ",
"                      ...OO++@@@OOOOOO...                       ",
"                      ...OO++@@@OOOOOO...                       ",
"                    ..OOO++@@@@@OOOOOOOOO..                     ",
"                    ..OOO++@@@@@OOOOOOOOO..                     ",
"                    ..OOO++@@@@@OOOOOOOOO..                     ",
"                    ..+++@@@@###++OOOOOOO..                     ",
"                    ..+++@@@@###++OOOOOOO..                     ",
"                    ..@@@@@#####@@++OOOOO..                     ",
"                    ..@@@@@#####@@++OOOOO..                     ",
"                    ..@@@@@#####@@++OOOOO..                     ",
"                    ..OOOOOOOOOOOOOOOOOOO..                     ",
"                    ..OOOOOOOOOOOOOOOOOOO..                     ",
"                    ..ooooooooooooooooooo..                     ",
"                    ..ooooooooooooooooooo..                     ",
"                    ..ooooooooooooooooooo..                     ",
"                    ..ooooooooooXXXXXXooo..                     ",
"                    ..ooooooooooXXXXXXooo..                     ",
"                    ..ooooooooooXXXXXXOOO..                     ",
"                    ..ooooooooooXXXXXXOOO..                     ",
"                    ..ooooooooooXXXXXXOOO..                     ",
"                      ...oooooooXXXXOO...                       ",
"                      ...oooooooXXXXOO...                       ",
"                         ..oooooXXOO..                          ",
"                         ..oooooXXOO..                          ",
"                         ..oooooXXOO..                          ",
"                           ..ooooo..                            ",
"                           ..ooooo..                            ",
"                             .....                              ",
"                             .....                              ",
"                             .....                              ",
"                                                                ",
"                                                                ",
"                                                                ",
"                                                                ",
"                                                                ",
"                                                                ",
"                                                                ",
"                                                                ",
"                                                                ",
"                                                                ",
"                                                                ",
"                                                                ",
"                                                                "
};
