/* XPM */
static char *_1f0b0d8f79248c19f797500274b8758rDcw7iPoAYDKYc3X[] = {
/* columns rows colors chars-per-pixel */
"64 64 46 1 ",
"  c #275D0F",
". c #316817",
"X c #356C1A",
"o c #386D1D",
"O c #3C7422",
"+ c #407726",
"@ c #447A2C",
"# c #497F2E",
"$ c #577C2F",
"% c #4D822F",
"& c #4C8332",
"* c #548433",
"= c #5B8436",
"- c #538936",
"; c #548B3B",
": c #5B8B3A",
"> c #5C913E",
", c #608D3C",
"< c #5E9544",
"1 c #618D40",
"2 c #6A8F42",
"3 c #649443",
"4 c #6D9144",
"5 c #629946",
"6 c #6B9847",
"7 c #6D9648",
"8 c #659D4A",
"9 c #6B9E4C",
"0 c #739A4D",
"q c #769F51",
"w c #789C52",
"e c #66A24E",
"r c #6BA24E",
"t c #70A14F",
"y c #67A750",
"u c #6EA552",
"i c #6FA954",
"p c #71A653",
"a c #79A455",
"s c #71A854",
"d c #7AA857",
"f c #73A658",
"g c #7CA559",
"h c #75AB59",
"j c #7AAB5A",
"k c #79B05D",
/* pixels */
"fiihiykrisssssississpsssissssssssiussssssssssssssisssspsssiissss",
"u8<u5>rksssissssssssssssssssssitsssssssussissssisssspssssuiisiss",
"fuo&Xdsusissssssssssisssssirisssssssssssssssssssissssissiiiissss",
"ui988ukussssstisssispsstssrpisssusssissssussisssiisssssiiiiissss",
"hiriuuississssssssstsssihsuussssssssssssusssspiiiipsssusiiiiuiss",
"rfksssdssssssssisissssssssusssssssussssissssupississspsiiiiiisss",
"fisussuussssisssssssitssssssssssssssssssssusssisspspsssiiiuissss",
"usiusssssssstsssssssssssssssssitssssusspssssssiisssspspsiissssss",
"ssursirssssssssssssssssssssssssssuussssusssrhyiistsuppssiissstjt",
"iydjrihisttissssstssssssssssssssssssssssssusfhffssdstdsssssudutd",
"ssussshssssssssssiisssssssssssssussuurssssssiiffsst6,tsdssssjs,d",
"ssiuudrusssiiisssspsssitsssissssussurrusssssffhfudst,udssssssr:,",
"disk<hshtssstrissssisssssitsssssssssuuusssrkuiffssdssdssiisssjud",
"i%8O5irsisssrrtsssssssssssssssssssssssssssfi8<ffsuitssssssistsdu",
"is%%sfksssssiissssstisssssssrussssssssusitkrf1yeiissisiiiississs",
"siiyfsrssssssssssssisssssssurrussssssssssishu#O siijisiiiisyssus",
"sssssssssssiissssssssssissssussisrissssssissirrrsrssssssssssssss",
"issittssssssssssiisssstissittisssrrssrissrsspsrsdudspspsssssssss",
"sssiurussststsssssssssssssiissssrrrrssssrssssssssdsu6sdsssstssss",
"ssstrrsssssssssstssssssssstsssssssssssssssspppuiust,-rsssssssrss",
"ssstssssssisiississssssssssssssssssssrsssssssssssujsssssssssssss",
"sssissssssisssssssssssssssssssssssssssssssssssssststssssssssssss",
"sssssssssssssssstsssssiissssssssrssssssssssssssssssssdssssssssss",
"sssiiuisssstssssssssssstsssstissssssisssssssistsdssspssssssrssss",
"ssiississssistssssitsssssssstssssssssssssssssssspsssssssssssssss",
"ssstirtssssssssssssssssussusiissssssrsssssssissssssssssssssssssr",
"usssrrisssstiisirrsssssssssssssssssssssssssssssussssssssrsssssss",
"sststiitissrrtssrrsssussisssssssssssssssssssssssssssssssssssssss",
"sssdssiissstrissussssusssissssssssssssrsissippsspsssssssssssssss",
"russssssssssiiisssssssssiissssssssssssssssitrissssspssrspsssssrs",
"8risisshsithstrrusssusssssssstssssssssssstiipsipssssssssssssssss",
"iissssstsisstruisssssssstsssiississssssssssssspssspsissrsssssssi",
"ihiihhsssssssssusssisssssisssrsssssssssssssssstssdrdiiiissieu5er",
"ufhh5ssssussssssssissssssstitrrussssssssssssssssssdssiiikrsO%Xrh",
"hi5<-ussssssssssstssssssstriirsssissssssrssssissdtssrsisyijreyiu",
"h8..%hsssssssusssitsssisiirtssissssrsrssssssssssd6dsssiissisyiii",
"ihe8rsrussssssusssrrississsssssssssssssstsssssss,-ttssiihushirii",
"huifssksusssssssistrtsstssssitssssssssssssssssssdtjddsiiipusikii",
"pufhiususssssssssssissssssissssssssssssssssssssdddtsrsisuhhpppip",
"ihpisssssssussssisssusssssuusssssssrissssssssssstdtssssipfupaaph",
"pfppfpppsssssssrsssussssssissssssssrrsssrssrdssshssshyspsdsp2gaa",
"piiuipffussssssssssssssssssssssrssssssssdssssissrssuiyhftata=2aa",
"piuuruissssssssssssssssussssssursssssssssidsrdssdsyihyiusaa0qg4a",
"phuurussusssssussusssssssssssssrrrssssssssji>ddtisyissfij94=aa$4",
"sssusssssussssrrsistsssssssssssussrirsssssr>-rdstdispphpp7waqggw",
"sssssfssssusssrrsssssusssssssssssssrssdsssddsdstjt5shpup9=3j,agg",
"issssssuusssssirsssssssssssusssssssrsssssrsssrssp3:tfpudffg1=gga",
"isssusssisssssssssssssussssssssussssssrsssstdsddwdpapphppadpa=6g",
"hhffsisssssrrssissssssssssususssiusssssssusspd=,pappissstsssa>ts",
"uufisssssssrruiutsissssssssssssisusssssssiispd,apsspstsssssssrsh",
"uuifssusussuississsssssustssissiiissssssiiusaatdsssrssssssssdtjs",
"fhfhssssssssssiisssuisssssssssssiisssssiiispspdassssssssssstsssi",
"fpsitsssussuisiisssssisssisussssissssssiuiiidudtssiisissssssisss",
"pptissssssssssiisssssssssssssssiiisssssuiiiissdissiiiissstssisss",
"hsssssussssssssiussssussssissstssssisssisiiisssssiiiiiiisiisists",
"upiisisssspsusiissssssssssssssssssssssiiiiiisstssiisisiistisidis",
"spiissssssssssirssstiisssssussssssssuiiiitsssisiusrfrphpisssssis",
"sspisssssssrriresstrisisssssssssssssuisissssssudshssssfpijrhrsss",
"sssssssfirrurrrurrrrssstssssususssssiiiissdissisrfjhsspfsrhih;ss",
"spssiuifjrrirerirssusssssussssssssssiiissij>sdsihsurfjfpij5>O>yh",
"ppsssufissitrruiusurusiisssssssssssiiiiijtt%>rshsdssppapsre-%ehi",
"pssssifhssisrrsisurrssssssssussssssiiiistsjskktsrdpjpauphrfrshii",
"ssdssiisdissrrrissstssstssussssssssiiiisdttttsrsgp*6ppppppkiisiy",
"sshssssssssisiiiiisssusssssssssudsiiiisssddsaihapg:phgpdssrhihyh"
};
