/* XPM */
static char *Screen_Shot_2023_09_11_at_5_08_58_PM__1_1694437818[] = {
/* columns rows colors chars-per-pixel */
"64 64 170 2 ",
"   c None",
".  c #020100",
"X  c #080601",
"o  c #0C0B01",
"O  c #0F0D0B",
"+  c #110E02",
"@  c #110E0A",
"#  c #0F1009",
"$  c #121103",
"%  c #1A1606",
"&  c #13120B",
"*  c #18160D",
"=  c #1B1A0D",
"-  c #121211",
";  c #1A1712",
":  c #1D1A13",
">  c #1E1C1B",
",  c #221C04",
"<  c #221C0B",
"1  c #221D13",
"2  c #211C19",
"3  c #262101",
"4  c #292206",
"5  c #25220C",
"6  c #2B240D",
"7  c #322E0B",
"8  c #333005",
"9  c #262014",
"0  c #2A2514",
"q  c #2D2915",
"w  c #25211C",
"e  c #29231D",
"r  c #2D2A1C",
"t  c #322D14",
"y  c #322C1D",
"u  c #36301F",
"i  c #38361B",
"p  c #272422",
"a  c #282321",
"s  c #2D2C29",
"d  c #322D20",
"f  c #302F28",
"g  c #353223",
"h  c #3E3821",
"j  c #36352E",
"k  c #38372E",
"l  c #3B3A32",
"z  c #443E15",
"x  c #433E25",
"c  c #413E2B",
"v  c #403F32",
"b  c #4D481C",
"n  c #454025",
"m  c #44412E",
"M  c #4B452B",
"N  c #4F492A",
"B  c #4C4523",
"V  c #544E26",
"C  c #444233",
"Z  c #484631",
"A  c #4C4936",
"S  c #454438",
"D  c #4C4939",
"F  c #514E3B",
"G  c #555136",
"H  c #5E5A37",
"J  c #555139",
"K  c #58533D",
"L  c #5E593B",
"P  c #615C3D",
"I  c #434343",
"U  c #5A5642",
"Y  c #5F5D43",
"T  c #535144",
"R  c #5F5E52",
"E  c #5E5E5D",
"W  c #635E43",
"Q  c #605D48",
"!  c #615F50",
"~  c #5F605E",
"^  c #656145",
"/  c #696541",
"(  c #6D6946",
")  c #6B654C",
"_  c #6E694F",
"`  c #65614A",
"'  c #716C45",
"]  c #726C4C",
"[  c #626055",
"{  c #68665A",
"}  c #736E52",
"|  c #7A7454",
" . c #7E7953",
".. c #757258",
"X. c #7E7A5C",
"o. c #6E6D64",
"O. c #6B6B6A",
"+. c #777566",
"@. c #797661",
"#. c #7F7B66",
"$. c #777568",
"%. c #7E7B68",
"&. c #7E7E7D",
"*. c #807A5C",
"=. c #807D6C",
"-. c #827D65",
";. c #87815D",
":. c #8F875F",
">. c #8D885F",
",. c #878265",
"<. c #8C8667",
"1. c #8F8964",
"2. c #89856C",
"3. c #928E60",
"4. c #95916F",
"5. c #999465",
"6. c #8B8774",
"7. c #969274",
"8. c #999575",
"9. c #95927B",
"0. c #9A967A",
"q. c #9D987C",
"w. c #A29D74",
"e. c #A39D7C",
"r. c #A5A07A",
"t. c #ABA67D",
"y. c #888780",
"u. c #8D8D8A",
"i. c #9F9D85",
"p. c #93938D",
"a. c #98978F",
"s. c #979795",
"d. c #989792",
"f. c #989894",
"g. c #A29E84",
"h. c #A7A380",
"j. c #ADA685",
"k. c #A4A18B",
"l. c #AEA78A",
"z. c #AEA88D",
"x. c #B3AD85",
"c. c #BFB882",
"v. c #BBB588",
"b. c #BFBA8C",
"n. c #A5A191",
"m. c #BAB694",
"M. c #ACABA3",
"N. c #C0B980",
"B. c #C0BA89",
"V. c #C4BF94",
"C. c #C7C19A",
"Z. c #CFC99E",
"A. c #C9C39B",
"S. c #D4CE9C",
"D. c #CAC5A0",
"F. c #CFCAA3",
"G. c #D3CEA1",
"H. c #D5CFAA",
"J. c #D6D0AA",
"K. c #D3CEB3",
"L. c #C9C8C5",
"P. c #CDCDCC",
"I. c #D9D8D5",
"U. c #D9D9D9",
"Y. c #E0E0DE",
"T. c #E5E5E2",
"R. c #EBEBEB",
"E. c #F2F2F2",
"W. c #F9F9F7",
"Q. c #F9F9F8",
/* pixels */
"                                                                                                                                ",
"                                                                                                                                ",
"                                                                                                                                ",
"                                                                                                                                ",
"                                                                                                                                ",
"                                                      E.E.E.E.E.E.E.E.E.E.                                                      ",
"                                                      &.E E E E E E E E &.R.                                                    ",
"                                                    I.j . X X X X X X X j I.T.                                                  ",
"                                                Q.d.o @.8.8.8.8.7.7.7.0.@.o d.Q.                                                ",
"                                                d.o.x W ] ] ] ] ] ] } } Q c o.s.T.                                              ",
"                                              U.@ c t.z 3 4 1 1 9 9 1 1 c n.v @ U.                                              ",
"                                              U.O F Z.x.j.z.U < 9 9 e e 0 c ; & U.                                              ",
"                                              I.O C l.j.j.l.] B N x 2 e t N < @ U.                                              ",
"                                              I.& @ 0 6 6 4 3.H.H.<., < M K.T O U.                                              ",
"                                              U.- O 0 e e 9 c K ^ | :.1.-._ r - U.                                              ",
"                                              U.- O e e e e @ . % W V.V.e.< o - U.                                              ",
"                                              U.- O p a a a @ . . X $ & O X . - U.                                              ",
"                                              U.- O p a 2 a O . . . . . . . . - I.                                              ",
"                                              U.- O a a a a O . . . . . . . . - I.                                              ",
"                                                - @ p a a a O . . . . . . . . - U.                                              ",
"                                                I s 2 w a a ; X . . . . . . > I                                                 ",
"                                                E.u.. 2 a a p 2 . . . . . . u.                                                  ",
"                                                  u.. 2 a 2 e w : O . . . . u.                                                  ",
"                                                  u.. e g g r e a : . . . . u.                                                  ",
"                                                W.p.. 0.C.A.^ % 1 1 < : * . p.W.                                                ",
"                                                a.+.J  .>.>.| ) ) ) ) ) ^ J +.d.T.                                              ",
"                                            R.I.+ G K.M < , <.H.G.F.F.G.S.J.G + I.R.                                            ",
"                                            &.k 0.X.M y 1 X = t 7 7 8 3.5.b  .0.l &.                                            ",
"                                            E X m.;.< e 2 X X . . . . X.,., ;.m.o ~                                             ",
"                                            ~ X 7.' < e e a O . . . X -.2.3 ' 7.X ~                                             ",
"                                            E X 4.1._ g w e : ; & c X.P L ] >.4.X !                                             ",
"                                            O.* 2.7.7.m y y d d t } H.V n 7.4.2.= O.                                            ",
"                                                * X + %.e.0.0.w.8.x.G.t.X.+ X * L.                                              ",
"                                                O.l . D W W W W P (  ./ A . l O.                                                ",
"                                                  p.. . . . . . . . . . . . d.Q.                                                ",
"                                                  u.. ! { 1 2 1 . g -.#.! . u.                                                  ",
"                                                  u.. =.6.e e 2 . m h.r.#.. u.                                                  ",
"                                                  u.. -.2.0 2 e . n r.r.X.. u.                                                  ",
"                                                  u.. -.2.9 e 2 . c w.w.#.. u.W.                                                ",
"                                                Y.y.o @.-.0 e 2 o m 7.4...X 6.Y.                                                ",
"                                                w S 9.m r e @ + 2.L X o q 9.S > U.                                              ",
"                                                O c i.x 9 e @ o 0.^ . . 5 g.v # I.                                              ",
"                                                O v g.x e e @ + 8.W . . 5 g.v # U.                                              ",
"                                              U.+ x g.x 9 a @ o 0.^ . . 5 k.v # Y.                                              ",
"                                            P.M.i P e.x 1 2 5 q +.D . . * %.Z r M.P.                                            ",
"                                            { o m.v.w.x : . Y 9.o . . . . . Q 9.o ~                                             ",
"                                            E X B.N.w.x : . Q 0.o . . . . . Q 8.X ~                                             ",
"                                            E o B.N.w.x < . Q 8.$ . . . . . U 6.* O.                                            ",
"                                            E X C.S.Z.B % . ^ q.# . . . . . . ; L.                                              ",
"                                            f.R |  . .P J c J U X p         ~ O.                                                ",
"                                                & . . #.k.k.C . .                                                               ",
"                                                      C , =                                                                     ",
"                                                        g f                                                                     ",
"                                                                                                                                ",
"                                                                                                                                ",
"                                                                                                                                ",
"                                                                                                                                ",
"                                                                                                                                ",
"                                                                                                                                ",
"                                                                                                                                ",
"                                                                                                                                ",
"                                                                                                                                ",
"                                                                                                                                ",
"                                                                                                                                "
};
