/* XPM */
static char *_f60c98dd5bc49c09f7889df139f06ecC8iToljbV4auk78S[] = {
/* columns rows colors chars-per-pixel */
"64 64 139 2 ",
"   c #4C853E",
".  c #458F3A",
"X  c #4A8F3F",
"o  c #52883D",
"O  c #469039",
"+  c #48923D",
"@  c #538440",
"#  c #568F42",
"$  c #5B8A42",
"%  c #5E8C49",
"&  c #559244",
"*  c #5A9246",
"=  c #519A47",
"-  c #5C9148",
";  c #5F9B51",
":  c #628C46",
">  c #6F8846",
",  c #639349",
"<  c #6C914C",
"1  c #7A9A4F",
"2  c #739350",
"3  c #7F9554",
"4  c #739853",
"5  c #799A53",
"6  c #7F9759",
"7  c #7F9C5A",
"8  c #5DA655",
"9  c #60A757",
"0  c #70A561",
"q  c #7CA466",
"w  c #66B562",
"e  c #6DB365",
"r  c #6BB866",
"t  c #70B365",
"y  c #73B569",
"u  c #829556",
"i  c #839C55",
"p  c #899A54",
"a  c #8D9559",
"s  c #839B5A",
"d  c #8C995E",
"f  c #909B57",
"g  c #93935A",
"h  c #969B5B",
"j  c #98995F",
"k  c #A5995F",
"l  c #87A25D",
"z  c #8AA65C",
"x  c #839962",
"c  c #8D9F6B",
"v  c #AB9764",
"b  c #A29D66",
"n  c #A89960",
"m  c #B19966",
"M  c #B09568",
"N  c #B49C6C",
"B  c #B99D6B",
"V  c #B89D70",
"C  c #8DA162",
"Z  c #93A762",
"A  c #9CA163",
"S  c #9DAA6C",
"D  c #9EB07E",
"F  c #A8A266",
"G  c #A5A56C",
"H  c #ABA36D",
"J  c #A5A96E",
"K  c #B1A36B",
"L  c #A4A673",
"P  c #A8A771",
"I  c #ACAB71",
"U  c #AAAC7D",
"Y  c #B4A372",
"T  c #BEA375",
"R  c #B4AA74",
"E  c #BCAA76",
"W  c #BEA77D",
"Q  c #B3AC78",
"!  c #BDAC7A",
"~  c #B3B279",
"^  c #BCB17B",
"/  c #C3A775",
"(  c #C2AB77",
")  c #C4A77B",
"_  c #C8A77D",
"`  c #C4A97C",
"'  c #C8AA7E",
"]  c #C1B07C",
"[  c #97BF81",
"{  c #BAAD80",
"}  c #AFB084",
"|  c #AEBE8F",
" . c #BEB185",
".. c #B7B58C",
"X. c #BCBA93",
"o. c #C5A781",
"O. c #C7A781",
"+. c #C5A783",
"@. c #C6A781",
"#. c #C9A680",
"$. c #C2A980",
"%. c #C2A981",
"&. c #C3AA81",
"*. c #C3AA82",
"=. c #C5A981",
"-. c #C6A981",
";. c #C6AB80",
":. c #C4AB83",
">. c #C4AC80",
",. c #C5AF80",
"<. c #C6AE80",
"1. c #C5AE82",
"2. c #C4AF82",
"3. c #C2AF85",
"4. c #C5AC84",
"5. c #C6AD84",
"6. c #C3A980",
"7. c #C8A881",
"8. c #C9AC80",
"9. c #CBAC80",
"0. c #CAAD81",
"q. c #C9AE81",
"w. c #CDAC81",
"e. c #CBAA81",
"r. c #D0A982",
"t. c #C3B086",
"y. c #C2B186",
"u. c #C5B085",
"i. c #C4B78D",
"p. c #C9B088",
"a. c #C8BA93",
"s. c #C9BD95",
"d. c #CABE98",
"f. c #D3BA92",
"g. c #D5BC94",
"h. c #D6BD95",
"j. c #D7BE96",
"k. c #93C683",
"l. c #D9C098",
/* pixels */
"k.0 @   ; t y e e e e e e e y e y w 8 = . . O O O + + 8 9 e t y e e r w 8 &   4 C G Y Y N N K N W p.f.l.j.g.g.g.j.g.j.j.g.j.g.j.",
"[ q % @ $ - % & * * * & - % % % - - - - * * * * o X o o * # * # * - & # & @ % 7 J ~ ( ` ` ( ( ! W &.3.3.:.&.&.&.:.&.:.&.&.&.&.&.",
"| D c x x x s 7 7 7 7 7 i s s s u 7 i s s i s u i l z z s s s s d d 7 s 6 6 d S R ` q.w._ ' q.u.2.` %.` W ` W ` { &.` W &.W { ` ",
"X...} U L L S G G G G G G G G G P P H G G J J J F J J F G G L P G P L G P G G Y W ` _ _ _ ' ' ' ` ` W ` 2.` 2.' ` ` &.` ` ` &.` ",
"d.s.a.i. .! ! ~ ^ ^ ! ! ! ( ( ^ E W W ] ( ^ ( ~ ] ^ ^ ( ` ! ` W ` ` ` ` ` W ` u.` ` _ _ ` ` ` ` T ` ` ` ` ( ) / ) ) ) / ` ) ` T ",
"3.3.t.u.2.3.' ' ' ' ' ' ' ' ' ' 7.;.' ' ' ' ' ' ( ( ' ' ' q.q.q.q.q.q.` ;.` ` ` >.` ` ` ) ` ` ` ` ' ` ` ` ` ` / ` ( ` ' ` ` ` ` ",
"Y Y Y T W ` ' ( ` ' _ _ _ 7.' ;.;.&.` ` ' ( ` ' ' ' ` ( ` ` ` ` ` ` ` q.q._ ' ` ( ` ( ` ` ` ` ` ` ` ( ) ( ( ` ' ( ` ` ( ` ( ( ` ",
"v v M N T ( ' _ _ _ _ +.;.+.+.&.;.` ` ` ( ` / ` ( ` ` ' ` ` >.>.] W ` ` ` ` ` ` ( W W W ` ` ` _ ' ( ) ( ` ` ' ( ) ( ) ( ` ` ( ` ",
"m v M B / / ' ) _ _ _ +.+.&.%.%.%._ %.%._ ` ) ` _ ` ` _ ` _ &.` ` ` ` ` ` _ ` ` ` ` ` ` ` _ _ _ _ _ ` _ ` ) ` _ ) ` ` ` _ ` _ ` ",
"T T T T / ' / ) ' ( ;.` _ &.&.%.` ;._ ` _ ` ` _ ` ` ) ` +.%.` ` ` ! ! ` _ ` _ ` ` ` ` W ` ` _ _ ` ` ` ` ` _ ` _ ` _ ` _ ` ` ` ` ",
"` ` ` %._ _ ` _ ( ` ` ( ( ( W W &.` &.` _ _ ` ` ) _ ` ) _ ` ` %.2.! ` ` ` _ ` ` ` ` ` ! ! >.` ` ` %.` ` ` ` ` ;.` ` ;.` ` %.` ` ",
"` ` ;.&.` _ ` ` / ` ( ( ! ! ^ ( ` ` ` &.) ` ` ) ' ` _ _ %.` ;.;.` ` ` ` ` ` ` ` ` ` ! ` ` ` ` ` %.` &.` _ %.` ` ` ` _ &.%.` _ %.",
"&.{ +.&.` ` W ! ` ( ! ! ( ! ( ^ ! ` ` ` ` ` _ ` ) ` ) ` ` ` ` ` ` ` ` ` W ` ` ! ! 2.` ! ` ! W ` ` ` ` ` ` ` ` ` ) ` ` ` _ ` ` ` ",
"` ` ` ` ` ` ` ( ! ! ` ` ( ( ( ` ` ` ` ` ` ` ` ` ` ` ` ` ! ` ` ! ` ` ` ` ` ! ` W ! ` ` ` ` ` ! ` ` ` ` ` ` _ ` ` ` ` ` ` ` ` ` ` ",
"' ( ` ` ` ` ` ` ` ` _ _ 7._ _ ` ` ` ` ` ` ` ` ` ` ) ` ` W ` ` ` ` _ ` ` 2.{ ` ` ;._ _ _ ;.` ` ` ` ` ) ` ` ( ( ` ( ` ` ` ( ` ) ` ",
"/ ( ) / / ' ( / ) ' ;._ _ _ #.7.( W ` ` ` ` ` _ ) ` ` ` ` ` W ` +._ +.` ` ` ;._ +._ _ +._ +.` ` ` ) ( ` ( ` ) ) ( ` ( ` ) ) ( ` ",
"' / ' / ` ` ` ` ` ) ` _ ` ) ` _ ` ` ` ` ` ` ` ` ` ` ` ` ` ` ` ` _ ) ` ` ` ` ` ` ) ` _ ` ) _ ` ` ` ` ` ` ` ` ` ` ` ` ` ` ` ` ` ` ",
"` ` ` ` ` ` ` ` ` ` ` ` ` ` ` ` ` ` ` ` ` ` ` ` ` ` ` _ ` ` ` ` ` ` ` ` ` ` ` ` ` ` ` ` ` ` ` ` ` ` ` ` ` ) ` ` ` ` ` ` ` ` ` ` ",
"` ` ` ` ` ) ` ` ` ` ` ` ` ` ` ` ` ` ` ` ` ' ` ` ` ` ` ` ` ` ` ` ` ` ` ` ` ` ` ` ` ` ` ` ` ` ` ` ` ` ` ` ` ` ` ` ` ` ` ` ` ` ) ` ",
"` ` ` ` ` ` ` ` ` ` ` ` ` ` ` ` ` ` ` ` ` ` _ ` ` ` ` ` ` ` ` ` ` ` ` ` ` ` ` ` ` ` ` ` ` ` ` ` ` ` ` ` ` ` ` ` ` ` ` ` ` ` ` ` ",
"` ` ` ` ` ` ` ` ` ` ` ` ` ` ` ` ` ` %.T T T ` ` ` ` ` ` ` ` ` ` ` ` ` ` ` ` ` ` ` ` ` ` ` ` ` ` ` ` ` ` ` ` ` ` ` ) ` ` ` ` ` ` ",
"` ` ` ` ` ` ` ` ` ` ` ` ` ` ` ` &._ T V N V T ) ` ` ` ` ` ` ` ` ` ` ` ` ` ` ` _ ` ` ` ` ` ` ` ` ` ` ` ` ` ` ` ` ` ` ` ` ` ` ` ` ",
"` ) ` ` ` ` ` ` ` ` ` _ ` ` ` ` ` ` T N M V T ` ` ` ` ` ` ` ` ` ` ` ` ` ` ` ` ` ` ` ` ` ` ` ` ` ` ) ` ` ` ` ` ` ` ` ` ` ` ` ` ` ",
"` ` ` ` ` ` ` ` ` ` ` ` ` ` ` ` ` ` T V M V T ` ` ` ` ` ` ` ` ` ` ` ` ` ` ` ` ` ` ` ` ` ` ` ` ` ` ` ` ` ` ` ` ` ` ` ` ` ` ` ` ` ",
"` ` ` ` ` ` ` ` ` ` ` ` ` ` ` ) ` ` ) T T T ` ` ` ` ` ` ` ` ` ` ` ` ` ` ` ` ` ` ` ` ` ` ` ` ` ` ` ` ` ` ) ` ` ` ` ` ` ` ` ` ` ` ",
"` ` ` ` ` ` ` ) ` ` ` ` ` ` ` ` ` ` ` ` ` ` ` ` ` ` ` ` ` ` ` ` ` ` ` ` ` ` ` ) ` ` ` ` ` ` ` ) ` ` ` ` ` ` ` ` ` ` ` ` ` ` ` ` ",
"` ` ` ` ` ` ` ` ` ` ` ` ` ` ` ` ` ` ` ` ' ' ` ` ` ` ` ` ` ` ` ` ` ` ` ` ` ` ` ` ` ` ` ` ` ` ` ` ` ` ` ` ` ` ` ` ` ` ` ` ` ` ` ) ",
"` ` ` ` ` ` ` ` ` ` ` ` ` ` ` ` ` ` ` ` ` ' ` ` ` ` ` ` ` ` ` ` ` ` ` ` ` ` ` ` ` ` ` ` ` ` ` ` ` ` ` ` ` ` ` ` ` ` ` ` ` ` ` ` ",
"` ` ) ` ` ` ` ` ` ` ) ` ` ` ` ` ` ` ` ` ` ` ` ` ` ` ` ` ` ` ` ` ` ` ) ` ` ` ` ` ` ` ) ` ` ` ` ` ` ` ` ` ` ` ` ` ) ` ` ` ` ` ` ` ",
"` ` ` ` ` ` ` ` ` ` ` ` ` ` ` ` ` ;.` ` ` ` ` >.` ` ` ` ` ` ` ` ` ` ` ` ` ` ` ` ` ` ` ` ` ` ` ` ` ` ` ` ` ` ` ` ` ` ` ` ` ` ` ` ",
"` ` ` ` ` ` ` ` ` ` ` ` ` ` ` ` ` ' ` ` ` ` ` ` ` ` ` ` ` ` ` ` ` ` ` ` ` ` ` ` ` ` ` ` ` ` ` ` ` ` ` ` ` ` ` ` ` ` ` ` ` ` ` ` ",
"` ` ` ` ` ` ` ` ` ` ` ` ` ` ` ` ` ` ` ` ` ` ` ` ` ` ` ` ` ` ` ` ` ` ` ` ` ` ` ` ` ` ` ` ` ` ` ` ` ` ` _ ` ` ` ` ` ` ` ` ` ` ` ` ",
"` ` ` ` ` ` ` ` ` ` ` ` ` ` ` ` ` ` ` ` ` ` ` ` ` ` ` ` ` ` ` ` ` ` ` ` ` ` ` ` ` ` ` ` ` ` ` ` ` ` ` ` ` ` ` ` ` ` ` ` ` ` ` ` ",
"` ` ` ` ` ` ` ` ` ` ` ` ` ` ` ` ` ` ` ` ` ` ` ` ` ` ` ` ` ` ` ` ` ` ` ` ` ` ` ` ` ` ` ` ` ` ` ` ` ) ` ` ` ` ` ` ` ` ` ` ` ` ` ` ",
"` ` ` ` ` ` ` ` ` ` ` ` ` ` ` ` ` ` ` ` ` ` ` ` ` ` ` ` ` ` ` ` ` ` ` ` ` ` ` ` ` ` ) ` ` ` ` ` ` ` ` ` ` ` ` ` ) ` ` ` ` ` ` ` ",
"` ` ` ) ` ` ` ` ` ` ` ` ) ` ` ` ` ` ` ` ` ` ` ` ` ` ` ` ` ` ` ` ` ` ` ` ` ` ` ` ` ` ` ` ` ` ` ` ` ` ` ` ` ` ` ` ` ` ` ` ` ` ` ` ",
"` ` ` ` ` ` ` ` ` ` ` ` ` ` ` ` ` ` ` ` ` ` ` ` _ ) ` ` ` ` ` ` ` ` ` ` ` ` ` ` ` ` ` ` ` ` ` ` ` ` ` ` ` ` ` ` ` ` ` ` ` ` ` ) ",
"` ` ` ` ` ` ` ` ` ` ` ` ` ` ` ` ` ` ` ` ` ` ` ` ` ` ` ` ` ` ` ` ` ` ` ` ` ` ` ` ` ` ` ` ` ` ` ` ` _ ` ` ` ` ` ` ` ` ` ` ` ` ` ` ",
"` ` ` ` ` ` ` ` ` ` ` ` ` ` ` ` ` ` ` ` ` ` ` ` ` ` ` ` ` ` ` ` ` ` ` ` ` ` ` ` ` ` ` ` ` ` ` ` ` ` ` ` ` ` ` ` ` ` ` ` ` ` ` ` ",
"` ` ` ` ` ` ` ` ) ` ` ` ` ` ` ` ` ` ` ` ` ` ` ` ` ` ` ` ` ` ` ` ` ` ` ` ` ` ` ` ` ` ` ` ` ` ` ` ` ` ` ` ` ` ` ` ` ` ` ` ` ` ` ` ",
") ` ` ` ` ` ` ` ` ` ` ` ` ` ` ` ` ` ` ` ` ` ` ` ` ` ` ` ` ` ` ` ` ` ` ` ` ` ` ` ` ` ` ` ` ` ` ` ` ` ` ` ` ` ` ` ` ` ` ` ` ` ` ` ",
"` ` _ ` ` ` ` ` ` ` ` ` ` ` ` ` ` ` ` ` ` ` ` ` ` ` ` ` ` ` ` ` ` ` ` ` ` ` ` ` ` ` ` ` ` ` ` ` ` ` ` ` ` ` ` ) ` ` ` ` ` ` ` ` ",
"` ` ` ` ` ` ` ` ` ` ` ` ` ` ` ` ` ` ` ` ` ` ` ` ` ` ` ` ` ` ` ` ` ` ` ` ` ` ` ` ` ` ` ` ` ` ` ` ` ` ` ` ` ` ` ` ` ` ` ` ` ` ` ` ",
"` ` ` ` ` ` ` ` ` ` ` ` ` ` ` ` ` ` ` ` ` ` ` ` ` ` ` ` ` ` ` ) ` ` ` ` ` ` ` ` ` ` ` ` ` ` ` ` ` ` ` ` ` ` ` ` ) ` ` ` ` ` ` ` ",
"` ` ` ` ` ` ` ` ` ` ` ` ` ` ` ` ` ` ` ` ` ` ` ` ` ` ` ` ` ` ` ` ` ` ) ` ` ` ` ` ` ` ` ` ` ` ` ` ` ` ) ` ` ` ` ` ` ` ` ` ` ` ` ` ",
"` ` ` ` ` ` ` ` ` ` ` ` ` ` ` ` ` ` ` ` ` ` ` ` ` ` ` ` ` ` ` ` ` ` _ ` ` ` ` ` ` ` ` ` ` ` ` ` ` ` ` ` ` ` ` ` ` ` ` ` ` ` ` ) ",
"` ` ` ` ` ` ` ` ` ` ` ` _ ) ` ` ` ) ` ` ` ` ` ` ` ` ` ) ` ` ` ` ` ` ` ` ` ` ` ` ) ` ` ` ` ` ` ` ` ` ` ` ` ` ` ` ` ` ` ` ` ` ` ` ",
"` ` ` ` ` ` ` ` ` ` ` ` ` ` ` ` ` ` ` ` ` ` ` ` ` ` ` ` ` ` ` ` ` ` ` ` ` ` ` ` ` ` ` ` ` ` ` ` ` ` _ ) ` ` ` ` ` ` ` ` ` ` ` ` ",
"` ` ` ` ` ` ` ` ` ` ` ` ` ` ` ` ` ` ` ` ` ` ` ` ` ` ` ` ` ` ` ` ` ` ` ` ` ` ` ` ` ` ` ` ` ` ` ` ) _ _ _ ` ` ( ` ` ( ` ` ` _ ` %.",
"` ) ` ` ` ` ` ` ) ` ` ` ` ` ` ` ` ` _ ` ` ` ` ` ` ` ` ` ` ` ` ` ` ` _ ` ` ` ` ` ` ` ` ` ` ` ` ` _ _ _ _ ) ) ` ( ( ! ` ` ` &.` _ ",
"` ` ` ` ` ` ` ` ` ` ` ` ` ` ` ` ` ` ` ` ` ` ` ` ` ` ` ` ` ` ` ` ` ` ` ` ` ` ` ` ` ` ` ` ` ` ` ` ` ` ) _ _ _ _ ` ` 2.` ` ` ' _ _ ",
"` ` ` ` ` ` ` ` ` ` ` ` ` ` ` ` ` ` ` ` ` ` ` ` ) ` ` ` ` ` ` ` ` ` ` ` ` ` ` ` ` ` ` ` ` ` ` ` ! ! ` ) _ _ _ ` ` ! ` ` ` ` ` ` ",
"` ` ` ` ` ` ` ` ` ` ` ` ` ) ` ` ` ` ` ` ` ` ` ` ` ` ` ` ` ` ` _ ` ` ` ` ` ` ` ` ` ` ` ` ` ` ` ! ! ! ` ` _ _ _ ` W ` ! ` ( ! ^ ^ ",
"` ` ` ` ) ` ` ` ` ` ` ` ` ` ` ` ` ` ` ` ` ` ` ` ` ` ` ` ` ` ` ` ` ` ` ` ` ` ` ` ` ` ` ` ` ` ` ` ! ! ` _ _ 7.` _ &.2.` ( ! R I J ",
"` ` ` ` ` ` ` ` ` ` ` ` ` ` ` ` ` ` ` ` ` ) ` ` ` ` ` ` ` ` ` ` ` ` ` ` ` ` ` ` ` ` ` ` ` ` ` ` ! ! ` ` ` ;.%.%.&.` ( ( R J Z z ",
"` ` ` ` ` ` ` ` ` ` ` ` ` ` ` ` ` ` ` ` ` ` ` ` ` ` ` ` ` ` ` ` ` ` ` ` ` ` ` ` ` ` ` ` ` ` ` ` ` ` ` ` ;._ &.{ ;.;.' ( K A l 1 ",
"T ) ;.` ` >.` ` ` ` ` ` ` ` ` ` ` ` ) ` ` ` ` ` ` ` ` ` ` ` ` ` ` ` ` ` ` ` ` ` ` ` ` ` ` ` ` ` ` ( ) _ _ +.;.;.` +.' ' R A p i ",
"V ) ` ` ` ` ` ` ` _ ` ` ` ` ` ` ` ` ` ` ` ` ` ` ` ` ` ` ` ` ` ` ` ` ` ` W ) ` ` ` ` ` ` ` ` ` ` ` ` _ ) _ ) +.` ;.` ' ( E F f f ",
"N T ` ` ` ` ` ` ` ` ` ` ` ` ` ` ` ` ` ` ` ` ` ` ` ` ` ` ` ` ` ` ` ` ` ` ) ` ` ` ` ` ` ` ` ` ` ` ( ` _ _ _ _ _ w._ ` W ! E K k k ",
"V T ` ` ` ` ` ` ` ` ` ` ` ` ` ` ` ` ` ` ` ` ` ` ` ` ` ` ` ` ` ` ` ` ` ` ` ` ` ` ` ` ` ` ` ' ` ' ( ` ) _ _ _ _ ' ` ! R G K K B K ",
"T ` ` ` ` ` ` ` ` ` ` ` ` ` ` ) ` ` ` ` ` ` ` ` ` ` ` ` ` ` ` ` _ ` ` _ _ ` _ ) _ ` ` _ _ ` _ ` ` ` ' ` ' ' ' u.^ I A g h K E / ",
"` ` ` ` ` ` ` _ ` ` ` ` ` ` ` ` ` ` ` ` _ ` ` ` ` ` ` ` ` ` ` ` ) ) ` ` ` ` ` ` ` ` _ ` ` ` ` ` ' ) ` ! ( ! ^ ^ ~ S 3 > u F ^ ' ",
"` ` ` ` ` ` ` ` ` ` ` ` ` ` ` ` ` ` ` ` ` ` ` ` ` ` ` ` ` ` ` ` ` ) ` ` ` ` _ ` ` ` _ ` _ ` ` _ 7.7.` ! Y H H P S l < o < C J R ",
"` ` ` ` %.` _ ` ` ` ` ` ` ` ` ` ` ` ` ` ` ` ` ` ` ` ` ` ` ` ` ` _ ` ' ' 7.7.q.` q.' q._ q.' q.' r.0.` Q b g g f s 5 , $ : 2 a S "
};
