/* XPM */
static char *BugsBunny1694686081[] = {
/* columns rows colors chars-per-pixel */
"64 64 147 2 ",
"   c None",
".  c #202040",
"X  c #262646",
"o  c #282848",
"O  c #2D2D4D",
"+  c #303050",
"@  c #323252",
"#  c #333353",
"$  c #353555",
"%  c #363656",
"&  c #383858",
"*  c #3A3A5A",
"=  c #3B3B5B",
"-  c #3E3E5E",
";  c #404060",
":  c #424262",
">  c #444464",
",  c #464666",
"<  c #484868",
"1  c #494969",
"2  c #4A4A6A",
"3  c #4C4C6C",
"4  c #52526C",
"5  c #505070",
"6  c #515171",
"7  c #525272",
"8  c #535373",
"9  c #545471",
"0  c #545474",
"q  c #555575",
"w  c #565676",
"e  c #585870",
"r  c #585878",
"t  c #5A5A7A",
"y  c #5C5C7C",
"u  c #5E5E7E",
"i  c #65566F",
"p  c #665A74",
"a  c #685870",
"s  c #60607A",
"d  c #80677B",
"f  c #85697B",
"g  c #606080",
"h  c #626282",
"j  c #656583",
"k  c #646484",
"l  c #656585",
"z  c #666686",
"x  c #686880",
"c  c #686888",
"v  c #6B6B8B",
"b  c #6C6C8C",
"n  c #6E6E8C",
"m  c #706884",
"M  c #75758B",
"N  c #74748C",
"B  c #7E728C",
"V  c #707090",
"C  c #727292",
"Z  c #747494",
"A  c #767696",
"S  c #777797",
"D  c #787894",
"F  c #787898",
"G  c #7A7A98",
"H  c #7C7C98",
"J  c #7E7E98",
"K  c #7C7C9C",
"L  c #7E7E9E",
"P  c #807088",
"I  c #8C788E",
"U  c #907080",
"Y  c #90788C",
"T  c #887C96",
"R  c #8C7C94",
"E  c #A07A86",
"W  c #92829A",
"Q  c #AC8C9C",
"!  c #B88890",
"~  c #BA8A92",
"^  c #BE8E96",
"/  c #8080A0",
"(  c #8888A0",
")  c #8888A2",
"_  c #8888A4",
"`  c #8888A8",
"'  c #8C8CA8",
"]  c #8C8CAC",
"[  c #9090A0",
"{  c #9090A4",
"}  c #9090A8",
"|  c #9090AA",
" . c #9292AA",
".. c #9494A8",
"X. c #9696AA",
"o. c #9090B0",
"O. c #9494B0",
"+. c #9494B4",
"@. c #9696B6",
"#. c #9898B0",
"$. c #9C9CB2",
"%. c #9898B8",
"&. c #AE96AA",
"*. c #A0A0B0",
"=. c #A0A0BC",
"-. c #A4A4BC",
";. c #A8A8BC",
":. c #ACACBC",
">. c #C09098",
",. c #C2929A",
"<. c #C6969E",
"1. c #D0989C",
"2. c #D69A9C",
"3. c #C898A0",
"4. c #A0A0C0",
"5. c #A2A2C2",
"6. c #A4A4C4",
"7. c #A8A8C0",
"8. c #A8A8C8",
"9. c #AAAAC8",
"0. c #ACACCC",
"q. c #AEAECE",
"w. c #B0B0C0",
"e. c #B4B4C4",
"r. c #B6B6C6",
"t. c #B8B8C6",
"y. c #B4B4CE",
"u. c #BCBCC8",
"i. c #B0B0D0",
"p. c #B4B4D4",
"a. c #B6B6D4",
"s. c #B6B6D6",
"d. c #BCBCD0",
"f. c #B8B8D8",
"g. c #BABADA",
"h. c #BCBCDA",
"j. c #BCBCDC",
"k. c #BEBEDE",
"l. c #C0C0D4",
"z. c #CECEDA",
"x. c #C0C0E0",
"c. c #C4C4E0",
"v. c #C8C8E0",
"b. c #CCCCE0",
"n. c #D0D0E0",
"m. c #D8D8E0",
"M. c #DADAE0",
/* pixels */
"                                                                                                                                ",
"                                                                                                                                ",
"                                                                                                                                ",
"                                                                                                                                ",
"                                                                                                                                ",
"                                                                                                                                ",
"                                                                O O                                                             ",
"                                                                + -         O                                                   ",
"                                                                & c .     + ;                                                   ",
"                                                              . c 3.;   . m a                                                   ",
"                                                              . Z ,.;   - W U                                                   ",
"                                                              7 F ,.;   ; R U                                                   ",
"                                                              z B ~   + z ^ f                                                   ",
"                                                            + F P a   1 b ~ ;                                                   ",
"                                                          . c c 2.i O u Q E                                                     ",
"                                                          . c c ~   ; T 1.;                                                     ",
"                                                            t <.; . b I f                                                       ",
"                                                            + p & t Y d                                                         ",
"                                                            q g z t ;                                                           ",
"                                                          # F b V z 7                                                           ",
"                                                          7 g z l.b o.q                                                         ",
"                                                          7 g g m. .{ $.X x s                                                   ",
"                                                        & 1 g g =._ c N e n.w.                                                  ",
"                                                      s t.m.m.m.z.x V &.4.` 6.;                                                 ",
"                                                      D h.x.x.x.p.#.+. .+.f.]                                                   ",
"                                                      q +.f.x.p.+.q.%.e.%.F                                                     ",
"                                                        7 Z q.x.f.k.f.' t                                                       ",
"                                                            ; ; c %.( ;                                                         ",
"                                                              ; g i.w.9 +                                                       ",
"                                                          ; t b c i.v.;.1                                                       ",
"                                                        1 b g q c i.q.e.V .                                                     ",
"                                                      1 z g + 1 c i.4.w.V .                                                     ",
"                                                    $ b u &   t c i.i.9.V .                                                     ",
"                                                  . q g -   & c / p.k.4.V .                                                     ",
"                                                  . 7 c 7 . t g o.x.x.` g .                                                     ",
"                                                  1 ; q z ; F c %.x.x.` 1                                                       ",
"                                                  V V ; 7 1 c F p.x.x./ $                                                       ",
"                                                  Z F g $ t g F x.x.x.c                                                         ",
"                                                  ; ` g 1 b z ` x.x.f.z                                                         ",
"                                                    ; z > b c i.x.x./                                                           ",
"                                                        $ g c i.x.x.Z                                                           ",
"                                                        O 7 c 6.x.p.;                                                           ",
"                                                          ; g / 9.L o                                                           ",
"                                                          7 g + g F .                                                           ",
"                                                          3 g + g F .                                                           ",
"                                                          7 g + g F .                                                           ",
"                                                          7 g + g F .                                                           ",
"                                                          7 g + g F .                                                           ",
"                                                          7 g + g F .                                                           ",
"                                                          3 g + g F .                                                           ",
"                                                          7 g + g F .                                                           ",
"                                          j M M           t g + g F .       x M N                                               ",
"                                        s +.n.n.*.M o . 7 c g + g b ; . + { w.n.n.' s                                           ",
"                                      g / k.6.] x.b...F b J ) 4 Z J b D :.x.x.9.9.k.y.;                                         ",
"                                      t / 6. .z.x.k.b.*.-.7.V 3 Z d.#.:.v.x.x.c.:.4.z.;                                         ",
"                                        F L ..x.x.q.4.4.u         ; F 4.4.f.x.k.t.V `                                           ",
"                                            7 g g q                       t g u                                                 ",
"                                                                                                                                ",
"                                                                                                                                ",
"                                                                                                                                ",
"                                                                                                                                ",
"                                                                                                                                ",
"                                                                                                                                ",
"                                                                                                                                "
};
