/* XPM */
static char *carrot1694686316[] = {
/* columns rows colors chars-per-pixel */
"64 64 179 2 ",
"   c None",
".  c #1C141D",
"X  c #1E1B1F",
"o  c #22151D",
"O  c #201E1F",
"+  c #2B171D",
"@  c #341B1D",
"#  c #3C1D1E",
"$  c #3D221A",
"%  c #36221C",
"&  c #1F1620",
"*  c #1E1E21",
"=  c #201721",
"-  c #231A23",
";  c #291C23",
":  c #271F28",
">  c #281F28",
",  c #381E21",
"<  c #1E2322",
"1  c #1F2B25",
"2  c #222421",
"3  c #222D25",
"4  c #2A222B",
"5  c #2E2421",
"6  c #273727",
"7  c #223529",
"8  c #233A2A",
"9  c #303B29",
"0  c #2A3F31",
"q  c #431E1E",
"w  c #4C221F",
"e  c #58281D",
"r  c #623319",
"t  c #6B3818",
"y  c #6E3A17",
"u  c #562420",
"i  c #553B28",
"p  c #6B2B21",
"a  c #652920",
"s  c #732D21",
"d  c #782F21",
"f  c #7F3224",
"g  c #2C432A",
"h  c #244A2F",
"j  c #3C4B2F",
"k  c #2E502F",
"l  c #33542F",
"z  c #264B30",
"x  c #3A4F31",
"c  c #255433",
"v  c #2C5332",
"b  c #285E37",
"n  c #285F38",
"m  c #275E37",
"M  c #3A5D35",
"N  c #2C6137",
"B  c #2B6339",
"V  c #2A6B3B",
"C  c #366335",
"Z  c #336838",
"A  c #396936",
"S  c #2B723D",
"D  c #32753D",
"F  c #3D7539",
"G  c #6F4319",
"H  c #73581F",
"J  c #425B33",
"K  c #4C793B",
"L  c #2D7A40",
"P  c #357F40",
"I  c #82361F",
"U  c #923C1F",
"Y  c #8B3621",
"T  c #853222",
"R  c #9E3C23",
"E  c #903924",
"W  c #A23B23",
"Q  c #874718",
"!  c #954C15",
"~  c #865619",
"^  c #A2421F",
"/  c #AB5018",
"(  c #A65613",
")  c #B75617",
"_  c #B76D16",
"`  c #AC4321",
"'  c #B64124",
"]  c #BA4224",
"[  c #BD4A23",
"{  c #C5541D",
"}  c #CC5D19",
"|  c #D2551F",
" . c #D55D1A",
".. c #D85D1B",
"X. c #C76413",
"o. c #C86912",
"O. c #DC6517",
"+. c #DA6E10",
"@. c #DC6219",
"#. c #DC6A1E",
"$. c #EC760F",
"%. c #ED7A0F",
"&. c #E46C14",
"*. c #E16E19",
"=. c #E67013",
"-. c #EA7512",
";. c #EE7D12",
":. c #E77818",
">. c #E4761C",
",. c #F07F10",
"<. c #C54625",
"1. c #C34A22",
"2. c #CC4F24",
"3. c #CE5021",
"4. c #D15320",
"5. c #44893E",
"6. c #43833C",
"7. c #378C48",
"8. c #2F9149",
"9. c #329349",
"0. c #319A4C",
"q. c #3F9147",
"w. c #3BA54D",
"e. c #3FA94D",
"r. c #498F40",
"t. c #4F8542",
"y. c #469944",
"u. c #5C9544",
"i. c #4EA446",
"p. c #42A34A",
"a. c #44AC4E",
"s. c #48AE4C",
"d. c #47A347",
"f. c #52AF49",
"g. c #4CB34D",
"h. c #46B14E",
"j. c #55BD4D",
"k. c #54B64B",
"l. c #4CAE51",
"z. c #4EB151",
"x. c #60AF4B",
"c. c #63BB4E",
"v. c #67BB52",
"b. c #57C14F",
"n. c #5AC54F",
"m. c #56C050",
"M. c #5AC750",
"N. c #5FC951",
"B. c #65CB53",
"V. c #6BCE54",
"C. c #6DC651",
"Z. c #6FD155",
"A. c #74D256",
"S. c #7AD457",
"D. c #7CD958",
"F. c #7BD459",
"G. c #EF8514",
"H. c #F18411",
"J. c #F58C12",
"K. c #F49415",
"L. c #F89413",
"P. c #F79916",
"I. c #FB9C14",
"U. c #FEA315",
"Y. c #FDA817",
"T. c #FCAC19",
"R. c #FBA518",
"E. c #FCB41C",
"W. c #FCB91F",
"Q. c #FBBD21",
"!. c #FAC424",
"~. c #FAC825",
"^. c #85C654",
"/. c #84D55A",
"(. c #84DC5A",
"). c #8DDF5C",
"_. c #8DE15C",
"`. c #92E35D",
"'. c #98E75E",
/* pixels */
"                                                                                                                                ",
"                                                                                                                                ",
"                                                                                                                                ",
"                                                                                                                                ",
"                                                                                                                                ",
"                                                                                                                                ",
"                                                                                                                                ",
"                                                                                                                                ",
"                                                                                                                                ",
"                                                                                                                                ",
"                                                                                                                                ",
"                                                                                      4 4 4                                     ",
"                                                                      - &             . z 1 o                                   ",
"                                                                    - 2 3 -           & q.Z 3 o                                 ",
"                                                                    - F 6.2 .         o ^.A.r.O .                               ",
"                                                                    - N e.y.. .     = . ^.`.S.y.O                               ",
"                                                                    - n z.F.5.3 -   < N /.'.(.f.-                               ",
"                                                                    - 7 t.`.D.9 -   7 p.).'.(.g.O                               ",
"                                                                    : . J (.'.M 7   l v.`._.A.d.O                               ",
"                                                                      - x N._.a.c 8 s.).`.V.h.L X                               ",
"                                                                      - l b.N.w.c j ).'.V.a.S X .                               ",
"                                                                      - l m.w.z A x.`.Z.a.N 1 .                                 ",
"                                                                      - l j.0.1 K S.Z.g.B 1 . . 4                               ",
"                                                                      0 Z g.S k u.F.s.L < . . X 8                               ",
"                                                          , @ @ @ .   7.0.9.3 i.M.h.S < . . * 7 8.3                             ",
"                                                      - : R ] ] ] o = N 0.0.k.M.h.D X . . . 8 8.0.3                             ",
"                                                    . @ W O.=.@.<.R q b w.j.M.e.B < . . V q.c.F.m.8                             ",
"                                                  4 # Y ..H.H.=...<.w n e.j.M v c n N F c.Z.D.C.A 2                             ",
"                                                  : a  .;.R.L.H.$.<.p x P r.7 8 D w.a.B.(.F.v.6.O -                             ",
"                                                & . t ,.U.!.E.L.$.<.<.p . * 0.0.g.n.B.`.B.a.V . .                               ",
"                                                ; d #.R.!.~.~.!.Y.-.| <.Y 5 j.j.b.b.g.9.3 . o &                                 ",
"                                              - f ) ;.R.!.~.~.!.Q.L.:.| ' Y g g D 7.g 8                                         ",
"                                            & . / *.J.Q.~.~.~.~.~.W.I.;.O.O.( U i 7 .                                           ",
"                                            o u X.;.P.Q.~.~.~.~.~.W.Y.J.-.$.$.3.p - -                                           ",
"                                            % [ &.J.R.T.~.!.!.!.~.U.I.J.$.$.=.[ a :                                             ",
"                                        : w 3.P.Y.J.K.~.!.G.J.U.U.$.$.$.$.$.<.# . >                                             ",
"                                      - X e -.W.!.T.T.~.~.U.>.@.,.$.$.$.&.1.# o -                                               ",
"                                      . y o.P.!.!.!.!.!.T.U.G.@.| -.@.| ^ q .                                                   ",
"                                    4 . ! H.Y.!.~.~.!.E.U.L.H.&... .E d u o o                                                   ",
"                                    . $ ( H.U.W.~.!.E.I.I.%.$.$.&.W q & - >                                                     ",
"                                  . . o.J.I.$.I.W.W.U.I.$.$.$.&.<.. . 4                                                         ",
"                                  @ +.P.E.!.!.!.T.Y.L.$.$.$...R + o                                                             ",
"                                & % L.E.!.~.!.E.L.:.*.$.$.@.U w .                                                               ",
"                              : $ Q E.~.~.!.E.L.$.&...} ! I w . o                                                               ",
"                              - G K.~.~.Q.E.L.$.$.&.{ T o = = :                                                                 ",
"                            X . H !.~.~.E.I.$.$.$.@.U o .                                                                       ",
"                            . ~ E.!.U.U.J.$.$.$.4.d . =                                                                         ",
"                          - . ~ U.Y.H.H.$.&.{ r w @ =                                                                           ",
"                          . r _ I.J.$.O.) Q s o : :                                                                             ",
"                          . ) H.J.&.X.` e . . .                                                                                 ",
"                          . ( +.} W o - = 4                                                                                     ",
"                          . % $ # @ .                                                                                           ",
"                                                                                                                                ",
"                                                                                                                                ",
"                                                                                                                                ",
"                                                                                                                                ",
"                                                                                                                                ",
"                                                                                                                                ",
"                                                                                                                                ",
"                                                                                                                                ",
"                                                                                                                                ",
"                                                                                                                                ",
"                                                                                                                                ",
"                                                                                                                                "
};
