/* XPM */
static char *Screen_Shot_2023_09_16_at_12_44_37_PM1694854308[] = {
/* columns rows colors chars-per-pixel */
"64 64 163 2 ",
"   c None",
".  c #060502",
"X  c #090604",
"o  c #0C0905",
"O  c #0E0C09",
"+  c #120C06",
"@  c #180E07",
"#  c #130F09",
"$  c #1A0F09",
"%  c #15120C",
"&  c #1C130A",
"*  c #1E190F",
"=  c #171610",
"-  c #24150B",
";  c #2C170B",
":  c #26190C",
">  c #2D1B0D",
",  c #331D0D",
"<  c #391F0D",
"1  c #231B11",
"2  c #2A1D11",
"3  c #2D220E",
"4  c #35210E",
"5  c #3B220E",
"6  c #3F290F",
"7  c #2E2112",
"8  c #342312",
"9  c #3A2612",
"0  c #3D2913",
"q  c #3F3013",
"w  c #42250E",
"e  c #452A0F",
"r  c #4B2A0F",
"t  c #502B0F",
"y  c #42330F",
"u  c #463D0F",
"i  c #432610",
"p  c #442B13",
"a  c #4B2C12",
"s  c #482F18",
"d  c #512E12",
"f  c #453114",
"g  c #4C3315",
"h  c #443B10",
"j  c #4D3B12",
"k  c #47331A",
"l  c #4C3419",
"z  c #543415",
"x  c #5A3516",
"c  c #533B15",
"v  c #5C3B16",
"b  c #523619",
"n  c #5B3719",
"m  c #543A1A",
"M  c #5C3C1A",
"N  c #623B16",
"B  c #633D19",
"V  c #693F1A",
"C  c #4D4511",
"Z  c #474A12",
"A  c #4C4B12",
"S  c #554413",
"D  c #5B4415",
"F  c #554A13",
"G  c #5C4B15",
"H  c #56411C",
"J  c #5C431A",
"K  c #5C4A19",
"L  c #565312",
"P  c #5C5214",
"I  c #5D5C13",
"U  c #5F5118",
"Y  c #634416",
"T  c #6B4317",
"R  c #634B16",
"E  c #64431B",
"W  c #6A451C",
"Q  c #654B1B",
"!  c #6B4B1C",
"~  c #71461D",
"^  c #734B1E",
"/  c #7A4D1F",
"(  c #635315",
")  c #6B5315",
"_  c #645A15",
"`  c #6B5D15",
"'  c #65511A",
"]  c #6B531C",
"[  c #6D5A1A",
"{  c #73531C",
"}  c #7A551E",
"|  c #745B1B",
" . c #7A5D1D",
".. c #646313",
"X. c #696513",
"o. c #656A11",
"O. c #6C6A14",
"+. c #726317",
"@. c #786617",
"#. c #776A17",
"$. c #75631B",
"%. c #7C641D",
"&. c #756C1A",
"*. c #7C6B1D",
"=. c #727316",
"-. c #7D7217",
";. c #7E731C",
":. c #7E7C19",
">. c #5F4220",
",. c #5B4E24",
"<. c #634421",
"1. c #6A4420",
"2. c #644E25",
"3. c #6C4C21",
"4. c #744D21",
"5. c #7A4E21",
"6. c #645122",
"7. c #6E5321",
"8. c #6E5921",
"9. c #735322",
"0. c #7C5323",
"q. c #745A22",
"w. c #7C5B22",
"e. c #75552A",
"r. c #7A5528",
"t. c #7B592A",
"y. c #766521",
"u. c #7C6421",
"i. c #776A21",
"p. c #7D6A22",
"a. c #7B7725",
"s. c #81661F",
"d. c #816C1E",
"f. c #83741E",
"g. c #847C1B",
"h. c #825625",
"j. c #835B25",
"k. c #895C27",
"l. c #825728",
"z. c #855C29",
"x. c #8A5C29",
"c. c #836223",
"v. c #8A6426",
"b. c #836B21",
"n. c #8B642A",
"m. c #846828",
"M. c #8B692F",
"N. c #90612B",
"B. c #857421",
"V. c #887321",
"C. c #887820",
"Z. c #89722B",
"A. c #886E35",
"S. c #887435",
"D. c #967C33",
"F. c #957F3F",
"G. c #83841A",
"H. c #88831E",
"J. c #818A1A",
"K. c #8A8A1D",
"L. c #898121",
"P. c #90823F",
"I. c #A08B40",
/* pixels */
"                                                                                                                                ",
"                                                                                                                                ",
"                                                                                                                                ",
"                                                                                                                                ",
"                                                                          +.+.#.&.                                              ",
"                                                                        %.@.@.@.    (     =.O.                                  ",
"                                                          d.s.s.%.      %.%.[ ' (   R F P I o.                                  ",
"                                                  ;.%.%.%.%.s.%.d.%.d.*.@.|  .{ R R R v j S P P                                 ",
"                                        ) +.%. .B.d.%.%.%.%.b.u.c. .| +.%. .} Y v ! ~ Y v j ) X.O.                              ",
"                              K.H.g.      @.| s.b.b.%.c.u. .w.u.u.u.w.c. .} } Y v v N T v v ) _ o.                              ",
"                              g.g.H.  =.  R ) b.c.c.c.w.j.w.w.w.} } j. .h.} W V c z v T c j ( ( _ o.                            ",
"                        G.:.;.H.g.g.d.&.[ D R } } { ! Q ' w.w.w.w.j.j.j.0.h.4.W T v a v N c G _ o.                              ",
"                        g.g.*.;.f.C.*.c.c.{ v Y E W ! { ! w.9.0.0.0.0.0.0.0.h.h.h.0.^ ^ ) T Y G P                               ",
"                        g.;.d.c.s.| u.c.j.k.W z z Y ^ 7.! 9.3.3.9.^ ~ 4.0.h.h.h.j.k.k.h.Y R R G R X.@.                          ",
"                  J.:.-.#.*.V.b.c.c.j.j.v.r.r.B p g E ! H 9.6.1.3.1.W W / 0.5.h.h.h.N.k.^ D G G Q +.*.                          ",
"                  G.g.g.-.| %.v.j.v.x.z.l.h.h.9.g k b M k k m >.E <.M B ~ 5.5.0.h.h.x.N.j.! G R  .*.                            ",
"                  G.g.G.g.s.c.j.c.k.z.l.r.r.5.5.>.9 s k 0 9 0 M >.>.n n V 1.4.l.h.l.l.j.k.) ! { c.*.                            ",
"                  K.      %.c.c.v.c.j.5.4.4.4.4.m 9 9 0 9 7 4 p m n b s b 1.1.5.5.5.0.l.k.{ } w.b.p.d.                          ",
"                  -.       .s.c.m.c.h.r.e.4.3.<.9 9 s 9 8 8 8 p m b l s s n >.1.4.4.5.h.j.0.} w.%.c.b.*.                        ",
"                K.` ` f.%.h.j.c.c.u.w.r.4.2.<.b 9 9 8 8 8 8 8 s b l l s i s n <.1.1.! 0.r.0.0.5.{ q.@.#.`                       ",
"                  ) ) +.| }  .c.u.Q ! 7.<.<.M s k p 8 p l 9 8 p l b l s i s l n >.>.B 4.4.h.4.4.E g j D G X.                    ",
"                  +.` )  . .! ) ] Q <.Q >.l s s k 9 s s k k 8 8 9 l s s 9 s s b n >.>.1.1.4.E B z c 4.w.j.w.                    ",
"            (     G P S R ) ! c G Y E H b f p k s 9 k 0 9 0 8 2 1 9 s i i i s i s n n B 1.W T x T 4.e.0.j.j.w.' [               ",
"            #.+.R G G S Y Y R D c j j f 0 p 9 0 s 9 9 8 7 7 8 2 1 ; 8 i i i d a l n n n 1.v x V T 4.0.e.w.c.c. .{ +.            ",
"              G G ! ! ! Y S S S v y q 3 0 g 9 8 7 > 1 1 1 1 : : - - - , i i d a d n n n z d B V W M J 4.j.b.b.b.%.+.            ",
"          P F G {  .j.h.9.6.,.f f f e 0 l f 0 7 * % * = % & & * - $ $ - 8 i d r d n n n < n B B E W W q.A.F.m.b.u.%.            ",
"          P j D ^  . .} 9.2.H f 5 5 6 j k f 8 * % % % % % # % % $ $ + + - i r < i d a , a B M B x T ~ e.D.I.Z.C.f.              ",
"          j R ) v 9.j. .r.7.2.m c b m g k 0 = = = % % O % + O % O O + + $ ; 5 < < t w < s n b n v W ^ w.S.P.B.f.a.              ",
"        A D { } Y M.t.z.t.e.1.3.Q J b g 0 7 O % % O O O O o o X o o o o $ ; w t < < < t p v M z v ! {  .%.*.d.B.B.@.            ",
"        u ] c. .0.9.t.t.z.2.3.1.<.m k k 0 * % O O O o o . . . . X X o + - ; w t w r < i a z z v M W { }  .%.c.f.;.              ",
"      Z G  .c.j.j.j.j.9.e.E 3.1.M b k p 8 % % O X X X X . . . . X X X + - ; , w d N z 5 p x x v v T { |  .c.d.b.i.|             ",
"      A   u.w.j. .k.x.j.r.4.3.E M m k 0 9 % X X X X X . . . . . . . X o $ - ; < N N N 5 r x z N Y ! ! ^ }  . .%.p.B.f.          ",
"          u.s.c.j.k.z.j.0.r.3.E M b k q 3 # . o . . . . . . . . . . X + - ; < r n N N < t N N n n V E ! ^ { | ] %.%.            ",
"          b.c.j.j.k.N.h.r.4.! 1.M b k f 4 % O o X . . . . . . . . . X + - , < r x N V w a N N B N V W ! ) { } c.c.c.B.p.        ",
"            c.c.v.c.n.x.h.0.W W J b p 0 8 * o o o X . . . . . . X X X + - ; w w N V N i a x x n z x v Q ^ } k.c.c.c.b.*.        ",
"            c.c.v.v.j.k.h.4.4.1.E M j 0 4 * X X X X . . . . . . . . . X @ - ; ; < d w 5 w r t d x v T W } h.j.j.c.b.b.          ",
"            u.c.j.j.x.k.h.5.4.3.1.E b g p : O . X . . . . . . . . . X o $ - - ; ; r d r w i a d x v V / h.h.h.k.c. .u.          ",
"            } 0.j.x.h.k.h.h.h.5.1.E M b p 3 & O X . . . . . . . . X X + $ , ; w i r B N z 5 a x B B V V ~ h.h.j.w.j.c.          ",
"            } r.h.x.x.x.j.h.5.~ W M B p 4 : & @ O o o . . . . . . X X + - , < r d d d N x a d x B V V ~ ~ / 0.} w.j.b.y.&.      ",
"          ' 9.l.z.l.x.x.x.h.^ V z e e b b g 3 & & # # % @ O o o X X X @ - < < i d d r a d x x x N B 1.5./ V h.k.j.b.b.i.        ",
"          6.9.9.w.j.z.z.j.j.h.x z z ^ W B b g p : % & & & - & & @ # $ : , 5 , 5 r t t r d x x V V V ~ / ^ N ! ~ ! y.y.i.        ",
"          D ] 9.w.c.z.j.j.h.^ ^ 0.5.~ W E M z g 5 : & : : > 4 3 : - : , , , , , < r r e w t x B T ~ / ^ T ~ ! ] w.u.            ",
"        S S S Y ! t.m.n.n.0.h.5.5.5.~ W W B B M 0 > : > : 4 5 4 , > > < 5 < < < < < , , 5 w x N B / / W v ^ w.u.y.              ",
"        F H c j j S R Q Q ^ h.h.h.5./ ^ 4.3.W M b p p 4 > > > 4 4 5 9 5 < > < r w < < ; ; w d N ~ / / W { } w.b.  &.            ",
"          F H J j G ] ) ) } h.h.5.h.h.~ 4.~ ~ W E m b 0 4 : > 5 5 5 4 , > , 5 5 < r r , 5 t x r e V W / w.u.t.                  ",
"            K ' ' P     ` j.j.j.h.5./ 5.4.4.3.W 1.M g s f > > 5 5 5 , : > 5 5 5 i p a d r t N z e x ^ 0.w.w.q.$.                ",
"                        ` `  .k.h.h.h.h.h.~ 4.W 4.B m b g 9 > > 4 4 , > 4 6 e p a a a V d r N T N Y }  .t.q.q.i.                ",
"                      _ ( ) ( } h.h.h.h.5.h.5.3.! E Y b g 0 : 4 4 4 > 5 5 5 i p p s z B T z N T T { ! { q.q.p.a.                ",
"                        _ G F ! 0.j.0.h.j.h.5.5.5.4.E b g s 4 5 4 > , p p e e p p z N E T j v Y D ! G G ] y.                    ",
"                      [ P G S R 9.0.h.j.0.0.5.0.5.4.B b b b p 4 : : 4 6 5 0 p g z v Y W ! j Y ) G G F C K ]                     ",
"                      _ R ( C G ! 9.0.r.j.h.0.5.0.! E B M v 5 5 4 5 e 9 p p g g c J Q ! ) j j R F P P S G _                     ",
"                        P P G G ] { 9.w.4.0.0.4.4.^ 3.1.M c z y 4 6 g g g g b j J D Q ] ) c F F G P L                           ",
"                          ( _ G 6.! 6.7.9.9.0.~ 4.~ ! E E B x r 4 g c g g b S b J D R S K S F   S L                             ",
"                        ( F I A F 7.! Q ! ! 7.7.] 4.3.E E V v g g z c v H J J K Y ( K C C F P                                   ",
"                          _ X.F S U Q K J Q Q 9.3.9.4.3.M z B v c j g c S J S G P G F F L                                       ",
"                            _ L F P P Q ] 7.3.6.! 7.9.3.! m c v v c e y h j S R S F   ( _                                       ",
"                              I       6.] ] ! 3.3.Q q.7.7.1.Q Q Q J g j S _ [ ] G P                                             ",
"                                        ] 7.q.7.7.7.9.9.9.q.8.8.] 7.Q J S U _ ( [ [   ( P                                       ",
"                                            8.9.7.9.q.9.9.7.9.8.7.8.7.Q K P L P _                                               ",
"                                                8.  q.8.q.7.8.' [ 8.      L F G                                                 ",
"                                                      q.q.    [           P                                                     ",
"                                                      y.8.                                                                      ",
"                                                                                                                                ",
"                                                                                                                                "
};
