/* XPM */
static char *tileset_grassland_grass1694543474[] = {
/* columns rows colors chars-per-pixel */
"64 64 222 2 ",
"   c #70A853",
".  c #71A953",
"X  c #71A954",
"o  c #6FA752",
"O  c #70A953",
"+  c #679F4E",
"@  c #659F4E",
"#  c #66A24C",
"$  c #6DA651",
"%  c #70A854",
"&  c #72A756",
"*  c #71A854",
"=  c #72A151",
"-  c #788B4B",
";  c #71A552",
":  c #71A452",
">  c #739E50",
",  c #5F974A",
"<  c #3F783A",
"1  c #538D44",
"2  c #5E984A",
"3  c #71A853",
"4  c #70A852",
"5  c #75A55D",
"6  c #859A7B",
"7  c #79A264",
"8  c #6DA652",
"9  c #6EA652",
"0  c #709F50",
"q  c #768A4A",
"w  c #73934C",
"e  c #7A8248",
"r  c #70A753",
"t  c #749B4F",
"y  c #68A44E",
"u  c #4C8A3F",
"i  c #47813D",
"p  c #6DA551",
"a  c #6FA654",
"s  c #6CA156",
"d  c #6EA554",
"f  c #6FA853",
"g  c #599447",
"h  c #4F8A42",
"j  c #5E964A",
"k  c #6FA552",
"l  c #71A351",
"z  c #748C4A",
"x  c #778E4C",
"c  c #6BA54F",
"v  c #639D4B",
"b  c #589445",
"n  c #649D4D",
"m  c #70A752",
"M  c #6FA753",
"N  c #739E51",
"B  c #71A352",
"V  c #67A34D",
"C  c #669E4E",
"Z  c #639B4C",
"A  c #69A14F",
"S  c #589247",
"D  c #6EA752",
"F  c #788147",
"G  c #76944E",
"H  c #6BA550",
"J  c #659E4D",
"K  c #457E3D",
"L  c #48843D",
"P  c #5A9547",
"I  c #75A45D",
"U  c #73A659",
"Y  c #70A351",
"T  c #70A652",
"R  c #68A24E",
"E  c #67A24D",
"W  c #6EA059",
"Q  c #6FA456",
"!  c #6FA852",
"~  c #558D45",
"^  c #619A4B",
"/  c #6EA751",
"(  c #749A4F",
")  c #739D50",
"_  c #71A652",
"`  c #71994E",
"'  c #768E4B",
"]  c #7A7D46",
"[  c #6AA350",
"{  c #6DA552",
"}  c #5F984A",
"|  c #6BA451",
" . c #69A44E",
".. c #6FA652",
"X. c #70A251",
"o. c #5B9348",
"O. c #4E8741",
"+. c #579047",
"@. c #609B4A",
"#. c #6BA450",
"$. c #5B9448",
"%. c #4A8240",
"&. c #4E8442",
"*. c #559244",
"=. c #609A4A",
"-. c #79A265",
";. c #76A063",
":. c #74964E",
">. c #79874A",
",. c #6DA058",
"<. c #66A050",
"1. c #709E4F",
"2. c #74964D",
"3. c #629A4C",
"4. c #6BA350",
"5. c #6BA650",
"6. c #659F4D",
"7. c #447F3B",
"8. c #4C8740",
"9. c #6CA551",
"0. c #68A34E",
"q. c #6CA650",
"w. c #78A461",
"e. c #71A755",
"r. c #6AA44F",
"t. c #70A556",
"y. c #779C69",
"u. c #72A657",
"i. c #6DA751",
"p. c #69A44F",
"a. c #6CA651",
"s. c #6BA250",
"d. c #659E4E",
"f. c #629B4C",
"g. c #4A843E",
"h. c #4A833F",
"j. c #4C8440",
"k. c #3F763A",
"l. c #569144",
"z. c #70AA53",
"x. c #758A49",
"c. c #778E4B",
"v. c #778F4C",
"b. c #73974D",
"n. c #71A251",
"m. c #709A4E",
"M. c #74984E",
"N. c #798749",
"B. c #75974E",
"V. c #749C50",
"C. c #758949",
"Z. c #73984E",
"A. c #72954C",
"S. c #739F51",
"D. c #6DA14F",
"F. c #7A7D47",
"G. c #748D4A",
"H. c #74A55C",
"J. c #7BA267",
"K. c #719C4F",
"L. c #71A050",
"P. c #75994F",
"I. c #71A753",
"U. c #70A457",
"Y. c #739F62",
"T. c #79A364",
"R. c #72A757",
"E. c #70A150",
"W. c #798148",
"Q. c #76954E",
"!. c #74944D",
"~. c #7A8349",
"^. c #70A552",
"/. c #73944C",
"(. c #71A359",
"). c #7A9A6F",
"_. c #73A45B",
"`. c #719D4F",
"'. c #6FA351",
"]. c #729E50",
"[. c #75984E",
"{. c #798649",
"}. c #71A25A",
"|. c #6EA653",
" X c #71A754",
".X c #6CA255",
"XX c #869A7D",
"oX c #869D7A",
"OX c #6CA550",
"+X c #72A352",
"@X c #67A04F",
"#X c #649C4D",
"$X c #528A44",
"%X c #73A051",
"&X c #67A24E",
"*X c #6F9A61",
"=X c #759D64",
"-X c #67A34E",
";X c #729C4F",
":X c #7B7E47",
">X c #589346",
",X c #46813C",
"<X c #5C9648",
"1X c #70A451",
"2X c #749B50",
"3X c #6EA851",
"4X c #74A65A",
"5X c #71A855",
"6X c #69A34E",
"7X c #6FA551",
"8X c #69A250",
"9X c #70A754",
"0X c #719F5E",
"qX c #778A4A",
"wX c #4F8842",
"eX c #4D8641",
"rX c #72A051",
"tX c #67A14E",
"yX c #47833D",
"uX c #5F9B49",
"iX c #6AA54F",
"pX c white",
/* pixels */
"                                                                                                                                ",
"    . X             o                                                                         O             O                   ",
"    + @   o       o # $                 % & *                                               = - ;         : >       O O         ",
"  . , < 1 2 3       $                 4 5 6 7 4                                   8 9       0 q ;       O w e r     t t         ",
"    y u i p                             a s d                                   f g h j       O           k l     O z x O       ",
"      $ c                                                                         v b n                             m           ",
"              M   3                                                                 .                                 N B       ",
"$ V o       3 C Z A S D                               4                                                             m F G O     ",
"o H         . J K L P 3                               I U                                                             Y T       ",
"    .         o R E $                                 W Q                                                                       ",
"  D J n                                               !                                                                         ",
"  8 ~ ^ .                                                                                                                       ",
"                                                                                                                                ",
"                                                                                              O O               O               ",
"                                                                      / o                   O ( x             r ) _             ",
"                  .             f f                                   V H                   O ` '             Y ] ) O           ",
"    D D       [ { } |            . .                                  o             ..        O O               X.r             ",
"     . .    X o.K O.D           D D                                               p +.p 9                                       ",
"    f f       p @.#.                                    D  .f                       $.%.&.9                                     ",
"                X                                       D  .f     o                 E *.=.                            4 *       ",
"                  o /                                           $ # o                 . 3       r                     -.;.      ",
"                  H V                                             $                         O :.>.r                   ,.<.f     ",
"                    o                                                                       O 1.2.                    !         ",
"                                                                                                O                               ",
"                                                                                                                                ",
"                                                                                                                                ",
"    3 3             $                                                                                                   O O     ",
"3 + 3.4.o         o # $         o     5.D                                         !                                     t t     ",
". 6.7.8.9.          o         H V     0.q.                                      & w.e.                                O z x O   ",
"  ! 0.r.    f f               o /                                               t.y.u.                                  o   O   ",
"             . .                  r.$                                             i.f                                     x t O ",
"    p.p.    D D                   r.$                                                                       .   9       r z t O ",
"    a.a.            M                                     $ r.                                            s.j +.d..       O O   ",
"              o o f.C 3                               5.D $ r.                            O             . + g.h.p               ",
"            . C j.k.J .                               0.q.                                N B               $ D                 ",
"              4.l.l.H                     0.q.                                          m F G O                                 ",
"                . .                       5.D                                             Y T                                   ",
"                                                                                                                                ",
"                                                                                                            = =       r         ",
"                  o                                                                                       z.x.- z.O c.v.z.      ",
"                $ # o                                         r.$                 r                       x b.n.- = m.M.- =     ",
"                  $                 o                         r.$ D 5.          r N.B.O     O           l z V.k C.= V.Z.x.=     ",
"    !                             o # $                           q.0.            A.S.    r ) _     f D.F.) > _ O O G.x         ",
"  H.J.*     !                       $                                             O   O O Y ] ) O     ..K.L.] P.r I.l l e N O   ",
"  U.Y.%   U T.R.                                                                      N B f X.9 f       O   E.W.Q.!.~.^./.:     ",
"    !     (.)._.              0.q.                                                  m F G O   D f             `.: '.].S.[.      ",
"          ! q.!               5.D                                                     Y T                     O     z.A.{.r     ",
"                                                                                                                        r       ",
"  _.}.4                                                                                                                         ",
"  |.9.                                                                                                                          ",
"                                                                                                                                ",
"                                    H o   o                                                                               O     ",
"    * e. X                  $ o  .$ V $   V H                                                             3 3 o         = - ;   ",
"    .XXXoX*               o # a.0.p.f OX0./ o                                   r +X                    M @X#X$X8       0 q %Xr ",
"    &X*X=X%         4       o $ -XV o D 5./ o                                 O ;X:XB                     >X,X<X.     3 O 1X:X2X",
"      3X3X        * 4X5X      $ 6XH       V H                                   7X;Xr       ; ;   o $     OX0.D     . A 8Xm K.; ",
"                  9X0Xt.        / V o     o                                       O       O qX- O               . n wXeX|   O   ",
"                    /                 0.q.                                                  0 rX                  tXyXuX.       ",
"                                $     5.D                                                                           i.f         ",
"                              o # $                                 o                           O                               ",
"                                o                                 o # $                       ; - =                             ",
"                                                                    $                         1XC.=                             ",
"                                                                                                O   iX$                         ",
"                                                                                                    o f                         "
};
